<svg width="32" height="32" viewBox="0 0 32 32" fill="none" xmlns="http://www.w3.org/2000/svg">
<g clip-path="url(#clip0_604_10)">
<path d="M32 0V32H0V0H32ZM8.87313 18.8931C8.77875 18.645 8.72937 18.3859 8.72219 18.1028C8.71531 17.8297 8.7149 17.5594 8.72094 17.2919C8.72099 17.2895 8.72181 17.2872 8.72327 17.2853C8.72473 17.2834 8.72675 17.282 8.72902 17.2814C8.73129 17.2808 8.73368 17.2809 8.73584 17.2818C8.73799 17.2826 8.73978 17.2842 8.74094 17.2862C9.04115 17.7733 9.39594 18.2226 9.80531 18.6341C10.1253 18.9559 10.5212 19.2759 10.8894 19.6034C11.3148 19.9816 11.6683 20.4053 11.95 20.8747C12.1216 21.1606 12.3084 21.5672 12.4653 21.8316C13.2209 23.1025 14.8334 23.6191 16.235 23.5613C17.4641 23.5103 18.7687 23.0022 19.4647 21.9344C19.6478 21.6538 19.8209 21.2456 19.9963 20.9491C20.294 20.4461 20.6657 20.0003 21.1116 19.6116C21.7625 19.0441 22.2141 18.6716 22.6481 18.1559C22.8733 17.8884 23.076 17.6012 23.2563 17.2944C23.2575 17.2922 23.2595 17.2905 23.2618 17.2895C23.2641 17.2885 23.2667 17.2883 23.2692 17.289C23.2716 17.2896 23.2738 17.291 23.2753 17.293C23.2769 17.295 23.2778 17.2975 23.2778 17.3C23.2816 17.499 23.283 17.7245 23.2822 17.9766C23.2816 18.2594 23.2569 18.6047 23.1313 18.8903C23.1299 18.8934 23.1297 18.8968 23.1306 18.9C23.1315 18.9032 23.1336 18.906 23.1363 18.9079C23.1391 18.9097 23.1424 18.9105 23.1456 18.9101C23.1489 18.9097 23.1519 18.9081 23.1541 18.9056C23.4322 18.6106 23.6861 18.2835 23.9159 17.9244C24.0953 17.6442 24.2475 17.3315 24.3725 16.9862C24.7242 16.0152 24.8666 15.0116 24.7997 13.9753C24.7995 13.9731 24.8001 13.9709 24.8012 13.9689C24.8023 13.967 24.804 13.9655 24.806 13.9645C24.808 13.9635 24.8103 13.9632 24.8125 13.9635C24.8147 13.9638 24.8168 13.9648 24.8184 13.9663C25.0422 14.1679 25.2369 14.3936 25.4025 14.6434C25.515 14.8128 25.6094 14.9528 25.67 15.1175C25.6706 15.1191 25.6717 15.1205 25.6732 15.1213C25.6747 15.1222 25.6764 15.1226 25.6781 15.1225C25.6798 15.1223 25.6814 15.1215 25.6827 15.1204C25.6839 15.1192 25.6847 15.1176 25.685 15.1159C25.6896 15.0855 25.691 15.0365 25.6894 14.9688C25.6873 14.8917 25.6693 14.6449 25.6353 14.2284C25.47 12.2047 24.6359 10.2841 23.3009 8.74156C23.2989 8.73927 23.2974 8.7366 23.2964 8.73371C23.2954 8.73081 23.295 8.72775 23.2952 8.7247C23.2954 8.72165 23.2962 8.71867 23.2976 8.71593C23.2989 8.71319 23.3008 8.71075 23.3031 8.70875C23.9265 8.15771 24.3275 7.4724 24.5063 6.65281C24.5356 6.51802 24.555 6.32656 24.5644 6.07844C24.5775 5.72948 24.5445 5.40333 24.4653 5.1C24.3719 4.74219 24.1516 4.32094 23.7425 4.27313C23.535 4.24875 23.2969 4.3625 23.1209 4.47281C22.6791 4.75 22.2309 5.0525 21.7091 5.22344C21.1881 5.39375 20.6259 5.3275 20.1172 5.1325C19.3144 4.82469 18.5381 4.5425 17.705 4.37937C16.3494 4.11375 14.9547 4.17656 13.6303 4.54406C13.2051 4.66219 12.727 4.82385 12.1959 5.02906C12.0661 5.07906 11.9426 5.1226 11.8253 5.15969C11.6314 5.22115 11.5053 5.2574 11.4472 5.26844C11.1316 5.32823 10.8504 5.33615 10.6038 5.29219C9.99156 5.18281 9.42125 4.84844 8.89344 4.49781C8.7574 4.4076 8.61594 4.34198 8.46906 4.30094C8.08719 4.19469 7.81125 4.45469 7.65344 4.77094C7.40625 5.26594 7.38562 5.90562 7.45469 6.46125C7.55969 7.30719 8.08156 8.13531 8.70375 8.70344C8.70927 8.70856 8.71258 8.71563 8.71299 8.72315C8.71339 8.73067 8.71087 8.73806 8.70594 8.74375C7.40312 10.2416 6.5475 12.1512 6.37781 14.1416C6.3474 14.4995 6.32365 14.821 6.30656 15.1062C6.30634 15.1096 6.30729 15.113 6.30927 15.1158C6.31124 15.1185 6.31412 15.1205 6.31739 15.1214C6.32067 15.1223 6.32416 15.122 6.32725 15.1206C6.33035 15.1192 6.33287 15.1168 6.33437 15.1138C6.54094 14.6856 6.84375 14.3063 7.19438 13.9759C7.19578 13.9746 7.19754 13.9738 7.19944 13.9735C7.20133 13.9732 7.20327 13.9735 7.205 13.9743C7.20674 13.9751 7.20821 13.9764 7.20921 13.978C7.21021 13.9796 7.2107 13.9815 7.21063 13.9834C7.13646 15.088 7.3024 16.1547 7.70844 17.1834C7.88406 17.6291 8.16906 18.0612 8.45875 18.4428C8.60375 18.6339 8.73458 18.7886 8.85125 18.9072C8.85333 18.9094 8.8561 18.9108 8.8591 18.9112C8.8621 18.9116 8.86513 18.9108 8.8677 18.9092C8.87027 18.9075 8.87221 18.905 8.8732 18.9021C8.87419 18.8992 8.87416 18.896 8.87313 18.8931Z" fill="#FFFBF5"/>
<path d="M8.87324 18.8932C8.87427 18.896 8.8743 18.8992 8.87331 18.9021C8.87232 18.9051 8.87038 18.9076 8.86781 18.9092C8.86524 18.9109 8.86221 18.9116 8.85921 18.9112C8.85621 18.9108 8.85344 18.9094 8.85136 18.9072C8.73469 18.7887 8.60386 18.6339 8.45886 18.4428C8.16917 18.0613 7.88417 17.6291 7.70855 17.1835C7.30251 16.1547 7.13657 15.088 7.21074 13.9835C7.21081 13.9815 7.21032 13.9797 7.20932 13.978C7.20832 13.9764 7.20685 13.9751 7.20512 13.9743C7.20338 13.9735 7.20144 13.9732 7.19955 13.9735C7.19765 13.9738 7.19589 13.9747 7.19449 13.976C6.84386 14.3063 6.54105 14.6856 6.33449 15.1138C6.33298 15.1168 6.33046 15.1192 6.32736 15.1206C6.32427 15.122 6.32078 15.1223 6.3175 15.1214C6.31423 15.1205 6.31135 15.1186 6.30938 15.1158C6.3074 15.113 6.30645 15.1097 6.30667 15.1063C6.32376 14.8211 6.34751 14.4995 6.37792 14.1416C6.54761 12.1513 7.40324 10.2416 8.70605 8.74377C8.71098 8.73808 8.7135 8.7307 8.7131 8.72318C8.71269 8.71566 8.70938 8.70859 8.70386 8.70346C8.08167 8.13534 7.5598 7.30721 7.4548 6.46127C7.38574 5.90565 7.40636 5.26596 7.65355 4.77096C7.81136 4.45471 8.0873 4.19471 8.46917 4.30096C8.61605 4.342 8.75751 4.40763 8.89355 4.49784C9.42136 4.84846 9.99167 5.18284 10.6039 5.29221C10.8505 5.33617 11.1317 5.32825 11.4473 5.26846C11.5054 5.25742 11.6315 5.22117 11.8254 5.15971C11.9427 5.12263 12.0663 5.07909 12.196 5.02909C12.7271 4.82388 13.2052 4.66221 13.6304 4.54409C14.9548 4.17659 16.3495 4.11377 17.7051 4.3794C18.5382 4.54252 19.3145 4.82471 20.1173 5.13252C20.626 5.32752 21.1882 5.39377 21.7092 5.22346C22.231 5.05252 22.6792 4.75002 23.121 4.47284C23.297 4.36252 23.5351 4.24877 23.7426 4.27315C24.1517 4.32096 24.372 4.74221 24.4654 5.10002C24.5446 5.40336 24.5776 5.7295 24.5645 6.07846C24.5551 6.32659 24.5357 6.51805 24.5064 6.65284C24.3276 7.47242 23.9266 8.15773 23.3032 8.70877C23.3009 8.71078 23.299 8.71322 23.2977 8.71595C23.2963 8.71869 23.2955 8.72167 23.2953 8.72472C23.2951 8.72778 23.2955 8.73084 23.2965 8.73373C23.2975 8.73663 23.299 8.7393 23.301 8.74159C24.636 10.2841 25.4701 12.2047 25.6354 14.2285C25.6694 14.6449 25.6874 14.8917 25.6895 14.9688C25.6912 15.0365 25.6897 15.0855 25.6851 15.116C25.6848 15.1177 25.684 15.1192 25.6828 15.1204C25.6815 15.1216 25.6799 15.1223 25.6782 15.1225C25.6765 15.1227 25.6748 15.1223 25.6733 15.1214C25.6719 15.1205 25.6707 15.1191 25.6701 15.1175C25.6095 14.9528 25.5151 14.8128 25.4026 14.6435C25.237 14.3937 25.0423 14.1679 24.8185 13.9663C24.8169 13.9648 24.8148 13.9638 24.8126 13.9635C24.8104 13.9632 24.8081 13.9635 24.8061 13.9645C24.8041 13.9655 24.8024 13.967 24.8013 13.969C24.8002 13.9709 24.7997 13.9731 24.7998 13.9753C24.8667 15.0116 24.7243 16.0152 24.3726 16.9863C24.2476 17.3315 24.0954 17.6442 23.916 17.9244C23.6863 18.2836 23.4323 18.6106 23.1542 18.9056C23.152 18.9081 23.149 18.9097 23.1457 18.9101C23.1425 18.9105 23.1392 18.9098 23.1364 18.9079C23.1337 18.9061 23.1317 18.9033 23.1307 18.9C23.1298 18.8968 23.13 18.8934 23.1314 18.8903C23.257 18.6047 23.2817 18.2594 23.2823 17.9766C23.2831 17.7245 23.2817 17.499 23.2779 17.3C23.2779 17.2975 23.277 17.2951 23.2755 17.2931C23.2739 17.2911 23.2717 17.2897 23.2693 17.289C23.2668 17.2884 23.2642 17.2886 23.2619 17.2895C23.2596 17.2905 23.2576 17.2922 23.2564 17.2944C23.0762 17.6013 22.8734 17.8885 22.6482 18.156C22.2142 18.6716 21.7626 19.0441 21.1117 19.6116C20.6658 20.0003 20.2941 20.4462 19.9964 20.9491C19.821 21.2456 19.6479 21.6538 19.4648 21.9344C18.7689 23.0022 17.4642 23.5103 16.2351 23.5613C14.8335 23.6191 13.221 23.1025 12.4654 21.8316C12.3085 21.5672 12.1217 21.1607 11.9501 20.8747C11.6684 20.4053 11.3149 19.9816 10.8895 19.6035C10.5214 19.276 10.1254 18.956 9.80542 18.6341C9.39605 18.2226 9.04126 17.7734 8.74105 17.2863C8.73989 17.2842 8.7381 17.2827 8.73595 17.2818C8.73379 17.2809 8.7314 17.2808 8.72913 17.2814C8.72686 17.2821 8.72484 17.2834 8.72338 17.2853C8.72192 17.2872 8.7211 17.2895 8.72105 17.2919C8.71501 17.5594 8.71542 17.8297 8.7223 18.1028C8.72949 18.386 8.77886 18.645 8.87324 18.8932ZM15.9576 4.84346L15.9235 4.93002C15.731 5.39534 15.5785 5.89471 15.5289 6.39502C15.5091 6.59565 15.4994 6.73482 15.4998 6.81252C15.5023 7.24502 15.5584 7.67336 15.6682 8.09752C15.6587 8.11711 15.6563 8.14523 15.661 8.1819C15.6613 8.18337 15.6611 8.18487 15.6603 8.18615C15.6596 8.18743 15.6584 8.18842 15.657 8.18896C15.6556 8.18951 15.654 8.18956 15.6526 8.18913C15.6511 8.1887 15.6498 8.18781 15.6489 8.18659L15.6329 8.1644C15.6215 8.14232 15.6092 8.12002 15.596 8.09752C15.4673 7.87607 15.3077 7.62555 15.1173 7.34596C14.776 6.84534 14.526 6.34534 14.4948 5.73159C14.4946 5.72936 14.4937 5.72722 14.4923 5.72551C14.4908 5.7238 14.4889 5.72261 14.4867 5.72211C14.4845 5.72162 14.4823 5.72185 14.4803 5.72277C14.4783 5.72369 14.4767 5.72525 14.4757 5.72721C14.4309 5.81034 14.393 5.902 14.362 6.00221C14.1029 6.84127 14.3085 7.68971 14.8551 8.36409C14.8872 8.40367 14.9987 8.52909 15.1895 8.74034C15.6723 9.27471 15.8967 9.95752 15.9932 10.6581C15.9932 10.6606 15.9942 10.6629 15.9959 10.6646C15.9976 10.6663 15.9999 10.6672 16.0023 10.6672C16.0047 10.6672 16.007 10.6663 16.0087 10.6646C16.0104 10.6629 16.0114 10.6606 16.0114 10.6581C16.1114 9.9844 16.3126 9.33252 16.7657 8.81252C16.947 8.6044 17.1229 8.43627 17.2757 8.22034C17.7979 7.48221 17.912 6.54877 17.521 5.71909C17.5205 5.718 17.5196 5.71712 17.5185 5.71657C17.5175 5.71602 17.5162 5.71584 17.515 5.71605C17.5138 5.71627 17.5127 5.71686 17.5119 5.71774C17.5111 5.71863 17.5106 5.71976 17.5104 5.72096L17.4967 5.86877L17.4742 6.02784C17.4221 6.31825 17.325 6.58877 17.1829 6.8394C17.0173 7.13169 16.8369 7.41482 16.6417 7.68877C16.5538 7.8119 16.4613 7.97502 16.3642 8.17815L16.3554 8.18784C16.3546 8.1887 16.3534 8.18928 16.3522 8.18951C16.351 8.18974 16.3498 8.18961 16.3487 8.18913C16.3476 8.18865 16.3467 8.18784 16.3461 8.18683C16.3455 8.18581 16.3453 8.18464 16.3454 8.18346L16.352 8.1019C16.4149 7.73961 16.4582 7.44502 16.482 7.21815C16.5428 6.63752 16.4727 6.04482 16.2717 5.44002C16.1946 5.20752 16.1069 4.97857 16.0085 4.75315C16.0077 4.75136 16.0064 4.74985 16.0047 4.74881C16.003 4.74778 16.0011 4.74726 15.9991 4.74733C15.9972 4.74739 15.9952 4.74804 15.9936 4.74919C15.992 4.75034 15.9908 4.75193 15.9901 4.75377L15.9576 4.84346ZM23.6329 5.33784C23.5545 5.6894 23.2667 6.03752 22.996 6.27002C22.5576 6.6469 22.0707 6.9969 21.9473 7.54784C21.8845 7.8269 22.0273 8.01346 22.2142 8.20815C22.2558 8.25148 22.2972 8.28357 22.3382 8.3044C22.3469 8.30889 22.3565 8.31138 22.3662 8.31171C22.3759 8.31203 22.3856 8.31018 22.3945 8.30627C23.4489 7.84565 24.1564 6.77127 23.7807 5.60346C23.7482 5.50242 23.7081 5.41232 23.6604 5.33315C23.6589 5.33058 23.6566 5.32854 23.6538 5.32729C23.6511 5.32604 23.648 5.32564 23.6451 5.32615C23.6421 5.32665 23.6394 5.32804 23.6372 5.33012C23.635 5.33221 23.6335 5.33489 23.6329 5.33784ZM8.37199 5.3394C8.37136 5.33646 8.36987 5.33377 8.36771 5.33168C8.36554 5.3296 8.36279 5.32821 8.35983 5.32771C8.35686 5.3272 8.35382 5.3276 8.35108 5.32885C8.34834 5.3301 8.34605 5.33214 8.34449 5.33471C8.29678 5.41367 8.25667 5.50357 8.22417 5.6044C7.84792 6.77034 8.55355 7.84409 9.60605 8.30503C9.61493 8.30893 9.62459 8.31078 9.63432 8.31046C9.64406 8.31013 9.65361 8.30764 9.6623 8.30315C9.70334 8.28232 9.74469 8.25034 9.78636 8.20721C9.97324 8.01284 10.116 7.82659 10.0535 7.54784C9.93074 6.99752 9.4448 6.64752 9.0073 6.27096C8.7373 6.03846 8.45011 5.69065 8.37199 5.3394ZM14.5198 12.0528C14.5203 12.0543 14.5212 12.0555 14.5225 12.0563C14.5238 12.057 14.5254 12.0573 14.5268 12.0571C14.5283 12.0568 14.5297 12.056 14.5306 12.0548C14.5316 12.0536 14.532 12.0522 14.532 12.0506C14.5439 11.6644 14.4882 11.245 14.3754 10.8713C14.1957 10.2757 13.771 9.79721 13.216 9.49534C12.9527 9.352 12.7255 9.22242 12.5345 9.10659C12.147 8.87127 11.8079 8.42471 11.7264 7.9844C11.6332 7.48086 11.7093 7.00148 11.9545 6.54627C11.9557 6.54425 11.9562 6.54196 11.9562 6.53962C11.9562 6.53729 11.9555 6.53501 11.9542 6.533C11.953 6.531 11.9512 6.52935 11.9491 6.52822C11.947 6.52709 11.9447 6.52653 11.9423 6.52659C11.9375 6.52659 11.93 6.53013 11.9198 6.53721C10.9404 7.21315 10.6632 8.65284 11.5548 9.51409C11.9223 9.86878 12.3654 10.0569 12.8532 10.2563C13.1339 10.371 13.4076 10.4941 13.6373 10.6916C13.9863 10.9918 14.2445 11.3558 14.412 11.7835C14.4491 11.8783 14.485 11.968 14.5198 12.0528ZM17.4798 12.0438C17.4796 12.0455 17.48 12.0473 17.4809 12.0487C17.4818 12.0502 17.4832 12.0514 17.4848 12.0521C17.4864 12.0527 17.4882 12.0529 17.4899 12.0524C17.4916 12.052 17.4931 12.0511 17.4942 12.0497C17.5295 12.0113 17.5279 11.9703 17.5423 11.9278C17.6365 11.6512 17.7689 11.3935 17.9395 11.1547C18.1939 10.7982 18.5154 10.5485 18.9089 10.3775C19.3526 10.1844 19.6367 10.0775 19.9639 9.89346C20.2842 9.71315 20.5951 9.43221 20.7685 9.10065C21.2342 8.21065 20.881 7.06659 20.066 6.52909C20.0575 6.52346 20.0491 6.52211 20.0407 6.52502C20.0394 6.52545 20.0382 6.52619 20.0372 6.52718C20.0361 6.52817 20.0354 6.52939 20.0349 6.53074C20.0344 6.53209 20.0342 6.53354 20.0344 6.53499C20.0345 6.53643 20.035 6.53784 20.0357 6.53909C20.0964 6.64075 20.1399 6.72627 20.1664 6.79565C20.3116 7.17669 20.354 7.55732 20.2935 7.93752C20.2123 8.44909 19.847 8.88096 19.4176 9.1444C19.292 9.22148 19.0566 9.35586 18.7114 9.54752C18.1803 9.84232 17.8222 10.2835 17.637 10.871C17.5403 11.1776 17.49 11.4863 17.486 11.7969C17.4844 11.9173 17.4823 11.9996 17.4798 12.0438ZM16.8742 11.2891C16.8963 11.2328 16.9451 11.0836 17.0207 10.8413C17.1629 10.3853 17.3607 9.98909 17.6576 9.60252C17.8307 9.3769 18.1454 9.09815 18.2982 8.83221C18.5517 8.39065 18.6151 7.86909 18.5026 7.37221C18.502 7.36979 18.5006 7.36761 18.4987 7.36599C18.4968 7.36436 18.4945 7.36336 18.492 7.36312C18.4895 7.36288 18.487 7.36342 18.4848 7.36465C18.4826 7.36589 18.4809 7.36776 18.4798 7.37002C18.3221 7.74148 18.1098 8.09461 17.8429 8.4294C17.7608 8.53232 17.5801 8.73346 17.3007 9.03284C17.037 9.31555 16.8692 9.64815 16.7973 10.0307C16.7313 10.3807 16.734 10.7193 16.8054 11.0466C16.8271 11.1458 16.8428 11.2259 16.8526 11.2869C16.853 11.2893 16.8542 11.2915 16.856 11.2932C16.8578 11.2949 16.8601 11.2959 16.8626 11.2962C16.865 11.2964 16.8675 11.2959 16.8696 11.2946C16.8717 11.2933 16.8733 11.2914 16.8742 11.2891ZM15.1976 11.0638C15.2143 11.0117 15.2182 10.9699 15.2095 10.9385C15.2616 10.671 15.268 10.4048 15.2289 10.14C15.151 9.6144 14.8414 9.18003 14.4873 8.79221C14.3285 8.61825 14.2033 8.47419 14.1117 8.36002C13.8656 8.05357 13.6687 7.72523 13.5207 7.37502C13.52 7.37314 13.5187 7.37156 13.517 7.37052C13.5153 7.36947 13.5132 7.36902 13.5112 7.36923C13.5092 7.36944 13.5072 7.3703 13.5057 7.37168C13.5041 7.37306 13.5031 7.37489 13.5026 7.3769C13.3851 7.9169 13.4681 8.41617 13.7517 8.87471C13.7867 8.93138 13.8271 8.98513 13.8729 9.03596C14.1065 9.29575 14.2531 9.46138 14.3129 9.53284C14.7351 10.0366 14.9651 10.6506 15.1345 11.291C15.1349 11.2922 15.1356 11.2934 15.1367 11.2942C15.1378 11.295 15.139 11.2954 15.1404 11.2954C15.1417 11.2954 15.1429 11.295 15.1439 11.2942C15.1449 11.2934 15.1455 11.2922 15.1457 11.291L15.1976 11.0638ZM21.7601 11.031L21.8239 10.9697C21.8252 10.9684 21.8269 10.9675 21.8288 10.967C21.8306 10.9665 21.8326 10.9664 21.8344 10.9669C21.8363 10.9673 21.838 10.9682 21.8394 10.9695C21.8408 10.9707 21.8419 10.9723 21.8426 10.9741C21.848 10.9889 21.8485 11.0035 21.8442 11.0178C21.864 11.4122 21.8356 11.7683 21.7592 12.086C21.4848 13.2247 20.396 13.9057 19.2564 13.8413C19.2546 13.8412 19.2528 13.8417 19.2514 13.8427C19.2499 13.8437 19.2488 13.8451 19.2481 13.8467C19.2475 13.8484 19.2474 13.8502 19.2479 13.8519C19.2484 13.8536 19.2494 13.8552 19.2507 13.8563C19.4778 14.0219 19.7281 14.1111 20.0017 14.1238C20.2117 14.1331 20.4307 14.1203 20.6464 14.0675C21.3064 13.9063 21.8732 13.5128 22.2364 12.9406C22.6573 12.2775 22.8079 11.4838 22.7692 10.6885C22.7335 9.96565 22.516 9.30502 22.0435 8.75971C22.0424 8.75852 22.0409 8.75772 22.0393 8.75741C22.0377 8.7571 22.0361 8.75731 22.0346 8.758C22.0331 8.75869 22.0319 8.75983 22.0311 8.76126C22.0303 8.76269 22.0299 8.76433 22.0301 8.76596C22.0914 9.14221 22.0964 9.60065 21.9507 9.95065C21.6901 10.5772 21.1057 10.8272 20.4648 10.925C19.4945 11.0728 18.5045 11.3931 18.2995 12.501C18.2649 12.6883 18.2516 12.8574 18.2595 13.0085C18.268 13.1739 18.2801 13.3317 18.2957 13.4819C18.2958 13.4828 18.2963 13.4837 18.297 13.4844C18.2978 13.485 18.2988 13.4853 18.2998 13.4853H18.3076C18.3118 13.4854 18.3158 13.4838 18.3189 13.481C18.322 13.4783 18.3239 13.4744 18.3242 13.4703C18.3463 13.2378 18.4031 13.0013 18.4948 12.7606C18.7117 12.1911 19.0972 11.8314 19.6514 11.6816C19.762 11.6516 19.927 11.6255 20.1464 11.6035C20.3147 11.5866 20.4808 11.5688 20.6448 11.55C21.0701 11.5016 21.4601 11.3447 21.7601 11.031ZM10.1545 10.9922L10.1557 10.9781C10.156 10.9754 10.1571 10.9728 10.1588 10.9706C10.1605 10.9684 10.1628 10.9668 10.1655 10.9659C10.1681 10.9649 10.171 10.9648 10.1737 10.9654C10.1765 10.966 10.179 10.9674 10.181 10.9694L10.2457 11.0328C10.557 11.3603 10.9757 11.515 11.4182 11.5578C12.1226 11.6263 12.7479 11.6635 13.2114 12.2431C13.5035 12.6085 13.6423 13.0466 13.6935 13.5078C13.6935 13.5087 13.6938 13.5096 13.6944 13.5103C13.6951 13.511 13.6959 13.5114 13.6968 13.5114C13.6977 13.5115 13.6986 13.5111 13.6993 13.5105C13.7 13.5099 13.7004 13.5091 13.7004 13.5082C13.8257 12.7869 13.7398 12.02 13.1482 11.5175C12.8289 11.2466 12.4095 11.0975 11.9839 11.0082C11.4714 10.901 10.8948 10.8672 10.4382 10.4869C10.1149 10.2177 9.94594 9.85492 9.93136 9.39846C9.92782 9.2893 9.93178 9.11586 9.94324 8.87815C9.9448 8.84534 9.95917 8.81034 9.96448 8.7769C9.96487 8.77447 9.96446 8.77199 9.9633 8.76982C9.96215 8.76765 9.96031 8.76592 9.95808 8.76489C9.95585 8.76387 9.95334 8.7636 9.95094 8.76413C9.94855 8.76466 9.94639 8.76596 9.9448 8.76784C9.35855 9.48721 9.18074 10.4069 9.24886 11.3356C9.34292 12.6103 10.0495 13.7491 11.3398 14.0681C11.6157 14.1366 11.9235 14.1466 12.1798 14.1C12.3771 14.0642 12.5608 13.9811 12.731 13.8506C12.7321 13.85 12.7329 13.8489 12.7333 13.8477C12.7337 13.8465 12.7337 13.8452 12.7333 13.844C12.7329 13.8428 12.732 13.8418 12.7309 13.8411C12.7298 13.8405 12.7286 13.8402 12.7273 13.8403C12.1415 13.8653 11.611 13.7123 11.136 13.3813C10.6348 13.0319 10.3276 12.5499 10.2145 11.9353C10.1609 11.6447 10.1409 11.3303 10.1545 10.9922ZM8.54324 10.7935C8.53844 10.7964 8.53376 10.8021 8.52917 10.8106C8.28376 11.2846 8.12011 11.7815 8.03824 12.3013C7.9898 12.6082 7.99074 12.9091 7.99636 13.2263C8.0098 14.0125 8.29949 14.775 8.8498 15.3403C9.11824 15.6163 9.46199 15.8166 9.82136 15.9272C10.186 16.0394 10.6289 16.0185 11.0223 15.9516C11.0263 15.9508 11.0298 15.9487 11.0324 15.9457C11.0351 15.9426 11.0366 15.9388 11.0367 15.9347C11.0369 15.9307 11.0356 15.9268 11.0332 15.9235C11.0309 15.9203 11.0274 15.9179 11.0235 15.9169C10.9906 15.909 10.9543 15.904 10.9145 15.9019C10.9031 15.9015 10.8919 15.8999 10.881 15.8972C10.2779 15.7491 9.75511 15.4091 9.36074 14.9107C9.01469 14.4734 8.77157 13.9773 8.63136 13.4225C8.50865 12.9369 8.45636 12.4498 8.47449 11.9613C8.48053 11.7961 8.49928 11.4999 8.53074 11.0728C8.53699 10.9891 8.53042 10.8966 8.5573 10.8044C8.55778 10.8026 8.55771 10.8006 8.5571 10.7988C8.5565 10.797 8.55537 10.7955 8.55388 10.7943C8.55238 10.7931 8.55057 10.7924 8.54868 10.7923C8.54679 10.7921 8.5449 10.7925 8.54324 10.7935ZM23.462 10.835C23.4668 11.0117 23.4765 11.1733 23.491 11.3197C23.5306 11.713 23.5413 12.106 23.5229 12.4985C23.5056 12.8678 23.4308 13.2646 23.2985 13.6888C22.9589 14.7782 22.1257 15.7313 20.9548 15.9225C20.952 15.923 20.9493 15.9243 20.9472 15.9263C20.9452 15.9283 20.9438 15.9309 20.9432 15.9337C20.9427 15.9366 20.943 15.9395 20.9442 15.9421C20.9454 15.9448 20.9473 15.947 20.9498 15.9485C20.9563 15.9522 20.9648 15.9551 20.9754 15.9572C21.0727 15.9768 21.2185 15.9913 21.4129 16.0007C22.757 16.066 23.7395 15.0047 23.9504 13.7478C24.0704 13.0324 24.0227 12.328 23.8073 11.6347C23.7257 11.3731 23.6151 11.1335 23.4757 10.8316C23.4751 10.83 23.4738 10.8288 23.4723 10.828C23.4708 10.8273 23.4691 10.8271 23.4674 10.8275C23.4658 10.8279 23.4643 10.8289 23.4633 10.8303C23.4623 10.8316 23.4619 10.8333 23.462 10.835ZM12.6539 12.6056C12.6536 12.6036 12.6527 12.6018 12.6514 12.6002C12.6501 12.5987 12.6484 12.5975 12.6464 12.597C12.6445 12.5964 12.6424 12.5963 12.6405 12.5969C12.6385 12.5974 12.6368 12.5985 12.6354 12.6C12.4632 12.7994 12.2229 12.9322 11.9785 12.7431C11.8954 12.679 11.8381 12.5956 11.8067 12.4931C11.8021 12.478 11.8 12.4623 11.8004 12.4466L11.8057 12.2291C11.806 12.2172 11.8023 12.2055 11.795 12.196C11.7878 12.1866 11.7776 12.1798 11.766 12.1769L11.5667 12.1256C11.5527 12.1221 11.5379 12.1232 11.5246 12.1288C11.5113 12.1345 11.5001 12.1443 11.4929 12.1569C11.4706 12.1961 11.4557 12.2381 11.4482 12.2831C11.3973 12.5841 11.4754 12.8872 11.7451 13.0469C12.1157 13.2663 12.7357 13.1756 12.6539 12.6056ZM19.346 12.72C19.3413 12.7804 19.3477 12.8117 19.3654 12.8138C19.3977 12.9852 19.4997 13.0919 19.6714 13.1338C20.1429 13.2485 20.5807 12.9391 20.5648 12.4463C20.5606 12.3163 20.5434 12.2222 20.5132 12.1641C20.5083 12.1549 20.5009 12.1473 20.4917 12.1422C20.4301 12.1075 20.2957 12.1622 20.2373 12.1875C20.2232 12.1937 20.2112 12.204 20.2028 12.217C20.1945 12.23 20.1902 12.2452 20.1904 12.2606C20.1919 12.3359 20.1929 12.3843 20.1935 12.406C20.1998 12.5622 20.1014 12.7069 19.9682 12.78C19.737 12.9075 19.512 12.7847 19.3673 12.5991C19.3659 12.5974 19.364 12.5961 19.3619 12.5955C19.3597 12.5949 19.3574 12.595 19.3553 12.5957C19.3532 12.5964 19.3514 12.5977 19.3501 12.5995C19.3488 12.6013 19.348 12.6034 19.3479 12.6056L19.346 12.72ZM9.13292 12.9028C9.13013 12.9036 9.12772 12.9053 9.12616 12.9078C9.1246 12.9102 9.124 12.9131 9.12449 12.916C9.13949 13.0026 9.15292 13.0984 9.1648 13.2031C9.28042 14.2228 10.0426 15.1197 11.107 15.1628C11.5737 15.1816 11.9833 15.0411 12.336 14.7413C12.3379 14.7396 12.3392 14.7374 12.3396 14.7349C12.3401 14.7325 12.3397 14.7299 12.3386 14.7277C12.3374 14.7255 12.3356 14.7237 12.3333 14.7227C12.331 14.7216 12.3285 14.7213 12.326 14.7219C11.7308 14.8704 11.1581 14.8101 10.6079 14.541C9.91855 14.2038 9.42824 13.6081 9.14667 12.9091C9.14561 12.9066 9.1437 12.9045 9.14128 12.9033C9.13886 12.9021 9.13611 12.9018 9.13355 12.9025L9.13292 12.9028ZM19.6498 14.7357C20.0679 15.0836 20.549 15.2195 21.0929 15.1435C21.324 15.111 21.5291 15.0431 21.7082 14.94C22.2922 14.6036 22.6582 14.0945 22.8064 13.4128C22.8426 13.2463 22.8489 13.0785 22.8723 12.9113C22.8727 12.9092 22.8723 12.907 22.8712 12.9052C22.87 12.9034 22.8683 12.9021 22.8662 12.9015C22.8641 12.901 22.862 12.9012 22.8601 12.9022C22.8582 12.9032 22.8568 12.9049 22.856 12.9069C22.791 13.0525 22.7517 13.1395 22.7379 13.1678C22.5348 13.5903 22.2423 13.9838 21.8723 14.2663C21.2317 14.7552 20.4924 14.9085 19.6545 14.726C19.6533 14.7258 19.6521 14.726 19.651 14.7265C19.6499 14.7271 19.6491 14.728 19.6486 14.7291C19.648 14.7302 19.6479 14.7314 19.6481 14.7326C19.6483 14.7337 19.6489 14.7348 19.6498 14.7357ZM13.4767 17.5488L13.5204 17.5653C13.5222 17.566 13.5238 17.5672 13.525 17.5687C13.5262 17.5703 13.527 17.5721 13.5272 17.574C13.5275 17.576 13.5271 17.5779 13.5263 17.5797C13.5255 17.5815 13.5242 17.583 13.5226 17.5841C13.5112 17.592 13.4953 17.5976 13.4751 17.601C12.7807 17.7797 12.0442 17.49 11.6107 16.9288C11.6098 16.9276 11.6086 16.9267 11.6073 16.9262C11.6059 16.9257 11.6044 16.9256 11.603 16.9259C11.6016 16.9262 11.6002 16.9269 11.5992 16.9279C11.5981 16.9289 11.5974 16.9302 11.597 16.9316C11.587 16.9676 11.5888 16.9938 11.6023 17.01C11.5867 17.084 11.5906 17.1352 11.6142 17.1638C11.611 17.2804 11.6267 17.3962 11.661 17.511C11.7181 17.7012 11.8182 17.8531 11.9614 17.9669C12.3542 18.2785 12.937 18.3997 13.446 18.3691C13.4933 18.3662 13.5397 18.3581 13.5851 18.345C13.6043 18.3459 13.6038 18.3579 13.5835 18.3813C13.3621 18.5582 13.1104 18.6517 12.8285 18.6619C12.5083 18.6738 12.2047 18.6115 11.9176 18.475C11.9167 18.4746 11.9157 18.4746 11.9148 18.4748C11.9138 18.475 11.913 18.4755 11.9123 18.4762C11.9117 18.4769 11.9112 18.4778 11.9111 18.4788C11.911 18.4798 11.9112 18.4807 11.9117 18.4816C12.0332 18.6794 12.1792 18.9078 12.3532 19.0535C12.7182 19.3591 13.1529 19.4989 13.6573 19.4728C14.3148 19.4388 15.0298 19.1753 15.4995 18.726C15.5612 18.6668 15.6142 18.5905 15.6585 18.4972C15.6606 18.4928 15.6609 18.4879 15.6593 18.4833C15.6578 18.4787 15.6546 18.4748 15.6504 18.4725C15.4492 18.3617 15.3099 18.2682 15.2326 18.1919C15.0117 17.9735 14.791 17.6769 14.5529 17.4872C14.3151 17.2972 14.1151 17.2225 13.7932 17.0903C13.6205 17.0193 13.4638 16.9138 13.3229 16.7738C12.8101 16.2644 13.1051 15.4028 13.451 14.8903C13.4518 14.8892 13.4521 14.8878 13.452 14.8864C13.4519 14.885 13.4513 14.8836 13.4503 14.8826C13.4493 14.8816 13.448 14.881 13.4466 14.8808C13.4452 14.8806 13.4438 14.8809 13.4426 14.8816C12.8895 15.2328 12.3123 15.6425 12.0582 16.2772C12.0287 16.3514 12.025 16.4152 12.0473 16.4688C12.2904 17.0538 12.887 17.3947 13.4767 17.5488ZM18.3926 18.386C18.3874 18.3824 18.3835 18.3786 18.381 18.3744C18.3798 18.3723 18.3792 18.3698 18.3793 18.3674C18.3794 18.3649 18.3802 18.3626 18.3816 18.3605C18.3831 18.3585 18.385 18.357 18.3873 18.3561C18.3896 18.3551 18.3921 18.3549 18.3945 18.3553L18.421 18.36C18.4619 18.3692 18.5349 18.3736 18.6401 18.3731C19.0976 18.3715 19.504 18.2763 19.8592 18.0875C20.3257 17.8394 20.406 17.4488 20.4117 16.9331C20.4117 16.9318 20.4113 16.9306 20.4105 16.9295C20.4097 16.9284 20.4086 16.9276 20.4074 16.9272C20.4062 16.9268 20.4048 16.9268 20.4036 16.9272C20.4023 16.9276 20.4012 16.9284 20.4004 16.9294C20.3285 17.024 20.2805 17.0833 20.2564 17.1072C19.8242 17.5388 19.161 17.7594 18.5567 17.5985C18.5444 17.5951 18.5208 17.5929 18.486 17.5919C18.4827 17.5879 18.4804 17.5836 18.4792 17.5788C18.4779 17.5736 18.4788 17.5689 18.4817 17.5647C18.4856 17.5591 18.4913 17.5559 18.4985 17.555C18.9006 17.4686 19.2549 17.291 19.5614 17.0222C19.7154 16.8869 20.0426 16.5097 19.9489 16.2844C19.6929 15.6691 19.1617 15.2522 18.5929 14.9322C18.5919 14.9313 18.5905 14.9309 18.5892 14.931C18.5878 14.9311 18.5865 14.9317 18.5856 14.9327C18.5847 14.9337 18.5842 14.935 18.5842 14.9364C18.5842 14.9377 18.5848 14.9391 18.5857 14.94C18.8222 15.2794 18.9459 15.6532 18.957 16.0613C18.9701 16.5282 18.7098 16.8416 18.3132 17.0488C18.2709 17.0707 18.1271 17.1321 17.8817 17.2332C17.6357 17.3344 17.4098 17.4994 17.212 17.7172C17.1193 17.8191 17.0325 17.9182 16.9517 18.0144C16.7913 18.2054 16.6003 18.3523 16.3789 18.455C16.3672 18.4605 16.3582 18.4703 16.3537 18.4822C16.3492 18.4942 16.3496 18.5074 16.3548 18.5191C16.3838 18.5843 16.4224 18.6422 16.4707 18.6928C16.9948 19.2428 17.8048 19.5119 18.5464 19.4672C19.0174 19.4389 19.4119 19.263 19.7298 18.9397C19.846 18.8213 19.9301 18.6878 20.0742 18.4819C20.0749 18.481 20.0752 18.4799 20.0752 18.4788C20.0752 18.4776 20.0748 18.4765 20.0741 18.4756C20.0733 18.4748 20.0723 18.4742 20.0712 18.4739C20.0701 18.4737 20.0689 18.4739 20.0679 18.4744C19.7619 18.6186 19.4426 18.6786 19.1101 18.6544C18.8448 18.635 18.6085 18.5372 18.3926 18.386ZM17.5385 15.1997C17.4517 15.6182 16.8398 15.8547 16.4754 15.9244C15.9208 16.0311 15.3978 15.9529 14.9064 15.69C14.7524 15.6075 14.6281 15.5041 14.5335 15.3797C14.5317 15.3774 14.5302 15.3749 14.5292 15.3722L14.4604 15.2113C14.4547 15.198 14.4445 15.1872 14.4317 15.1808C14.4188 15.1744 14.404 15.1728 14.3901 15.1763C14.2228 15.2182 14.0859 15.3065 13.9795 15.4413C13.841 15.6166 13.737 15.9072 13.8092 16.1135C13.8939 16.3547 14.1173 16.406 14.3735 16.4641C14.8132 16.5635 15.2629 16.966 15.3764 17.395C15.4139 17.5366 15.416 17.7253 15.5548 17.8616C15.642 17.9469 15.792 17.9491 15.9142 17.95C16.057 17.9516 16.282 17.9572 16.3935 17.8816C16.5679 17.7632 16.5679 17.5578 16.6142 17.395C16.6633 17.2211 16.7545 17.0598 16.8876 16.9113C17.1326 16.6377 17.4337 16.4761 17.7907 16.4263C17.907 16.41 18.014 16.3578 18.1117 16.2697C18.2876 16.111 18.2179 15.7663 18.127 15.5856C18.0189 15.3713 17.8139 15.1832 17.5645 15.1788C17.5584 15.1787 17.5525 15.1807 17.5478 15.1845C17.5431 15.1883 17.5398 15.1937 17.5385 15.1997ZM13.0735 20.4297C13.0746 20.5087 13.091 20.5598 13.1229 20.5831C13.1542 20.8067 13.2354 21.0241 13.3667 21.2353C13.6542 21.6978 14.0494 22.0335 14.5523 22.2422C14.5541 22.2429 14.5561 22.243 14.558 22.2426C14.5599 22.2422 14.5616 22.2412 14.563 22.2399C14.5644 22.2385 14.5653 22.2367 14.5657 22.2348C14.566 22.2329 14.5658 22.2309 14.5651 22.2291C14.4335 21.9413 14.3573 21.6238 14.4323 21.3075C14.4335 21.2929 14.4367 21.2814 14.4417 21.2728C14.4427 21.271 14.4442 21.2695 14.446 21.2685C14.4478 21.2674 14.4498 21.2668 14.4519 21.2667C14.454 21.2666 14.456 21.267 14.4579 21.2679C14.4598 21.2688 14.4614 21.2702 14.4626 21.2719C14.4707 21.2831 14.4768 21.2967 14.4807 21.3125C14.7535 21.8872 15.1995 22.2544 15.8395 22.3135C16.6129 22.3847 17.2345 22.0428 17.5251 21.3138C17.5289 21.2942 17.5364 21.278 17.5476 21.2653C17.5489 21.2639 17.5506 21.2628 17.5524 21.2622C17.5543 21.2616 17.5562 21.2614 17.5581 21.2618C17.56 21.2621 17.5618 21.2629 17.5632 21.2642C17.5646 21.2654 17.5657 21.267 17.5664 21.2688L17.5795 21.3044C17.6249 21.6265 17.5767 21.933 17.4348 22.2241C17.4338 22.2261 17.4335 22.2284 17.4338 22.2307C17.4342 22.2329 17.4352 22.235 17.4367 22.2367C17.4383 22.2383 17.4403 22.2395 17.4425 22.24C17.4447 22.2405 17.4471 22.2403 17.4492 22.2394C18.1531 21.9598 18.6226 21.4627 18.8576 20.7481C18.901 20.6153 18.9217 20.49 18.9567 20.3041C18.957 20.3022 18.9567 20.3003 18.9559 20.2986C18.955 20.297 18.9537 20.2956 18.952 20.2947C18.9503 20.2939 18.9484 20.2936 18.9465 20.294C18.9447 20.2943 18.943 20.2952 18.9417 20.2966C18.7245 20.5394 18.3748 20.7297 18.0542 20.6481C17.8032 20.5844 17.7135 20.4469 17.5576 20.2469C17.2585 19.8647 16.691 19.6853 16.2245 19.6481C15.6129 19.5997 14.8485 19.7669 14.451 20.2635C14.3563 20.3822 14.2953 20.4565 14.2682 20.4863C13.9242 20.8657 13.3557 20.5991 13.0601 20.3032C13.0588 20.302 13.0572 20.3012 13.0555 20.3009C13.0538 20.3007 13.052 20.3009 13.0505 20.3016C13.0489 20.3024 13.0476 20.3036 13.0467 20.3051C13.0458 20.3066 13.0453 20.3083 13.0454 20.31C13.0479 20.3515 13.0573 20.3914 13.0735 20.4297Z" fill="#0D0D0E"/>
<path d="M15.9575 4.84344C15.9585 4.85886 15.9693 4.86574 15.9897 4.86407C15.9943 4.86378 15.9989 4.86473 16.0031 4.86682C16.0072 4.86891 16.0107 4.87206 16.0131 4.87594C16.0298 4.9024 16.044 4.9299 16.0559 4.95844C16.2363 5.39469 16.3622 5.83126 16.4334 6.26813C16.437 6.28917 16.4464 6.40438 16.4619 6.61376C16.471 6.73772 16.472 6.85334 16.4647 6.96063C16.4486 7.19813 16.424 7.4124 16.3909 7.60344C16.3601 7.78053 16.3371 7.94574 16.3219 8.09907C16.3216 8.10147 16.322 8.10389 16.3231 8.10603C16.3242 8.10818 16.3259 8.10995 16.328 8.11112C16.3302 8.11229 16.3326 8.11281 16.335 8.11261C16.3374 8.11241 16.3397 8.11151 16.3415 8.11001L16.3519 8.10188L16.3453 8.18344C16.3451 8.18462 16.3454 8.18579 16.346 8.18681C16.3465 8.18783 16.3474 8.18863 16.3485 8.18911C16.3496 8.18959 16.3509 8.18973 16.3521 8.1895C16.3533 8.18926 16.3544 8.18868 16.3553 8.18782L16.364 8.17813L16.3747 8.18219C16.3791 8.18384 16.3839 8.18386 16.3883 8.18225C16.3926 8.18064 16.3962 8.17751 16.3984 8.17344C16.5132 7.9574 16.6185 7.78084 16.7144 7.64376C17.0475 7.16626 17.3469 6.70094 17.49 6.14657C17.5077 6.07782 17.5024 6.03824 17.474 6.02782L17.4965 5.86876C17.4951 5.88272 17.4993 5.89282 17.509 5.89907C17.5105 5.90003 17.5121 5.90061 17.5138 5.90078C17.5155 5.90094 17.5172 5.90068 17.5187 5.90001L17.5287 5.89563C17.5323 5.89418 17.5363 5.89404 17.5399 5.89524C17.5436 5.89644 17.5467 5.89891 17.5487 5.90219C17.5689 5.93657 17.586 5.97459 17.6 6.01626C17.6777 6.24709 17.7181 6.48615 17.7212 6.73344C17.7239 6.94532 17.6843 7.19709 17.6022 7.48876C17.5284 7.75126 17.3906 7.97251 17.2425 8.20344C17.1985 8.27219 17.0928 8.39667 16.9253 8.57688C16.7526 8.76272 16.6449 8.88584 16.6022 8.94626C16.3593 9.29022 16.1918 9.66344 16.0997 10.0659C16.0734 10.1809 16.0483 10.2855 16.0244 10.3797C16.0237 10.3822 16.0224 10.3845 16.0204 10.3863C16.0185 10.388 16.0161 10.3891 16.0135 10.3895C16.0109 10.3899 16.0083 10.3895 16.0059 10.3883C16.0036 10.3872 16.0016 10.3854 16.0003 10.3831C15.9845 10.3569 15.974 10.3335 15.969 10.3131C15.8853 9.97334 15.8034 9.70605 15.7234 9.51126C15.6505 9.33334 15.5431 9.14147 15.4012 8.93563C15.355 8.86907 15.2903 8.81782 15.25 8.75188C15.244 8.74212 15.2369 8.73321 15.229 8.72532C15.1149 8.6124 14.9831 8.46126 14.8337 8.27188C14.6546 8.04522 14.5193 7.8048 14.4278 7.55063C14.3828 7.42594 14.364 7.30313 14.3256 7.16219C14.3204 7.14309 14.3175 7.12348 14.3169 7.10376C14.3103 6.93751 14.2853 6.78407 14.2919 6.62126C14.3017 6.37667 14.3489 6.13417 14.4337 5.89376C14.4343 5.89209 14.4354 5.89062 14.4368 5.88949C14.4381 5.88837 14.4398 5.88762 14.4415 5.88733C14.4433 5.88705 14.445 5.88723 14.4467 5.88787C14.4484 5.8885 14.4498 5.88956 14.4509 5.89094C14.4653 5.90928 14.4739 5.92792 14.4769 5.94688C14.5269 6.28188 14.6364 6.60167 14.8056 6.90626C14.8584 7.00157 14.9165 7.11469 14.9778 7.20532C15.2128 7.55428 15.4246 7.87969 15.6131 8.18157C15.614 8.18304 15.6153 8.1842 15.6169 8.18492C15.6185 8.18564 15.6202 8.18588 15.6219 8.18561C15.6236 8.18535 15.6252 8.18458 15.6265 8.18342C15.6277 8.18226 15.6286 8.18074 15.629 8.17907L15.6328 8.16438L15.6487 8.18657C15.6497 8.18779 15.651 8.18868 15.6524 8.18912C15.6539 8.18955 15.6555 8.18949 15.6569 8.18895C15.6583 8.1884 15.6595 8.18741 15.6602 8.18613C15.6609 8.18485 15.6612 8.18335 15.6609 8.18188C15.6561 8.14522 15.6585 8.11709 15.6681 8.09751C15.6477 7.91938 15.6255 7.74303 15.6015 7.56844C15.5676 7.32074 15.5485 7.14428 15.5444 7.03907C15.5165 6.33407 15.6678 5.67094 15.9275 5.01751C15.9504 4.9598 15.949 4.93063 15.9234 4.93001L15.9575 4.84344Z" fill="#E6A42A"/>
<path d="M18.4886 7.50593C18.5042 7.61322 18.5132 7.69239 18.5155 7.74343C18.5334 8.13614 18.4472 8.49739 18.257 8.82718C18.1295 9.04812 17.8858 9.27218 17.7226 9.46406C17.5585 9.65718 17.3941 9.90552 17.2295 10.2091C17.2037 10.2566 17.1709 10.3347 17.1311 10.4434C17.0795 10.5837 17.0114 10.7428 16.9726 10.8912C16.9522 10.97 16.9314 11.0398 16.9101 11.1006C16.9081 11.1067 16.9042 11.112 16.8989 11.1158C16.8936 11.1195 16.8873 11.1215 16.8809 11.1213C16.8744 11.1212 16.8682 11.1191 16.8631 11.1152C16.8579 11.1113 16.8542 11.1059 16.8523 11.0997C16.8045 10.9453 16.7995 10.7637 16.787 10.4891C16.7833 10.4109 16.7961 10.2719 16.8255 10.0719C16.8701 9.76593 16.9808 9.56031 17.1408 9.29156C17.1914 9.20656 17.2983 9.08083 17.4614 8.91437C17.5326 8.84145 17.6467 8.71312 17.8036 8.52937C18.0696 8.21749 18.2767 7.89666 18.4248 7.56687C18.4277 7.56024 18.4315 7.55413 18.4361 7.54874C18.4519 7.53062 18.4621 7.51562 18.4667 7.50374C18.4675 7.5013 18.4691 7.49921 18.4713 7.4978C18.4734 7.4964 18.476 7.49577 18.4785 7.49603C18.4811 7.49628 18.4835 7.4974 18.4853 7.49921C18.4871 7.50101 18.4883 7.50338 18.4886 7.50593Z" fill="#E6A42A"/>
<path d="M15.2095 10.9385C15.2183 10.9699 15.2143 11.0117 15.1976 11.0638C15.1733 11.0361 15.1563 11.0516 15.1467 11.1103C15.1463 11.1128 15.145 11.1151 15.1432 11.1168C15.1413 11.1186 15.1389 11.1196 15.1364 11.1199C15.1339 11.1201 15.1314 11.1195 15.1292 11.1182C15.1271 11.1169 15.1254 11.1149 15.1245 11.1125C15.0386 10.8685 14.9798 10.6428 14.8764 10.4063C14.792 10.2134 14.7451 10.1087 14.7358 10.0922C14.5741 9.80701 14.4172 9.58096 14.2651 9.41409C14.1178 9.25263 14.0179 9.14367 13.9654 9.08721C13.8767 8.99201 13.8094 8.90576 13.7636 8.82846C13.6814 8.68909 13.5876 8.50034 13.5573 8.33034C13.5454 8.26253 13.5061 8.15159 13.5011 8.05534C13.4921 7.88367 13.488 7.75086 13.4889 7.6569C13.4891 7.6462 13.4929 7.63593 13.4998 7.62784C13.5161 7.60867 13.5333 7.59742 13.5514 7.59409C13.5687 7.59117 13.5837 7.60211 13.5964 7.6269C13.7347 7.89628 13.9059 8.15846 14.1098 8.41346C14.1125 8.41701 14.1229 8.43044 14.1411 8.45378C14.2069 8.53878 14.2991 8.64378 14.4176 8.76878C14.5492 8.90784 14.6142 8.99784 14.7592 9.1794C14.8113 9.24482 14.8827 9.35555 14.9736 9.51159C15.0794 9.69346 15.1487 9.88378 15.1814 10.0825C15.193 10.1542 15.2043 10.2442 15.2151 10.3525C15.2151 10.3538 15.2151 10.355 15.2151 10.3563L15.2095 10.9385Z" fill="#E6A42A"/>
<path d="M21.8441 11.0178C21.8485 11.0035 21.848 10.9889 21.8426 10.9741C21.8419 10.9723 21.8408 10.9707 21.8394 10.9694C21.8379 10.9682 21.8362 10.9673 21.8344 10.9669C21.8325 10.9664 21.8306 10.9665 21.8287 10.967C21.8269 10.9675 21.8252 10.9684 21.8238 10.9697L21.7601 11.031C21.7619 11.0243 21.7627 11.0186 21.7623 11.0138C21.762 11.0111 21.7609 11.0085 21.7593 11.0064C21.7576 11.0043 21.7554 11.0027 21.7528 11.0017C21.7503 11.0008 21.7475 11.0006 21.7449 11.0012C21.7422 11.0018 21.7398 11.0031 21.7379 11.005C21.5568 11.1859 21.3486 11.3181 21.1132 11.4019C21.0513 11.424 20.9411 11.4547 20.7826 11.4941C20.772 11.4968 20.7611 11.4981 20.7501 11.4981C20.683 11.4981 20.6142 11.5081 20.5438 11.5281C20.5314 11.5317 20.5187 11.5338 20.506 11.5344C20.4487 11.5379 20.3913 11.5435 20.3338 11.551C20.233 11.5645 20.1756 11.5691 20.1616 11.5647C20.1556 11.5628 20.0731 11.5726 19.9141 11.5941C19.6116 11.6353 19.3426 11.7335 19.1069 11.8885C18.7554 12.1197 18.506 12.5497 18.3869 12.9556C18.3847 12.9635 18.3814 12.9711 18.3773 12.9781C18.3475 13.0277 18.3343 13.075 18.3379 13.12C18.3381 13.122 18.3377 13.124 18.3367 13.1258C18.3358 13.1276 18.3344 13.1291 18.3327 13.1301C18.3309 13.1311 18.3289 13.1316 18.3269 13.1315C18.3249 13.1315 18.323 13.1308 18.3213 13.1297C18.3099 13.122 18.3042 13.1047 18.3044 13.0778C18.3054 12.8472 18.2963 12.6903 18.3373 12.4866C18.4204 12.072 18.6202 11.7414 18.9366 11.4947C19.1106 11.3591 19.346 11.2424 19.6429 11.1447C19.89 11.0632 20.1469 11.0028 20.4138 10.9635C20.8551 10.8981 21.2616 10.7816 21.5994 10.4972C21.7359 10.3826 21.8405 10.2559 21.9132 10.1169C22.0579 9.84096 22.096 9.56408 22.1107 9.25002C22.114 9.18044 22.1053 9.11346 22.0844 9.04908C22.0818 9.04107 22.081 9.03241 22.0823 9.02377L22.0979 8.91439C22.0983 8.91145 22.0996 8.9087 22.1016 8.90648C22.1035 8.90427 22.1061 8.90269 22.109 8.90196C22.1119 8.90122 22.1149 8.90136 22.1177 8.90235C22.1205 8.90334 22.123 8.90514 22.1248 8.90752C22.4841 9.39752 22.6834 9.95471 22.7226 10.5791C22.7476 10.978 22.7331 11.3372 22.6791 11.6566C22.6629 11.7532 22.6291 11.8967 22.5779 12.0869C22.5068 12.3494 22.3975 12.6051 22.2498 12.8541C21.8901 13.4603 21.3016 13.8731 20.6173 14.0338C20.5879 14.0406 20.5116 14.0546 20.3885 14.0756C20.2902 14.0923 20.2131 14.1001 20.1573 14.0991C19.9104 14.0944 19.6113 14.0622 19.406 13.905C19.4045 13.9039 19.4033 13.9022 19.4027 13.9004C19.4021 13.8985 19.4021 13.8966 19.4027 13.8947C19.4033 13.8928 19.4044 13.8912 19.406 13.89C19.4075 13.8889 19.4094 13.8882 19.4113 13.8881C19.6505 13.8769 19.8964 13.8359 20.1491 13.765C20.6664 13.62 21.0883 13.3335 21.4148 12.9053C21.6227 12.6326 21.755 12.3282 21.8116 11.9922C21.8429 11.8085 21.8626 11.7153 21.8698 11.571C21.8779 11.406 21.8853 11.2651 21.8919 11.1485C21.8965 11.067 21.8806 11.0235 21.8441 11.0178Z" fill="#E6A42A"/>
<path d="M10.2457 11.0328L10.181 10.9694C10.1789 10.9674 10.1764 10.966 10.1737 10.9654C10.1709 10.9647 10.168 10.9649 10.1654 10.9658C10.1627 10.9667 10.1604 10.9684 10.1587 10.9705C10.157 10.9727 10.1559 10.9753 10.1557 10.9781L10.1544 10.9922L10.1441 10.98C10.1421 10.9777 10.1394 10.976 10.1365 10.9751C10.1335 10.9743 10.1304 10.9743 10.1275 10.9752C10.1245 10.9761 10.1219 10.9778 10.1199 10.9802C10.1179 10.9825 10.1167 10.9854 10.1163 10.9884C10.1075 11.0699 10.1089 11.1497 10.1203 11.2278C10.1222 11.2394 10.1229 11.2513 10.1225 11.2631C10.1159 11.4429 10.1312 11.6502 10.1685 11.885C10.2505 12.4023 10.4745 12.8408 10.8403 13.2006C10.8774 13.2371 10.9138 13.2667 10.9494 13.2894C10.9838 13.311 11.0168 13.3374 11.0485 13.3684C11.0555 13.3751 11.0633 13.3811 11.0716 13.3865C11.31 13.5359 11.4928 13.6497 11.7625 13.7369C12.0357 13.825 12.3142 13.8735 12.5982 13.8825C12.6004 13.8825 12.6025 13.8833 12.6042 13.8846C12.6059 13.886 12.6072 13.8879 12.6077 13.8901C12.6082 13.8922 12.608 13.8945 12.6072 13.8965C12.6063 13.8985 12.6048 13.9002 12.6028 13.9012C12.2016 14.1315 11.775 14.1347 11.315 14.0237C11.0044 13.9492 10.72 13.8162 10.4619 13.625C10.2735 13.4853 10.071 13.3181 9.94659 13.1281C9.90971 13.0719 9.85534 13.0222 9.81721 12.9619C9.55075 12.5392 9.38669 12.1076 9.32503 11.6672C9.25982 11.2028 9.25732 10.7589 9.31753 10.3356C9.37607 9.92332 9.50836 9.53124 9.7144 9.15936C9.7619 9.07374 9.81773 8.99644 9.8819 8.92748C9.88367 8.92558 9.88598 8.92426 9.88852 8.9237C9.89107 8.92314 9.89372 8.92337 9.89613 8.92435C9.89853 8.92534 9.90059 8.92703 9.90201 8.92921C9.90343 8.93139 9.90416 8.93395 9.90409 8.93655C9.9018 9.00384 9.89711 9.10103 9.89003 9.22811C9.88315 9.35832 9.89878 9.52228 9.9369 9.71999C9.9794 9.93894 10.0671 10.1325 10.2 10.3006C10.2194 10.3252 10.2696 10.3774 10.3507 10.4572C10.5694 10.6725 10.8947 10.819 11.1828 10.8862C11.3412 10.9231 11.575 10.968 11.8844 11.0209C12.0354 11.0465 12.2318 11.1007 12.4735 11.1834C12.7185 11.2674 12.9432 11.3943 13.1475 11.564C13.2588 11.6565 13.3579 11.7734 13.445 11.9147C13.5627 12.1051 13.6407 12.3132 13.6788 12.539C13.6946 12.6322 13.7067 12.7828 13.715 12.9909C13.7152 12.9957 13.7149 13.0005 13.7141 13.0053L13.695 13.12C13.6947 13.122 13.6938 13.1239 13.6924 13.1255C13.6911 13.127 13.6893 13.1282 13.6873 13.1288C13.6853 13.1294 13.6832 13.1295 13.6811 13.129C13.679 13.1285 13.6772 13.1274 13.6757 13.1259C13.6696 13.1197 13.665 13.1107 13.6619 13.099C13.536 12.6375 13.301 12.1834 12.9294 11.9172C12.7738 11.8059 12.5638 11.7134 12.2994 11.6397C12.2627 11.6295 12.1582 11.6105 11.9857 11.5828C11.8044 11.554 11.6357 11.5612 11.4553 11.5247C11.422 11.518 11.3513 11.507 11.2432 11.4915C10.8757 11.4393 10.5548 11.285 10.2807 11.0287C10.2744 11.0231 10.2684 11.0209 10.2625 11.0222C10.2563 11.0234 10.2507 11.027 10.2457 11.0328Z" fill="#E6A42A"/>
<path d="M12.6243 12.7012C12.6358 12.7698 12.6193 12.842 12.5749 12.9178C12.4712 13.0941 12.2146 13.1459 12.0249 13.1141C11.7895 13.0743 11.6201 12.9462 11.5165 12.73C11.5122 12.7209 11.509 12.7111 11.5071 12.7009C11.4909 12.6138 11.4778 12.547 11.4678 12.5003C11.4551 12.4403 11.4649 12.3491 11.4974 12.2266C11.5031 12.2053 11.5169 12.1872 11.5358 12.1761C11.5547 12.165 11.5772 12.1618 11.5984 12.1672L11.7137 12.1969C11.7249 12.1998 11.7354 12.205 11.7444 12.2122C11.7535 12.2194 11.7609 12.2285 11.7661 12.2388C11.7714 12.2491 11.7744 12.2603 11.7749 12.2719C11.7755 12.2834 11.7736 12.2949 11.7693 12.3056C11.7477 12.36 11.7469 12.4214 11.7671 12.4897C11.8323 12.7111 11.978 12.8378 12.204 12.8697C12.2148 12.8713 12.2258 12.8713 12.2368 12.8697C12.3756 12.8495 12.4966 12.7906 12.5999 12.6931C12.6019 12.6913 12.6042 12.6901 12.6068 12.6896C12.6094 12.689 12.612 12.6892 12.6145 12.69C12.617 12.6908 12.6192 12.6923 12.621 12.6943C12.6227 12.6963 12.6238 12.6987 12.6243 12.7012Z" fill="#E6A42A"/>
<path d="M19.3654 12.8137C19.3477 12.8117 19.3412 12.7804 19.346 12.72C19.3554 12.7208 19.3664 12.7148 19.3791 12.7019C19.3827 12.6982 19.3875 12.696 19.3926 12.6957C19.3978 12.6955 19.4028 12.6973 19.4066 12.7006C19.5701 12.84 19.7526 12.9262 19.9579 12.8178C20.1727 12.7043 20.263 12.5252 20.2288 12.2806C20.227 12.2675 20.2296 12.2542 20.2362 12.2427C20.2427 12.2312 20.2529 12.2221 20.2651 12.2169L20.4035 12.1575C20.412 12.1539 20.4212 12.1521 20.4304 12.1523C20.4396 12.1524 20.4487 12.1545 20.457 12.1584C20.4654 12.1622 20.4728 12.1678 20.4788 12.1747C20.4848 12.1816 20.4893 12.1897 20.492 12.1984C20.554 12.3982 20.5447 12.5888 20.4638 12.7703C20.4174 12.8751 20.3329 12.9612 20.2104 13.0287C20.0568 13.1135 19.8976 13.1421 19.7326 13.1144C19.5807 13.0887 19.4583 12.9885 19.3654 12.8137Z" fill="#E6A42A"/>
<path d="M13.5834 18.3813C13.6036 18.3579 13.6041 18.3459 13.5849 18.345C13.5793 18.3286 13.5704 18.3196 13.5581 18.3182C13.4895 18.3102 13.416 18.3142 13.3374 18.33C13.3188 18.334 13.2995 18.3352 13.2802 18.3338C13.0144 18.3157 12.8683 18.3042 12.8418 18.2994C12.4227 18.2253 11.9246 18.0285 11.7449 17.6288C11.7291 17.5936 11.7077 17.5163 11.6809 17.3969C11.6632 17.3184 11.6409 17.2407 11.614 17.1638C11.5905 17.1352 11.5865 17.084 11.6021 17.01C11.6732 17.0648 11.7409 17.1229 11.8052 17.1844C11.8952 17.2698 11.9629 17.3274 12.0081 17.3572C12.4256 17.6335 12.9781 17.7782 13.4702 17.6328C13.48 17.6301 13.4852 17.6257 13.4859 17.6194C13.4865 17.6129 13.4829 17.6068 13.4749 17.601C13.4951 17.5976 13.511 17.592 13.5224 17.5841C13.5241 17.583 13.5253 17.5815 13.5262 17.5797C13.527 17.5779 13.5273 17.576 13.5271 17.574C13.5268 17.5721 13.5261 17.5703 13.5249 17.5687C13.5237 17.5672 13.5221 17.566 13.5202 17.5653L13.4765 17.5488C13.4948 17.5427 13.5022 17.533 13.4987 17.5197C13.4981 17.5175 13.4969 17.5155 13.4953 17.514C13.4936 17.5125 13.4915 17.5115 13.4893 17.5113C13.4414 17.5044 13.342 17.474 13.1912 17.42C12.8362 17.2929 12.5393 17.0921 12.3006 16.8175C12.1887 16.6888 12.1122 16.5561 12.0712 16.4194C12.0683 16.4096 12.0681 16.3992 12.0706 16.3894C12.1043 16.26 12.1435 16.159 12.1881 16.0863C12.4612 15.6398 12.8332 15.2844 13.304 15.02C13.3064 15.0186 13.3092 15.018 13.312 15.0184C13.3147 15.0188 13.3173 15.0201 13.3192 15.0222C13.3211 15.0242 13.3224 15.0269 13.3227 15.0297C13.323 15.0326 13.3223 15.0354 13.3209 15.0378C13.1311 15.352 13.0284 15.6782 13.0127 16.0163C12.9969 16.3577 13.1104 16.6386 13.3531 16.8588C13.5734 17.0585 13.8334 17.1435 14.1743 17.2878C14.3347 17.3558 14.5015 17.4763 14.6746 17.6494C14.6788 17.6536 14.6834 17.6574 14.6884 17.661C14.7382 17.697 14.7787 17.7377 14.8099 17.7832C14.816 17.7919 14.8229 17.8 14.8306 17.8075C14.8995 17.8734 14.963 17.9432 15.0209 18.0169C15.1719 18.2084 15.3537 18.3561 15.5662 18.46C15.6749 18.5132 15.4968 18.6916 15.4346 18.7394C15.2437 18.886 15.129 18.9794 14.9496 19.0713C14.6382 19.2311 14.315 19.3411 13.9802 19.4013C13.7061 19.4507 13.4451 19.4541 13.1974 19.4116C13.1006 19.3949 12.9776 19.3591 12.8287 19.3041C12.5093 19.1863 12.2412 18.9272 12.0531 18.6369C12.0418 18.6194 12.0361 18.6089 12.0359 18.6053C12.0355 18.6007 12.0363 18.5961 12.0381 18.5919C12.04 18.5877 12.0429 18.584 12.0466 18.5812C12.0503 18.5784 12.0546 18.5765 12.0592 18.5758C12.0637 18.5751 12.0684 18.5756 12.0727 18.5772C12.3796 18.6895 12.6962 18.7211 13.0224 18.6719C13.2362 18.6397 13.4281 18.541 13.5996 18.4116C13.6094 18.4041 13.604 18.394 13.5834 18.3813Z" fill="#E6A42A"/>
<path d="M18.4986 17.555C18.4913 17.5558 18.4857 17.5591 18.4817 17.5647C18.4788 17.5689 18.4779 17.5736 18.4792 17.5788C18.4804 17.5836 18.4827 17.5879 18.4861 17.5919C18.4809 17.5967 18.4783 17.6013 18.4783 17.6056C18.4783 17.6102 18.4817 17.6136 18.4886 17.6156C18.7792 17.705 19.0765 17.7101 19.3804 17.631C19.7144 17.5437 20.0013 17.3875 20.2411 17.1625C20.2642 17.1408 20.2992 17.1081 20.3461 17.0644C20.3473 17.0632 20.3487 17.0624 20.3504 17.062C20.352 17.0617 20.3537 17.0617 20.3552 17.0622C20.3568 17.0627 20.3583 17.0635 20.3594 17.0648C20.3605 17.066 20.3613 17.0675 20.3617 17.0691L20.3739 17.1203C20.3788 17.1405 20.3776 17.1616 20.3704 17.181C20.3702 17.1816 20.3569 17.2602 20.3304 17.4169C20.3192 17.4838 20.2922 17.5636 20.2495 17.6563C20.1379 17.8991 19.8636 18.0638 19.6064 18.1616C19.3926 18.2426 19.2193 18.2901 19.0864 18.3041C19.0151 18.3116 18.9729 18.3153 18.9598 18.3153C18.8473 18.315 18.7579 18.3322 18.6417 18.3325C18.5598 18.3325 18.4891 18.332 18.4295 18.331C18.4176 18.3307 18.4148 18.3404 18.4211 18.36L18.3945 18.3553C18.3921 18.3549 18.3896 18.3551 18.3873 18.356C18.385 18.357 18.3831 18.3585 18.3817 18.3605C18.3802 18.3625 18.3794 18.3649 18.3793 18.3674C18.3792 18.3698 18.3798 18.3723 18.3811 18.3744C18.3836 18.3786 18.3874 18.3824 18.3926 18.386L18.3783 18.3903C18.3761 18.391 18.3742 18.3922 18.3728 18.3939C18.3713 18.3956 18.3703 18.3976 18.37 18.3998C18.3696 18.402 18.3698 18.4043 18.3706 18.4063C18.3714 18.4084 18.3727 18.4102 18.3745 18.4116C18.5316 18.5301 18.705 18.6102 18.8948 18.6519C19.1102 18.6992 19.3067 18.7079 19.4842 18.6781C19.6436 18.6515 19.7992 18.6149 19.9511 18.5685C19.9527 18.568 19.9545 18.568 19.9561 18.5685C19.9578 18.569 19.9593 18.57 19.9603 18.5713C19.9614 18.5726 19.962 18.5743 19.9621 18.5759C19.9621 18.5776 19.9617 18.5792 19.9608 18.5806C19.897 18.6838 19.8285 18.7782 19.7551 18.8641C19.6839 18.9472 19.5954 19.0252 19.4898 19.0981C19.2171 19.2858 18.9177 19.3973 18.5917 19.4325C18.4204 19.4511 18.2384 19.4452 18.0454 19.415C17.7171 19.3636 17.422 19.2756 17.1601 19.1513C16.9624 19.0573 16.7698 18.9248 16.5823 18.7538C16.5092 18.6871 16.4494 18.6092 16.4029 18.52C16.4001 18.5146 16.3984 18.5087 16.398 18.5026C16.3976 18.4965 16.3985 18.4904 16.4007 18.4847C16.4028 18.479 16.4061 18.4738 16.4104 18.4694C16.4146 18.465 16.4198 18.4616 16.4254 18.4594C16.5836 18.3967 16.7271 18.2994 16.8561 18.1675C16.937 18.0844 17.0526 17.96 17.1595 17.8272C17.3247 17.6222 17.5226 17.4564 17.7533 17.3297C17.8998 17.2491 18.0542 17.1953 18.2145 17.1281C18.5342 16.9941 18.8586 16.741 18.9517 16.4013C19.0473 16.0516 18.9729 15.6563 18.8395 15.3463C18.7966 15.2465 18.7594 15.1593 18.7279 15.0847C18.7271 15.0826 18.7269 15.0803 18.7274 15.0781C18.7278 15.0758 18.7289 15.0738 18.7305 15.0722C18.732 15.0706 18.734 15.0695 18.7362 15.0691C18.7383 15.0686 18.7406 15.0688 18.7426 15.0697C18.7933 15.0895 18.8424 15.1162 18.8901 15.1497C19.0793 15.2828 19.2058 15.3775 19.2695 15.4338C19.3597 15.5131 19.4595 15.6158 19.5689 15.7419C19.7324 15.9302 19.8543 16.1363 19.9345 16.36C19.9377 16.369 19.9381 16.3787 19.9354 16.3878C19.8508 16.685 19.6329 16.9356 19.3867 17.1131C19.1238 17.3031 18.8326 17.438 18.5133 17.5178C18.5077 17.5192 18.5029 17.5225 18.4998 17.5272C18.4967 17.5319 18.4954 17.5376 18.4964 17.5431L18.4986 17.555Z" fill="#E6A42A"/>
<path d="M14.4109 15.2147C14.4175 15.2158 14.4237 15.2187 14.4286 15.2232C14.4336 15.2277 14.4371 15.2335 14.4387 15.24C14.4781 15.3844 14.5586 15.4999 14.6803 15.5865C14.8703 15.7218 15.0481 15.8158 15.2137 15.8687C15.4306 15.9381 15.633 15.9819 15.8209 16C15.8616 16.0039 15.9926 16.0044 16.2141 16.0012C16.2377 16.0008 16.2612 15.9973 16.2841 15.9909C16.3797 15.9644 16.4762 15.9597 16.5887 15.93C16.7825 15.8791 16.956 15.8128 17.1094 15.7309C17.2659 15.6469 17.3687 15.5503 17.4875 15.4181C17.5158 15.3864 17.5356 15.3404 17.5469 15.28C17.56 15.21 17.6019 15.1912 17.6631 15.22C17.7394 15.2558 17.8005 15.2862 17.8466 15.3112C17.8607 15.3189 17.874 15.328 17.8862 15.3384C18.0277 15.4609 18.1216 15.6181 18.1678 15.81C18.198 15.9348 18.195 16.04 18.1587 16.1256C18.0834 16.304 17.9444 16.3434 17.7772 16.3962C17.7624 16.4008 17.7473 16.4038 17.7322 16.4053C17.3406 16.4422 16.9728 16.71 16.7491 17.0215C16.6319 17.1844 16.5744 17.3653 16.5328 17.5678C16.5193 17.6345 16.5051 17.6826 16.4903 17.7122C16.4295 17.8349 16.3202 17.8995 16.1625 17.9059C16.0039 17.9126 15.8536 17.9097 15.7116 17.8972C15.5344 17.8815 15.4753 17.7022 15.4481 17.5534C15.4077 17.3311 15.3346 17.1488 15.2287 17.0065C15.0748 16.8001 14.8635 16.6316 14.595 16.5012C14.5314 16.4704 14.4476 16.4434 14.3434 16.4203C14.2222 16.3932 14.1371 16.3691 14.0881 16.3481C13.6997 16.1806 13.8047 15.7456 13.9987 15.4759C14.0719 15.3743 14.171 15.296 14.2962 15.2412C14.3381 15.2228 14.3591 15.2056 14.4109 15.2147Z" fill="#E6A42A"/>
<path d="M17.5794 21.3044L17.5663 21.2688C17.5657 21.267 17.5646 21.2654 17.5631 21.2642C17.5617 21.2629 17.5599 21.2621 17.5581 21.2618C17.5562 21.2614 17.5542 21.2616 17.5524 21.2622C17.5505 21.2628 17.5489 21.2639 17.5475 21.2653C17.5363 21.278 17.5288 21.2942 17.525 21.3138C17.5088 21.3071 17.4989 21.3072 17.4954 21.3141C17.4645 21.3726 17.4012 21.4807 17.3054 21.6385C17.1291 21.9291 16.8294 22.13 16.5235 22.2178C16.1979 22.3112 15.8709 22.3127 15.5425 22.2225C15.1888 22.1254 14.9069 21.9202 14.6969 21.6069C14.6192 21.4909 14.555 21.388 14.5044 21.2985C14.499 21.2891 14.4911 21.2938 14.4807 21.3125C14.4767 21.2967 14.4707 21.2831 14.4625 21.2719C14.4613 21.2702 14.4597 21.2688 14.4578 21.2679C14.456 21.267 14.4539 21.2666 14.4518 21.2667C14.4497 21.2668 14.4477 21.2674 14.4459 21.2685C14.4442 21.2695 14.4427 21.271 14.4416 21.2728C14.4366 21.2814 14.4335 21.2929 14.4322 21.3075C14.421 21.3002 14.4114 21.299 14.4035 21.3038C14.4023 21.3044 14.4013 21.3054 14.4005 21.3064C14.3998 21.3075 14.3993 21.3088 14.3991 21.31C14.3399 21.5961 14.3695 21.8676 14.4879 22.1247C14.4894 22.1282 14.49 22.132 14.4895 22.1358C14.489 22.1395 14.4875 22.1431 14.4851 22.146C14.4827 22.149 14.4796 22.1511 14.4761 22.1524C14.4725 22.1536 14.4687 22.1537 14.465 22.1528C14.4272 22.1438 14.3847 22.1341 14.3463 22.1125C13.9907 21.9134 13.7036 21.6568 13.485 21.3428C13.3342 21.1257 13.2135 20.8725 13.1229 20.5831C13.091 20.5598 13.0745 20.5087 13.0735 20.4297C13.1081 20.4185 13.1472 20.4304 13.191 20.4656C13.3522 20.5953 13.5957 20.7022 13.8066 20.7038C14.0541 20.7054 14.2497 20.602 14.3935 20.3935C14.4635 20.292 14.5479 20.1973 14.6466 20.1094C14.7352 20.0306 14.8418 19.9622 14.9666 19.9041C15.1837 19.803 15.4111 19.7325 15.6488 19.6925C15.6942 19.685 15.807 19.6802 15.9872 19.6781C16.1224 19.6765 16.2349 19.6807 16.3247 19.691C16.6295 19.726 16.9217 19.824 17.2013 19.985C17.3371 20.0634 17.4408 20.1502 17.5122 20.2456C17.5993 20.3615 17.6443 20.4212 17.6472 20.4247C17.7924 20.6087 17.9858 20.7003 18.2272 20.6997C18.4685 20.6991 18.6863 20.5575 18.875 20.4235C18.8766 20.4224 18.8785 20.4217 18.8804 20.4217C18.8823 20.4216 18.8842 20.4221 18.8859 20.4231C18.8875 20.4241 18.8889 20.4255 18.8897 20.4273C18.8906 20.429 18.8909 20.4309 18.8907 20.4328C18.7872 21.1963 18.2382 21.856 17.5375 22.1628C17.5358 22.1636 17.5339 22.164 17.5319 22.1639C17.53 22.1639 17.5281 22.1634 17.5264 22.1626C17.5246 22.1617 17.5231 22.1605 17.5218 22.159C17.5206 22.1574 17.5196 22.1557 17.5191 22.1538C17.5127 22.1288 17.5138 22.1063 17.5225 22.0863C17.63 21.8417 17.6593 21.5885 17.6104 21.3266C17.6068 21.3076 17.5965 21.3002 17.5794 21.3044Z" fill="#E6A42A"/>
<path d="M23.6328 5.33783C23.6334 5.33489 23.6349 5.3322 23.6371 5.33012C23.6392 5.32803 23.642 5.32665 23.6449 5.32614C23.6479 5.32564 23.6509 5.32603 23.6537 5.32728C23.6564 5.32853 23.6587 5.33057 23.6603 5.33314C23.708 5.41231 23.7481 5.50242 23.7806 5.60346C24.1562 6.77127 23.4487 7.84564 22.3943 8.30627C22.3855 8.31017 22.3758 8.31203 22.3661 8.3117C22.3563 8.31138 22.3468 8.30888 22.3381 8.30439C22.2971 8.28356 22.2557 8.25148 22.214 8.20814C22.0272 8.01346 21.8843 7.82689 21.9472 7.54783C22.0706 6.99689 22.5575 6.64689 22.9959 6.27002C23.2665 6.03752 23.5543 5.68939 23.6328 5.33783Z" fill="#C1150E"/>
<path d="M8.37203 5.33942C8.45016 5.69067 8.73734 6.03848 9.00734 6.27098C9.44484 6.64754 9.93078 6.99754 10.0536 7.54786C10.1161 7.82661 9.97328 8.01286 9.78641 8.20723C9.74474 8.25036 9.70338 8.28234 9.66234 8.30317C9.65366 8.30766 9.6441 8.31015 9.63437 8.31048C9.62464 8.3108 9.61498 8.30895 9.60609 8.30504C8.55359 7.84411 7.84797 6.77036 8.22422 5.60442C8.25672 5.50359 8.29682 5.41369 8.34453 5.33473C8.34609 5.33216 8.34839 5.33012 8.35112 5.32887C8.35386 5.32762 8.35691 5.32722 8.35987 5.32773C8.36284 5.32823 8.36558 5.32962 8.36775 5.3317C8.36992 5.33379 8.37141 5.33648 8.37203 5.33942Z" fill="#C1150E"/>
<path d="M14.5199 12.0528C14.4851 11.968 14.4491 11.8782 14.412 11.7834C14.2445 11.3557 13.9863 10.9918 13.6374 10.6916C13.4077 10.4941 13.1339 10.3709 12.8533 10.2562C12.3655 10.0569 11.9224 9.86874 11.5549 9.51405C10.6633 8.6528 10.9405 7.21312 11.9199 6.53718C11.9301 6.5301 11.9376 6.52655 11.9424 6.52655C11.9447 6.5265 11.9471 6.52706 11.9492 6.52819C11.9513 6.52931 11.9531 6.53096 11.9543 6.53297C11.9555 6.53497 11.9562 6.53726 11.9563 6.53959C11.9563 6.54192 11.9557 6.54422 11.9545 6.54624C11.7093 7.00145 11.6333 7.48083 11.7264 7.98437C11.808 8.42468 12.147 8.87124 12.5345 9.10655C12.7256 9.22239 12.9528 9.35197 13.2161 9.4953C13.7711 9.79718 14.1958 10.2756 14.3755 10.8712C14.4883 11.245 14.5439 11.6644 14.532 12.0506C14.5321 12.0521 14.5316 12.0536 14.5307 12.0548C14.5297 12.056 14.5284 12.0568 14.5269 12.057C14.5254 12.0573 14.5239 12.057 14.5226 12.0562C14.5213 12.0555 14.5203 12.0542 14.5199 12.0528Z" fill="#C1150E"/>
<path d="M17.4798 12.0437C17.4823 11.9996 17.4844 11.9173 17.486 11.7969C17.49 11.4862 17.5403 11.1776 17.637 10.8709C17.8222 10.2834 18.1803 9.84228 18.7113 9.54749C19.0565 9.35583 19.292 9.22145 19.4176 9.14437C19.847 8.88093 20.2123 8.44905 20.2935 7.93749C20.3539 7.55728 20.3115 7.17666 20.1663 6.79562C20.1399 6.72624 20.0963 6.64072 20.0357 6.53905C20.035 6.5378 20.0345 6.5364 20.0344 6.53496C20.0342 6.53351 20.0344 6.53206 20.0349 6.53071C20.0353 6.52935 20.0361 6.52814 20.0371 6.52715C20.0381 6.52616 20.0394 6.52542 20.0407 6.52499C20.049 6.52208 20.0575 6.52343 20.066 6.52905C20.881 7.06655 21.2342 8.21062 20.7685 9.10062C20.5951 9.43218 20.2842 9.71312 19.9638 9.89343C19.6367 10.0775 19.3526 10.1844 18.9088 10.3775C18.5154 10.5484 18.1938 10.7981 17.9395 11.1547C17.7688 11.3934 17.6364 11.6511 17.5423 11.9278C17.5279 11.9703 17.5295 12.0112 17.4942 12.0497C17.493 12.051 17.4915 12.052 17.4898 12.0524C17.4882 12.0528 17.4864 12.0527 17.4848 12.052C17.4831 12.0514 17.4818 12.0502 17.4809 12.0487C17.48 12.0472 17.4796 12.0455 17.4798 12.0437Z" fill="#C1150E"/>
<path d="M8.54318 10.7934C8.54484 10.7925 8.54673 10.7921 8.54862 10.7923C8.55052 10.7924 8.55232 10.7931 8.55382 10.7943C8.55532 10.7954 8.55644 10.797 8.55705 10.7988C8.55766 10.8006 8.55772 10.8026 8.55724 10.8044C8.53037 10.8966 8.53693 10.9891 8.53068 11.0728C8.49922 11.4999 8.48047 11.7961 8.47443 11.9613C8.4563 12.4498 8.5086 12.9369 8.63131 13.4225C8.77151 13.9773 9.01464 14.4733 9.36068 14.9106C9.75506 15.4091 10.2779 15.7491 10.881 15.8972C10.8918 15.8999 10.903 15.9015 10.9144 15.9019C10.9542 15.904 10.9906 15.909 11.0235 15.9169C11.0274 15.9179 11.0308 15.9203 11.0332 15.9235C11.0356 15.9267 11.0368 15.9307 11.0367 15.9347C11.0365 15.9388 11.035 15.9426 11.0324 15.9457C11.0298 15.9487 11.0262 15.9508 11.0222 15.9516C10.6288 16.0184 10.186 16.0394 9.8213 15.9272C9.46193 15.8166 9.11818 15.6163 8.84974 15.3403C8.29943 14.775 8.00974 14.0125 7.99631 13.2263C7.99068 12.9091 7.98974 12.6081 8.03818 12.3013C8.12005 11.7815 8.2837 11.2846 8.52912 10.8106C8.5337 10.8021 8.53839 10.7964 8.54318 10.7934Z" fill="#C1150E"/>
<path d="M23.4619 10.835C23.4617 10.8333 23.4622 10.8316 23.4632 10.8303C23.4642 10.8289 23.4657 10.8279 23.4673 10.8275C23.469 10.8271 23.4707 10.8273 23.4722 10.828C23.4737 10.8288 23.4749 10.83 23.4756 10.8316C23.615 11.1334 23.7256 11.3731 23.8072 11.6347C24.0226 12.328 24.0703 13.0324 23.9503 13.7478C23.7394 15.0047 22.7569 16.066 21.4128 16.0006C21.2184 15.9913 21.0726 15.9768 20.9753 15.9572C20.9647 15.9551 20.9562 15.9522 20.9497 15.9485C20.9472 15.947 20.9453 15.9448 20.9441 15.9421C20.9429 15.9395 20.9426 15.9366 20.9431 15.9337C20.9437 15.9309 20.9451 15.9283 20.9471 15.9263C20.9492 15.9243 20.9518 15.923 20.9547 15.9225C22.1256 15.7313 22.9588 14.7781 23.2984 13.6888C23.4307 13.2646 23.5055 12.8678 23.5228 12.4985C23.5411 12.106 23.5305 11.713 23.4909 11.3197C23.4764 11.1732 23.4667 11.0117 23.4619 10.835Z" fill="#C1150E"/>
<path d="M9.13287 12.9028L9.13349 12.9025C9.13606 12.9018 9.13881 12.902 9.14123 12.9033C9.14364 12.9045 9.14556 12.9065 9.14662 12.9091C9.42818 13.6081 9.9185 14.2037 10.6079 14.5409C11.1581 14.8101 11.7308 14.8704 12.326 14.7219C12.3284 14.7213 12.331 14.7216 12.3333 14.7226C12.3355 14.7237 12.3374 14.7254 12.3385 14.7277C12.3397 14.7299 12.34 14.7324 12.3396 14.7349C12.3391 14.7373 12.3379 14.7396 12.336 14.7412C11.9833 15.041 11.5736 15.1816 11.1069 15.1628C10.0426 15.1197 9.28037 14.2228 9.16474 13.2031C9.15287 13.0983 9.13943 13.0026 9.12443 12.9159C9.12395 12.9131 9.12454 12.9102 9.1261 12.9077C9.12767 12.9053 9.13008 12.9035 9.13287 12.9028Z" fill="#C1150E"/>
<path d="M19.6498 14.7356C19.6489 14.7348 19.6483 14.7337 19.648 14.7326C19.6478 14.7314 19.648 14.7301 19.6485 14.7291C19.649 14.728 19.6499 14.7271 19.651 14.7265C19.652 14.726 19.6533 14.7258 19.6544 14.726C20.4924 14.9085 21.2316 14.7552 21.8723 14.2663C22.2423 13.9838 22.5348 13.5903 22.7379 13.1678C22.7516 13.1395 22.791 13.0525 22.856 12.9069C22.8567 12.9049 22.8581 12.9032 22.86 12.9022C22.8619 12.9012 22.8641 12.901 22.8662 12.9015C22.8682 12.9021 22.87 12.9034 22.8711 12.9052C22.8722 12.907 22.8727 12.9092 22.8723 12.9113C22.8488 13.0785 22.8426 13.2463 22.8063 13.4128C22.6582 14.0945 22.2922 14.6036 21.7082 14.94C21.529 15.0431 21.3239 15.111 21.0929 15.1435C20.5489 15.2195 20.0679 15.0836 19.6498 14.7356Z" fill="#C1150E"/>
<path d="M16.3519 8.10189L16.3416 8.11002C16.3397 8.11152 16.3374 8.11242 16.335 8.11262C16.3326 8.11282 16.3302 8.1123 16.3281 8.11113C16.326 8.10996 16.3243 8.10819 16.3232 8.10604C16.3221 8.1039 16.3216 8.10147 16.3219 8.09908C16.3371 7.94575 16.3601 7.78054 16.391 7.60345C16.4241 7.41241 16.4487 7.19814 16.4647 6.96064C16.472 6.85335 16.4711 6.73773 16.4619 6.61377C16.4465 6.40439 16.437 6.28918 16.4335 6.26814C16.3622 5.83127 16.2364 5.3947 16.056 4.95845C16.0441 4.92991 16.0298 4.90241 16.0131 4.87595C16.0107 4.87207 16.0072 4.86892 16.0031 4.86683C15.999 4.86474 15.9943 4.86379 15.9897 4.86408C15.9693 4.86575 15.9586 4.85887 15.9575 4.84345L15.99 4.75377C15.9907 4.75192 15.9919 4.75033 15.9936 4.74918C15.9952 4.74803 15.9971 4.74739 15.999 4.74732C16.001 4.74725 16.0029 4.74777 16.0046 4.74881C16.0063 4.74984 16.0076 4.75135 16.0085 4.75314C16.1068 4.97856 16.1945 5.20752 16.2716 5.44002C16.4726 6.04481 16.5427 6.63752 16.4819 7.21814C16.4581 7.44502 16.4148 7.7396 16.3519 8.10189Z" fill="#FAD82D"/>
<path d="M15.9235 4.92999C15.9491 4.93062 15.9505 4.95978 15.9276 5.01749C15.6679 5.67093 15.5166 6.33406 15.5445 7.03906C15.5486 7.14426 15.5677 7.32072 15.6016 7.56843C15.6256 7.74301 15.6478 7.91937 15.6682 8.09749C15.5584 7.67333 15.5023 7.24499 15.4998 6.81249C15.4994 6.73478 15.509 6.59562 15.5288 6.39499C15.5785 5.89468 15.731 5.39531 15.9235 4.92999Z" fill="#FAD82D"/>
<path d="M15.6328 8.16437L15.6291 8.17906C15.6287 8.18073 15.6278 8.18225 15.6265 8.18341C15.6252 8.18458 15.6236 8.18534 15.6219 8.18561C15.6202 8.18587 15.6185 8.18563 15.6169 8.18491C15.6154 8.18419 15.6141 8.18303 15.6131 8.18156C15.4246 7.87969 15.2128 7.55427 14.9778 7.20531C14.9166 7.11469 14.8585 7.00156 14.8056 6.90625C14.6365 6.60166 14.5269 6.28187 14.4769 5.94687C14.474 5.92792 14.4653 5.90927 14.451 5.89094C14.4498 5.88955 14.4484 5.88849 14.4467 5.88786C14.4451 5.88722 14.4433 5.88704 14.4415 5.88732C14.4398 5.88761 14.4382 5.88836 14.4368 5.88949C14.4354 5.89061 14.4344 5.89209 14.4338 5.89375C14.349 6.13417 14.3017 6.37667 14.2919 6.62125C14.2853 6.78406 14.3103 6.9375 14.3169 7.10375C14.3175 7.12347 14.3205 7.14308 14.3256 7.16219C14.3641 7.30312 14.3828 7.42594 14.4278 7.55062C14.5193 7.80479 14.6546 8.04521 14.8338 8.27187C14.9831 8.46125 15.1149 8.61239 15.2291 8.72531C15.237 8.7332 15.244 8.74211 15.25 8.75187C15.2903 8.81781 15.355 8.86906 15.4013 8.93562C15.5431 9.14146 15.6505 9.33333 15.7235 9.51125C15.8035 9.70604 15.8853 9.97333 15.9691 10.3131C15.9741 10.3335 15.9845 10.3569 16.0003 10.3831C16.0016 10.3854 16.0036 10.3872 16.006 10.3883C16.0083 10.3895 16.0109 10.3899 16.0135 10.3895C16.0161 10.3891 16.0185 10.388 16.0205 10.3862C16.0224 10.3845 16.0238 10.3822 16.0244 10.3797C16.0484 10.2855 16.0735 10.1809 16.0997 10.0659C16.1918 9.66344 16.3593 9.29021 16.6022 8.94625C16.6449 8.88583 16.7526 8.76271 16.9253 8.57687C17.0928 8.39666 17.1986 8.27219 17.2425 8.20344C17.3906 7.9725 17.5285 7.75125 17.6022 7.48875C17.6843 7.19708 17.724 6.94531 17.7213 6.73344C17.7181 6.48614 17.6777 6.24708 17.6 6.01625C17.5861 5.97458 17.569 5.93656 17.5488 5.90219C17.5468 5.8989 17.5436 5.89643 17.54 5.89523C17.5363 5.89403 17.5323 5.89417 17.5288 5.89562L17.5188 5.9C17.5172 5.90067 17.5155 5.90093 17.5138 5.90077C17.5122 5.9006 17.5105 5.90002 17.5091 5.89906C17.4993 5.89281 17.4951 5.88271 17.4966 5.86875L17.5103 5.72094C17.5105 5.71973 17.511 5.7186 17.5118 5.71772C17.5127 5.71683 17.5137 5.71624 17.5149 5.71603C17.5161 5.71582 17.5174 5.716 17.5185 5.71655C17.5195 5.71709 17.5204 5.71797 17.521 5.71906C17.9119 6.54875 17.7978 7.48219 17.2756 8.22031C17.1228 8.43625 16.9469 8.60437 16.7656 8.8125C16.3125 9.3325 16.1113 9.98437 16.0113 10.6581C16.0113 10.6605 16.0103 10.6628 16.0086 10.6645C16.0069 10.6662 16.0046 10.6672 16.0022 10.6672C15.9998 10.6672 15.9975 10.6662 15.9958 10.6645C15.9941 10.6628 15.9931 10.6605 15.9931 10.6581C15.8966 9.9575 15.6722 9.27469 15.1894 8.74031C14.9986 8.52906 14.8871 8.40364 14.855 8.36406C14.3085 7.68969 14.1028 6.84125 14.3619 6.00219C14.3929 5.90198 14.4309 5.81031 14.4756 5.72719C14.4766 5.72522 14.4783 5.72366 14.4802 5.72274C14.4822 5.72182 14.4845 5.72159 14.4866 5.72209C14.4888 5.72258 14.4907 5.72378 14.4922 5.72549C14.4937 5.7272 14.4945 5.72933 14.4947 5.73156C14.526 6.34531 14.776 6.84531 15.1172 7.34594C15.3076 7.62552 15.4672 7.87604 15.596 8.0975C15.6091 8.12 15.6214 8.14229 15.6328 8.16437Z" fill="#FAD82D"/>
<path d="M16.3643 8.17814C16.4613 7.97502 16.5538 7.81189 16.6418 7.68877C16.837 7.41481 17.0174 7.13169 17.183 6.83939C17.3251 6.58877 17.4222 6.31825 17.4743 6.02783C17.5026 6.03825 17.5079 6.07783 17.4902 6.14658C17.3471 6.70096 17.0477 7.16627 16.7146 7.64377C16.6187 7.78085 16.5134 7.95741 16.3986 8.17346C16.3965 8.17753 16.3928 8.18066 16.3885 8.18227C16.3841 8.18388 16.3793 8.18385 16.3749 8.18221L16.3643 8.17814Z" fill="#FAD82D"/>
<path d="M16.8742 11.2891C16.8733 11.2913 16.8717 11.2933 16.8696 11.2946C16.8675 11.2958 16.865 11.2964 16.8626 11.2962C16.8602 11.2959 16.8579 11.2949 16.8561 11.2932C16.8543 11.2915 16.8531 11.2893 16.8526 11.2869C16.8429 11.2258 16.8271 11.1457 16.8055 11.0466C16.734 10.7193 16.7313 10.3806 16.7973 10.0306C16.8692 9.64812 17.037 9.31552 17.3008 9.03281C17.5801 8.73344 17.7609 8.53229 17.843 8.42937C18.1098 8.09458 18.3221 7.74146 18.4798 7.37C18.4809 7.36774 18.4827 7.36586 18.4848 7.36462C18.487 7.36339 18.4895 7.36285 18.492 7.36309C18.4945 7.36333 18.4969 7.36433 18.4988 7.36596C18.5007 7.36759 18.502 7.36976 18.5026 7.37219C18.6151 7.86906 18.5517 8.39062 18.2983 8.83219C18.1455 9.09812 17.8308 9.37687 17.6576 9.6025C17.3608 9.98906 17.163 10.3853 17.0208 10.8412C16.9451 11.0835 16.8963 11.2328 16.8742 11.2891ZM18.4886 7.50594C18.4883 7.50338 18.4871 7.50101 18.4853 7.49921C18.4835 7.49741 18.4811 7.49629 18.4785 7.49603C18.476 7.49578 18.4734 7.4964 18.4713 7.49781C18.4691 7.49921 18.4675 7.50131 18.4667 7.50375C18.4621 7.51562 18.4519 7.53062 18.4361 7.54875C18.4315 7.55414 18.4277 7.56024 18.4248 7.56687C18.2767 7.89666 18.0696 8.2175 17.8036 8.52937C17.6467 8.71312 17.5326 8.84146 17.4614 8.91437C17.2983 9.08083 17.1914 9.20656 17.1408 9.29156C16.9808 9.56031 16.8701 9.76593 16.8255 10.0719C16.7961 10.2719 16.7833 10.4109 16.787 10.4891C16.7995 10.7637 16.8045 10.9453 16.8523 11.0997C16.8542 11.1059 16.8579 11.1113 16.8631 11.1152C16.8682 11.1191 16.8745 11.1212 16.8809 11.1214C16.8873 11.1215 16.8937 11.1195 16.8989 11.1158C16.9042 11.112 16.9081 11.1067 16.9101 11.1006C16.9314 11.0398 16.9522 10.97 16.9726 10.8912C17.0114 10.7428 17.0795 10.5837 17.1311 10.4434C17.1709 10.3347 17.2037 10.2566 17.2295 10.2091C17.3941 9.90552 17.5585 9.65719 17.7226 9.46406C17.8858 9.27219 18.1295 9.04812 18.257 8.82719C18.4472 8.49739 18.5334 8.13614 18.5155 7.74344C18.5132 7.69239 18.5042 7.61323 18.4886 7.50594Z" fill="#FAD82D"/>
<path d="M15.2094 10.9385L15.2151 10.3563C15.2151 10.355 15.2151 10.3538 15.2151 10.3525C15.2042 10.2442 15.193 10.1542 15.1813 10.0825C15.1486 9.88379 15.0793 9.69348 14.9735 9.5116C14.8827 9.35556 14.8112 9.24483 14.7591 9.17942C14.6141 8.99785 14.5491 8.90785 14.4176 8.76879C14.299 8.64379 14.2068 8.53879 14.141 8.45379C14.1229 8.43046 14.1125 8.41702 14.1098 8.41348C13.9058 8.15848 13.7347 7.89629 13.5963 7.62692C13.5836 7.60213 13.5686 7.59119 13.5513 7.5941C13.5332 7.59744 13.516 7.60869 13.4998 7.62785C13.4929 7.63595 13.489 7.64621 13.4888 7.65692C13.488 7.75088 13.492 7.88369 13.501 8.05535C13.506 8.1516 13.5454 8.26254 13.5573 8.33035C13.5876 8.50035 13.6813 8.6891 13.7635 8.82848C13.8093 8.90577 13.8766 8.99202 13.9654 9.08723C14.0179 9.14369 14.1178 9.25265 14.2651 9.4141C14.4172 9.58098 14.574 9.80702 14.7357 10.0922C14.7451 10.1087 14.7919 10.2134 14.8763 10.4063C14.9798 10.6429 15.0385 10.8685 15.1244 11.1125C15.1254 11.1149 15.127 11.1169 15.1292 11.1182C15.1313 11.1196 15.1338 11.1201 15.1364 11.1199C15.1389 11.1197 15.1413 11.1186 15.1431 11.1169C15.145 11.1151 15.1462 11.1128 15.1466 11.1104C15.1562 11.0516 15.1732 11.0361 15.1976 11.0638L15.1457 11.291C15.1455 11.2922 15.1448 11.2934 15.1438 11.2942C15.1429 11.295 15.1416 11.2954 15.1403 11.2954C15.139 11.2954 15.1377 11.295 15.1367 11.2942C15.1356 11.2934 15.1348 11.2922 15.1344 11.291C14.9651 10.6507 14.7351 10.0366 14.3129 9.53285C14.2531 9.4614 14.1064 9.29577 13.8729 9.03598C13.827 8.98515 13.7866 8.9314 13.7516 8.87473C13.4681 8.41619 13.3851 7.91692 13.5026 7.37692C13.503 7.37491 13.5041 7.37308 13.5057 7.3717C13.5072 7.37032 13.5091 7.36946 13.5112 7.36925C13.5132 7.36904 13.5152 7.36949 13.5169 7.37053C13.5186 7.37158 13.52 7.37316 13.5207 7.37504C13.6686 7.72525 13.8656 8.05358 14.1116 8.36004C14.2033 8.47421 14.3285 8.61827 14.4873 8.79223C14.8413 9.18004 15.151 9.61442 15.2288 10.14C15.268 10.4048 15.2615 10.671 15.2094 10.9385Z" fill="#FAD82D"/>
<path d="M21.8442 11.0178C21.8807 11.0235 21.8966 11.067 21.892 11.1485C21.8854 11.2651 21.878 11.406 21.8698 11.571C21.8627 11.7153 21.843 11.8085 21.8117 11.9922C21.7551 12.3282 21.6228 12.6326 21.4148 12.9053C21.0884 13.3335 20.6665 13.62 20.1492 13.765C19.8965 13.8359 19.6506 13.8769 19.4114 13.8881C19.4095 13.8882 19.4076 13.8889 19.406 13.89C19.4045 13.8912 19.4034 13.8928 19.4028 13.8947C19.4022 13.8966 19.4022 13.8985 19.4028 13.9004C19.4034 13.9022 19.4045 13.9039 19.4061 13.905C19.6114 14.0622 19.9105 14.0944 20.1573 14.0991C20.2132 14.1001 20.2903 14.0923 20.3886 14.0756C20.5117 14.0546 20.588 14.0406 20.6173 14.0338C21.3017 13.8731 21.8902 13.4603 22.2498 12.8541C22.3976 12.6051 22.5069 12.3494 22.578 12.0869C22.6292 11.8967 22.663 11.7532 22.6792 11.6566C22.7332 11.3372 22.7477 10.978 22.7227 10.5791C22.6835 9.95471 22.4842 9.39752 22.1248 8.90752C22.1231 8.90514 22.1206 8.90334 22.1178 8.90235C22.115 8.90136 22.112 8.90122 22.1091 8.90196C22.1062 8.90269 22.1036 8.90427 22.1017 8.90648C22.0997 8.9087 22.0984 8.91145 22.098 8.91439L22.0823 9.02377C22.0811 9.03241 22.0819 9.04107 22.0845 9.04908C22.1054 9.11346 22.1141 9.18044 22.1108 9.25002C22.0961 9.56408 22.058 9.84096 21.9133 10.1169C21.8406 10.2559 21.736 10.3826 21.5995 10.4972C21.2617 10.7816 20.8552 10.8981 20.4139 10.9635C20.147 11.0028 19.8901 11.0632 19.643 11.1447C19.3461 11.2424 19.1107 11.3591 18.9367 11.4947C18.6203 11.7414 18.4205 12.072 18.3373 12.4866C18.2964 12.6903 18.3055 12.8472 18.3045 13.0778C18.3043 13.1047 18.31 13.122 18.3214 13.1297C18.3231 13.1308 18.325 13.1315 18.327 13.1315C18.329 13.1316 18.331 13.1311 18.3328 13.1301C18.3345 13.1291 18.3359 13.1276 18.3368 13.1258C18.3377 13.124 18.3381 13.122 18.338 13.12C18.3344 13.075 18.3476 13.0277 18.3773 12.9781C18.3815 12.9711 18.3848 12.9635 18.387 12.9556C18.5061 12.5497 18.7555 12.1197 19.107 11.8885C19.3427 11.7335 19.6117 11.6353 19.9142 11.5941C20.0732 11.5726 20.1557 11.5628 20.1617 11.5647C20.1757 11.5691 20.2331 11.5645 20.3339 11.551C20.3914 11.5435 20.4488 11.5379 20.5061 11.5344C20.5188 11.5338 20.5315 11.5317 20.5439 11.5281C20.6143 11.5081 20.6831 11.4981 20.7502 11.4981C20.7612 11.4981 20.7721 11.4968 20.7827 11.4941C20.9412 11.4547 21.0514 11.424 21.1133 11.4019C21.3487 11.3181 21.5569 11.1859 21.738 11.005C21.7399 11.0031 21.7423 11.0018 21.745 11.0012C21.7476 11.0006 21.7504 11.0008 21.7529 11.0017C21.7555 11.0027 21.7577 11.0043 21.7594 11.0064C21.761 11.0085 21.7621 11.0111 21.7623 11.0138C21.7628 11.0186 21.762 11.0243 21.7602 11.031C21.4602 11.3447 21.0702 11.5016 20.6448 11.55C20.4809 11.5688 20.3147 11.5866 20.1464 11.6035C19.927 11.6255 19.762 11.6516 19.6514 11.6816C19.0972 11.8314 18.7117 12.1911 18.4948 12.7606C18.4032 13.0013 18.3463 13.2378 18.3242 13.4703C18.3239 13.4744 18.322 13.4782 18.319 13.481C18.3159 13.4838 18.3118 13.4853 18.3077 13.4853H18.2998C18.2988 13.4853 18.2978 13.485 18.2971 13.4844C18.2963 13.4837 18.2959 13.4828 18.2958 13.4819C18.2802 13.3317 18.2681 13.1739 18.2595 13.0085C18.2516 12.8574 18.265 12.6882 18.2995 12.501C18.5045 11.3931 19.4945 11.0728 20.4648 10.925C21.1058 10.8272 21.6902 10.5772 21.9508 9.95064C22.0964 9.60064 22.0914 9.14221 22.0302 8.76596C22.03 8.76433 22.0303 8.76268 22.0311 8.76125C22.0319 8.75982 22.0331 8.75868 22.0346 8.75799C22.0361 8.7573 22.0378 8.75709 22.0394 8.7574C22.041 8.75771 22.0425 8.75852 22.0436 8.75971C22.5161 9.30502 22.7336 9.96564 22.7692 10.6885C22.808 11.4838 22.6573 12.2775 22.2364 12.9406C21.8733 13.5128 21.3064 13.9063 20.6464 14.0675C20.4308 14.1203 20.2117 14.1331 20.0017 14.1238C19.7282 14.1111 19.4779 14.0219 19.2508 13.8563C19.2494 13.8552 19.2484 13.8536 19.2479 13.8519C19.2475 13.8502 19.2476 13.8484 19.2482 13.8467C19.2488 13.8451 19.2499 13.8437 19.2514 13.8427C19.2529 13.8417 19.2546 13.8412 19.2564 13.8413C20.3961 13.9056 21.4848 13.2247 21.7592 12.086C21.8357 11.7682 21.864 11.4122 21.8442 11.0178Z" fill="#FAD82D"/>
<path d="M10.2457 11.0328C10.2507 11.027 10.2564 11.0235 10.2626 11.0222C10.2684 11.021 10.2745 11.0231 10.2807 11.0288C10.5549 11.285 10.8757 11.4393 11.2432 11.4916C11.3514 11.507 11.4221 11.518 11.4554 11.5247C11.6357 11.5613 11.8045 11.5541 11.9857 11.5828C12.1582 11.6105 12.2628 11.6295 12.2995 11.6397C12.5639 11.7135 12.7739 11.806 12.9295 11.9172C13.301 12.1835 13.536 12.6375 13.662 13.0991C13.6651 13.1107 13.6697 13.1197 13.6757 13.126C13.6772 13.1274 13.6791 13.1285 13.6812 13.129C13.6832 13.1295 13.6854 13.1294 13.6874 13.1288C13.6894 13.1282 13.6912 13.1271 13.6925 13.1255C13.6939 13.124 13.6948 13.1221 13.6951 13.12L13.7142 13.0053C13.715 13.0006 13.7153 12.9957 13.7151 12.991C13.7068 12.7828 13.6947 12.6322 13.6789 12.5391C13.6407 12.3132 13.5628 12.1051 13.4451 11.9147C13.358 11.7735 13.2589 11.6566 13.1476 11.5641C12.9432 11.3943 12.7185 11.2674 12.4735 11.1835C12.2319 11.1007 12.0355 11.0466 11.8845 11.021C11.5751 10.968 11.3413 10.9231 11.1829 10.8863C10.8948 10.8191 10.5695 10.6725 10.3507 10.4572C10.2697 10.3774 10.2195 10.3252 10.2001 10.3006C10.0672 10.1325 9.97948 9.93897 9.93698 9.72002C9.89886 9.52231 9.88323 9.35835 9.89011 9.22814C9.89719 9.10106 9.90188 9.00387 9.90417 8.93658C9.90424 8.93398 9.90351 8.93142 9.90209 8.92924C9.90067 8.92706 9.89861 8.92537 9.89621 8.92438C9.8938 8.9234 9.89115 8.92317 9.8886 8.92373C9.88606 8.92429 9.88375 8.92561 9.88198 8.92752C9.81781 8.99647 9.76198 9.07377 9.71448 9.15939C9.50844 9.53127 9.37615 9.92335 9.31761 10.3356C9.2574 10.759 9.2599 11.2028 9.32511 11.6672C9.38677 12.1076 9.55084 12.5392 9.81729 12.9619C9.85542 13.0222 9.90979 13.0719 9.94667 13.1281C10.071 13.3181 10.2735 13.4853 10.462 13.625C10.7201 13.8163 11.0045 13.9492 11.3151 14.0238C11.7751 14.1347 12.2017 14.1316 12.6029 13.9013C12.6048 13.9002 12.6064 13.8985 12.6072 13.8965C12.6081 13.8945 12.6083 13.8922 12.6078 13.8901C12.6072 13.888 12.606 13.886 12.6043 13.8847C12.6026 13.8833 12.6004 13.8825 12.5982 13.8825C12.3143 13.8736 12.0357 13.825 11.7626 13.7369C11.4929 13.6497 11.3101 13.536 11.0717 13.3866C11.0634 13.3812 11.0556 13.3751 11.0485 13.3685C11.0169 13.3374 10.9839 13.3111 10.9495 13.2894C10.9139 13.2667 10.8775 13.2371 10.8404 13.2006C10.4746 12.8408 10.2506 12.4023 10.1685 11.885C10.1313 11.6502 10.1159 11.4429 10.1226 11.2631C10.123 11.2513 10.1223 11.2395 10.1204 11.2278C10.109 11.1497 10.1076 11.0699 10.1164 10.9885C10.1167 10.9854 10.118 10.9825 10.12 10.9802C10.122 10.9779 10.1246 10.9761 10.1275 10.9752C10.1305 10.9744 10.1336 10.9743 10.1366 10.9752C10.1395 10.976 10.1421 10.9777 10.1442 10.98L10.1545 10.9922C10.1409 11.3303 10.1609 11.6447 10.2145 11.9353C10.3276 12.5499 10.6348 13.0319 11.136 13.3813C11.611 13.7123 12.1415 13.8653 12.7273 13.8403C12.7286 13.8402 12.7298 13.8404 12.7309 13.8411C12.732 13.8418 12.7329 13.8428 12.7333 13.844C12.7337 13.8452 12.7337 13.8465 12.7333 13.8477C12.7329 13.8489 12.7321 13.85 12.731 13.8506C12.5608 13.9811 12.3771 14.0642 12.1798 14.1C11.9235 14.1466 11.6157 14.1366 11.3398 14.0681C10.0495 13.7491 9.34292 12.6103 9.24886 11.3356C9.18073 10.4069 9.35854 9.4872 9.94479 8.76783C9.94638 8.76596 9.94854 8.76465 9.95094 8.76412C9.95334 8.76359 9.95585 8.76386 9.95808 8.76489C9.96031 8.76591 9.96214 8.76764 9.9633 8.76981C9.96446 8.77198 9.96487 8.77447 9.96448 8.77689C9.95917 8.81033 9.94479 8.84533 9.94323 8.87814C9.93177 9.11585 9.92781 9.28929 9.93136 9.39845C9.94594 9.85491 10.1149 10.2177 10.4382 10.4869C10.8948 10.8672 11.4714 10.901 11.9839 11.0081C12.4095 11.0975 12.8289 11.2466 13.1482 11.5175C13.7398 12.02 13.8257 12.7869 13.7004 13.5081C13.7004 13.5091 13.7 13.5099 13.6993 13.5105C13.6986 13.5111 13.6977 13.5115 13.6968 13.5114C13.6959 13.5114 13.6951 13.511 13.6944 13.5103C13.6938 13.5096 13.6935 13.5087 13.6935 13.5078C13.6423 13.0466 13.5035 12.6085 13.2114 12.2431C12.7479 11.6635 12.1226 11.6263 11.4182 11.5578C10.9757 11.515 10.557 11.3603 10.2457 11.0328Z" fill="#FAD82D"/>
<path d="M12.6538 12.6057C12.7357 13.1757 12.1157 13.2663 11.7451 13.0469C11.4754 12.8872 11.3973 12.5841 11.4482 12.2832C11.4557 12.2382 11.4706 12.1961 11.4929 12.1569C11.5001 12.1443 11.5112 12.1345 11.5246 12.1288C11.5379 12.1232 11.5527 12.1221 11.5667 12.1257L11.766 12.1769C11.7776 12.1798 11.7878 12.1866 11.795 12.1961C11.8022 12.2055 11.806 12.2172 11.8057 12.2291L11.8004 12.4466C11.8 12.4623 11.8021 12.4781 11.8067 12.4932C11.8381 12.5957 11.8954 12.679 11.9785 12.7432C12.2229 12.9322 12.4632 12.7994 12.6354 12.6C12.6368 12.5985 12.6385 12.5974 12.6405 12.5969C12.6424 12.5964 12.6445 12.5964 12.6464 12.597C12.6484 12.5976 12.6501 12.5987 12.6514 12.6002C12.6527 12.6018 12.6536 12.6037 12.6538 12.6057ZM12.6245 12.7013C12.624 12.6987 12.6228 12.6963 12.6211 12.6943C12.6194 12.6924 12.6172 12.6909 12.6147 12.6901C12.6122 12.6892 12.6095 12.6891 12.607 12.6896C12.6044 12.6902 12.602 12.6914 12.6001 12.6932C12.4968 12.7907 12.3757 12.8495 12.237 12.8697C12.226 12.8714 12.2149 12.8714 12.2042 12.8697C11.9781 12.8379 11.8325 12.7112 11.7673 12.4897C11.7471 12.4214 11.7478 12.36 11.7695 12.3057C11.7737 12.2949 11.7756 12.2834 11.7751 12.2719C11.7745 12.2604 11.7715 12.2491 11.7663 12.2388C11.761 12.2285 11.7536 12.2195 11.7446 12.2123C11.7355 12.205 11.7251 12.1998 11.7138 12.1969L11.5985 12.1672C11.5773 12.1618 11.5548 12.165 11.5359 12.1761C11.517 12.1873 11.5033 12.2054 11.4976 12.2266C11.4651 12.3491 11.4552 12.4404 11.4679 12.5004C11.4779 12.547 11.491 12.6139 11.5073 12.701C11.5092 12.7111 11.5123 12.7209 11.5167 12.73C11.6202 12.9463 11.7897 13.0743 12.0251 13.1141C12.2148 13.146 12.4713 13.0941 12.5751 12.9179C12.6195 12.842 12.6359 12.7698 12.6245 12.7013Z" fill="#FAD82D"/>
<path d="M19.3653 12.8137C19.4582 12.9885 19.5806 13.0887 19.7325 13.1144C19.8975 13.1421 20.0568 13.1135 20.2103 13.0287C20.3328 12.9612 20.4173 12.8751 20.4638 12.7703C20.5446 12.5888 20.554 12.3982 20.4919 12.1984C20.4892 12.1897 20.4847 12.1816 20.4787 12.1747C20.4727 12.1678 20.4653 12.1622 20.457 12.1584C20.4486 12.1545 20.4395 12.1525 20.4303 12.1523C20.4211 12.1521 20.412 12.1539 20.4034 12.1575L20.265 12.2169C20.2528 12.2221 20.2426 12.2312 20.2361 12.2427C20.2295 12.2542 20.227 12.2675 20.2288 12.2806C20.2629 12.5252 20.1726 12.7043 19.9578 12.8178C19.7525 12.9262 19.57 12.84 19.4066 12.7006C19.4027 12.6973 19.3977 12.6955 19.3926 12.6958C19.3875 12.696 19.3826 12.6982 19.3791 12.7019C19.3664 12.7148 19.3553 12.7208 19.3459 12.72L19.3478 12.6056C19.3479 12.6034 19.3487 12.6013 19.35 12.5995C19.3513 12.5977 19.3531 12.5964 19.3552 12.5956C19.3573 12.5949 19.3596 12.5949 19.3618 12.5955C19.3639 12.5961 19.3658 12.5973 19.3672 12.5991C19.5119 12.7847 19.7369 12.9075 19.9681 12.78C20.1013 12.7069 20.1997 12.5622 20.1934 12.4059C20.1928 12.3843 20.1918 12.3358 20.1903 12.2606C20.1901 12.2452 20.1944 12.23 20.2027 12.217C20.2111 12.204 20.2231 12.1937 20.2372 12.1875C20.2956 12.1622 20.43 12.1075 20.4916 12.1422C20.5008 12.1473 20.5082 12.1549 20.5131 12.1641C20.5433 12.2222 20.5605 12.3162 20.5647 12.4462C20.5806 12.9391 20.1428 13.2484 19.6713 13.1337C19.4996 13.0919 19.3976 12.9852 19.3653 12.8137Z" fill="#FAD82D"/>
<path d="M13.5836 18.3813C13.6042 18.394 13.6096 18.4041 13.5998 18.4116C13.4283 18.541 13.2364 18.6397 13.0226 18.6719C12.6964 18.7211 12.3798 18.6895 12.073 18.5772C12.0686 18.5756 12.0639 18.5752 12.0594 18.5759C12.0548 18.5765 12.0505 18.5784 12.0468 18.5812C12.0431 18.584 12.0402 18.5877 12.0383 18.5919C12.0365 18.5961 12.0357 18.6007 12.0361 18.6054C12.0363 18.6089 12.042 18.6194 12.0533 18.6369C12.2414 18.9272 12.5095 19.1863 12.8289 19.3041C12.9779 19.3591 13.1008 19.3949 13.1976 19.4116C13.4454 19.4541 13.7063 19.4507 13.9805 19.4013C14.3152 19.3411 14.6384 19.2311 14.9498 19.0713C15.1292 18.9794 15.2439 18.886 15.4348 18.7394C15.497 18.6916 15.6751 18.5132 15.5664 18.46C15.3539 18.3561 15.1721 18.2084 15.0211 18.0169C14.9632 17.9432 14.8997 17.8734 14.8308 17.8075C14.8231 17.8001 14.8162 17.7919 14.8101 17.7832C14.7789 17.7377 14.7384 17.697 14.6886 17.661C14.6836 17.6574 14.679 17.6536 14.6748 17.6494C14.5017 17.4763 14.3349 17.3558 14.1745 17.2879C13.8336 17.1435 13.5736 17.0585 13.3533 16.8588C13.1106 16.6386 12.9971 16.3577 13.013 16.0163C13.0286 15.6782 13.1313 15.352 13.3211 15.0379C13.3225 15.0354 13.3232 15.0326 13.3229 15.0297C13.3226 15.0269 13.3214 15.0242 13.3194 15.0222C13.3175 15.0202 13.3149 15.0188 13.3122 15.0184C13.3094 15.0181 13.3066 15.0186 13.3042 15.02C12.8334 15.2844 12.4614 15.6398 12.1883 16.0863C12.1437 16.159 12.1045 16.26 12.0708 16.3894C12.0683 16.3992 12.0685 16.4096 12.0714 16.4194C12.1124 16.5561 12.1889 16.6888 12.3008 16.8175C12.5395 17.0921 12.8364 17.293 13.1914 17.42C13.3422 17.474 13.4416 17.5044 13.4895 17.5113C13.4917 17.5116 13.4938 17.5125 13.4955 17.514C13.4972 17.5155 13.4983 17.5175 13.4989 17.5197C13.5024 17.5331 13.495 17.5427 13.4767 17.5488C12.887 17.3947 12.2905 17.0538 12.0473 16.4688C12.025 16.4152 12.0287 16.3514 12.0583 16.2772C12.3123 15.6425 12.8895 15.2329 13.4426 14.8816C13.4439 14.8809 13.4453 14.8806 13.4467 14.8808C13.448 14.881 13.4493 14.8816 13.4503 14.8826C13.4513 14.8837 13.4519 14.885 13.452 14.8864C13.4522 14.8878 13.4518 14.8892 13.4511 14.8904C13.1051 15.4029 12.8101 16.2644 13.323 16.7738C13.4638 16.9138 13.6206 17.0193 13.7933 17.0904C14.1151 17.2225 14.3151 17.2972 14.553 17.4872C14.7911 17.6769 15.0117 17.9735 15.2326 18.1919C15.3099 18.2682 15.4492 18.3617 15.6505 18.4725C15.6547 18.4749 15.6579 18.4787 15.6594 18.4833C15.6609 18.4879 15.6606 18.4928 15.6586 18.4972C15.6142 18.5906 15.5612 18.6668 15.4995 18.726C15.0298 19.1754 14.3148 19.4388 13.6573 19.4729C13.153 19.4989 12.7183 19.3591 12.3533 19.0535C12.1792 18.9079 12.0333 18.6794 11.9117 18.4816C11.9112 18.4807 11.9111 18.4798 11.9112 18.4788C11.9113 18.4778 11.9117 18.4769 11.9123 18.4762C11.913 18.4755 11.9139 18.475 11.9148 18.4748C11.9158 18.4746 11.9167 18.4747 11.9176 18.475C12.2047 18.6115 12.5084 18.6738 12.8286 18.6619C13.1105 18.6517 13.3621 18.5582 13.5836 18.3813Z" fill="#FAD82D"/>
<path d="M18.4985 17.555L18.4963 17.5432C18.4954 17.5376 18.4966 17.532 18.4998 17.5273C18.5029 17.5226 18.5077 17.5192 18.5132 17.5179C18.8326 17.4381 19.1237 17.3032 19.3866 17.1132C19.6329 16.9357 19.8507 16.685 19.9354 16.3878C19.938 16.3787 19.9377 16.369 19.9345 16.36C19.8543 16.1363 19.7324 15.9302 19.5688 15.7419C19.4595 15.6159 19.3597 15.5132 19.2695 15.4338C19.2057 15.3775 19.0793 15.2829 18.8901 15.1497C18.8424 15.1162 18.7932 15.0895 18.7426 15.0697C18.7405 15.0689 18.7383 15.0686 18.7361 15.0691C18.734 15.0695 18.732 15.0706 18.7304 15.0722C18.7288 15.0738 18.7278 15.0759 18.7273 15.0781C18.7269 15.0803 18.7271 15.0826 18.7279 15.0847C18.7594 15.1593 18.7965 15.2465 18.8395 15.3463C18.9729 15.6563 19.0473 16.0516 18.9516 16.4013C18.8585 16.741 18.5341 16.9941 18.2145 17.1282C18.0541 17.1953 17.8998 17.2491 17.7532 17.3297C17.5226 17.4564 17.3247 17.6222 17.1595 17.8272C17.0526 17.96 16.937 18.0844 16.856 18.1675C16.7271 18.2994 16.5835 18.3967 16.4254 18.4594C16.4197 18.4617 16.4146 18.4651 16.4103 18.4694C16.406 18.4738 16.4027 18.479 16.4006 18.4847C16.3985 18.4904 16.3976 18.4965 16.398 18.5026C16.3984 18.5087 16.4001 18.5146 16.4029 18.52C16.4494 18.6092 16.5091 18.6871 16.5823 18.7538C16.7698 18.9248 16.9624 19.0573 17.1601 19.1513C17.422 19.2757 17.7171 19.3636 18.0454 19.415C18.2383 19.4452 18.4204 19.4511 18.5916 19.4325C18.9177 19.3973 19.2171 19.2859 19.4898 19.0982C19.5954 19.0252 19.6838 18.9472 19.7551 18.8641C19.8284 18.7783 19.897 18.6838 19.9607 18.5807C19.9616 18.5793 19.9621 18.5776 19.962 18.5759C19.9619 18.5743 19.9613 18.5727 19.9603 18.5713C19.9592 18.57 19.9578 18.569 19.9561 18.5685C19.9544 18.568 19.9527 18.568 19.951 18.5685C19.7991 18.6149 19.6435 18.6515 19.4841 18.6782C19.3066 18.708 19.1102 18.6992 18.8948 18.6519C18.705 18.6102 18.5315 18.5301 18.3745 18.4116C18.3727 18.4102 18.3714 18.4084 18.3706 18.4064C18.3697 18.4043 18.3695 18.402 18.3699 18.3998C18.3703 18.3977 18.3713 18.3956 18.3727 18.3939C18.3742 18.3923 18.3761 18.391 18.3782 18.3904L18.3926 18.386C18.6085 18.5372 18.8448 18.635 19.1101 18.6544C19.4426 18.6786 19.7619 18.6186 20.0679 18.4744C20.0689 18.4739 20.0701 18.4737 20.0712 18.474C20.0723 18.4742 20.0733 18.4748 20.074 18.4757C20.0748 18.4765 20.0752 18.4776 20.0752 18.4788C20.0752 18.4799 20.0748 18.481 20.0741 18.4819C19.9301 18.6879 19.846 18.8213 19.7298 18.9397C19.4119 19.2631 19.0174 19.4389 18.5463 19.4672C17.8048 19.5119 16.9948 19.2429 16.4707 18.6929C16.4224 18.6422 16.3837 18.5843 16.3548 18.5191C16.3496 18.5075 16.3492 18.4942 16.3537 18.4822C16.3582 18.4703 16.3672 18.4605 16.3788 18.455C16.6003 18.3523 16.7912 18.2055 16.9516 18.0144C17.0325 17.9182 17.1193 17.8191 17.212 17.7172C17.4098 17.4994 17.6357 17.3344 17.8816 17.2332C18.1271 17.1321 18.2709 17.0707 18.3132 17.0488C18.7098 16.8416 18.9701 16.5282 18.957 16.0613C18.9459 15.6532 18.8222 15.2794 18.5857 14.94C18.5847 14.9391 18.5842 14.9378 18.5842 14.9364C18.5841 14.935 18.5846 14.9337 18.5856 14.9327C18.5865 14.9317 18.5878 14.9311 18.5891 14.931C18.5905 14.9309 18.5919 14.9313 18.5929 14.9322C19.1616 15.2522 19.6929 15.6691 19.9488 16.2844C20.0426 16.5097 19.7154 16.8869 19.5613 17.0222C19.2549 17.291 18.9006 17.4686 18.4985 17.555Z" fill="#FAD82D"/>
<path d="M17.5386 15.1997C17.5398 15.1937 17.5431 15.1883 17.5478 15.1845C17.5526 15.1807 17.5585 15.1786 17.5645 15.1788C17.8139 15.1831 18.0189 15.3713 18.127 15.5856C18.218 15.7663 18.2877 16.111 18.1117 16.2697C18.014 16.3578 17.907 16.41 17.7908 16.4263C17.4337 16.4761 17.1327 16.6377 16.8877 16.9113C16.7545 17.0598 16.6634 17.2211 16.6142 17.395C16.568 17.5578 16.568 17.7631 16.3936 17.8816C16.282 17.9572 16.057 17.9516 15.9142 17.95C15.792 17.9491 15.642 17.9469 15.5548 17.8616C15.4161 17.7253 15.4139 17.5366 15.3764 17.395C15.263 16.966 14.8133 16.5634 14.3736 16.4641C14.1173 16.4059 13.8939 16.3547 13.8092 16.1135C13.737 15.9072 13.8411 15.6166 13.9795 15.4413C14.086 15.3065 14.2229 15.2181 14.3902 15.1763C14.4041 15.1727 14.4188 15.1743 14.4317 15.1808C14.4446 15.1872 14.4548 15.198 14.4605 15.2113L14.5292 15.3722C14.5303 15.3749 14.5317 15.3774 14.5336 15.3797C14.6282 15.5041 14.7524 15.6075 14.9064 15.69C15.3979 15.9529 15.9209 16.0311 16.4755 15.9244C16.8398 15.8547 17.4517 15.6181 17.5386 15.1997ZM14.4111 15.2147C14.3592 15.2056 14.3383 15.2228 14.2964 15.2413C14.1712 15.2961 14.072 15.3743 13.9989 15.476C13.8048 15.7456 13.6998 16.1806 14.0883 16.3481C14.1372 16.3692 14.2223 16.3932 14.3436 16.4203C14.4478 16.4435 14.5316 16.4704 14.5952 16.5013C14.8637 16.6317 15.0749 16.8001 15.2289 17.0066C15.3347 17.1489 15.4079 17.3312 15.4483 17.5535C15.4755 17.7022 15.5345 17.8816 15.7117 17.8972C15.8538 17.9097 16.0041 17.9126 16.1627 17.9059C16.3204 17.8995 16.4296 17.8349 16.4905 17.7122C16.5053 17.6826 16.5194 17.6345 16.533 17.5678C16.5745 17.3653 16.632 17.1844 16.7492 17.0216C16.973 16.71 17.3408 16.4422 17.7323 16.4053C17.7475 16.4039 17.7626 16.4008 17.7773 16.3963C17.9445 16.3434 18.0836 16.3041 18.1589 16.1256C18.1952 16.04 18.1982 15.9348 18.168 15.81C18.1217 15.6181 18.0279 15.4609 17.8864 15.3384C17.8741 15.3281 17.8609 15.319 17.8467 15.3113C17.8007 15.2863 17.7395 15.2558 17.6633 15.22C17.602 15.1913 17.5602 15.21 17.547 15.28C17.5358 15.3404 17.516 15.3865 17.4877 15.4181C17.3689 15.5503 17.2661 15.6469 17.1095 15.731C16.9562 15.8128 16.7827 15.8792 16.5889 15.93C16.4764 15.9597 16.3798 15.9644 16.2842 15.9909C16.2614 15.9974 16.2379 16.0008 16.2142 16.0013C15.9928 16.0044 15.8617 16.004 15.8211 16C15.6332 15.9819 15.4308 15.9381 15.2139 15.8688C15.0483 15.8158 14.8705 15.7218 14.6805 15.5866C14.5588 15.4999 14.4783 15.3844 14.4389 15.24C14.4372 15.2336 14.4337 15.2278 14.4288 15.2233C14.4238 15.2188 14.4177 15.2158 14.4111 15.2147Z" fill="#FAD82D"/>
<path d="M13.4751 17.6009C13.483 17.6068 13.4866 17.6129 13.486 17.6194C13.4854 17.6256 13.4802 17.6301 13.4704 17.6328C12.9782 17.7781 12.4257 17.6334 12.0082 17.3572C11.963 17.3274 11.8954 17.2698 11.8054 17.1844C11.741 17.1229 11.6733 17.0648 11.6023 17.01C11.5887 16.9938 11.5869 16.9676 11.5969 16.9316C11.5973 16.9302 11.5981 16.9289 11.5991 16.9279C11.6002 16.9269 11.6015 16.9262 11.6029 16.9259C11.6044 16.9256 11.6059 16.9257 11.6072 16.9262C11.6086 16.9267 11.6098 16.9276 11.6107 16.9288C12.0441 17.49 12.7807 17.7797 13.4751 17.6009Z" fill="#FAD82D"/>
<path d="M18.421 18.36C18.4147 18.3404 18.4175 18.3307 18.4294 18.3309C18.489 18.332 18.5597 18.3325 18.6416 18.3325C18.7578 18.3322 18.8472 18.315 18.9597 18.3153C18.9728 18.3153 19.015 18.3116 19.0863 18.3041C19.2192 18.2901 19.3925 18.2426 19.6063 18.1616C19.8635 18.0638 20.1378 17.8991 20.2494 17.6563C20.2921 17.5635 20.3191 17.4838 20.3303 17.4169C20.3568 17.2602 20.3701 17.1816 20.3703 17.1809C20.3775 17.1616 20.3787 17.1405 20.3738 17.1203L20.3616 17.0691C20.3612 17.0675 20.3604 17.066 20.3593 17.0647C20.3582 17.0635 20.3567 17.0626 20.3551 17.0622C20.3535 17.0617 20.3519 17.0616 20.3502 17.062C20.3486 17.0624 20.3472 17.0632 20.346 17.0644C20.2991 17.1081 20.2641 17.1408 20.241 17.1625C20.0012 17.3875 19.7143 17.5437 19.3803 17.6309C19.0764 17.7101 18.7791 17.705 18.4885 17.6156C18.4816 17.6135 18.4781 17.6102 18.4781 17.6056C18.4781 17.6013 18.4807 17.5967 18.486 17.5919C18.5207 17.5929 18.5443 17.5951 18.5566 17.5984C19.161 17.7594 19.8241 17.5388 20.2563 17.1072C20.2804 17.0832 20.3285 17.024 20.4003 16.9294C20.4011 16.9283 20.4022 16.9276 20.4035 16.9272C20.4047 16.9268 20.4061 16.9268 20.4073 16.9272C20.4086 16.9276 20.4096 16.9284 20.4104 16.9295C20.4112 16.9305 20.4116 16.9318 20.4116 16.9331C20.406 17.4488 20.3256 17.8394 19.8591 18.0875C19.5039 18.2763 19.0975 18.3715 18.64 18.3731C18.5348 18.3735 18.4618 18.3692 18.421 18.36Z" fill="#FAD82D"/>
<path d="M13.5851 18.345C13.5397 18.3581 13.4933 18.3662 13.446 18.3691C12.937 18.3997 12.3542 18.2784 11.9613 17.9669C11.8182 17.8531 11.7181 17.7012 11.661 17.5109C11.6267 17.3962 11.611 17.2804 11.6142 17.1638C11.641 17.2406 11.6633 17.3183 11.681 17.3969C11.7079 17.5163 11.7293 17.5935 11.7451 17.6288C11.9248 18.0284 12.4229 18.2253 12.842 18.2994C12.8684 18.3042 13.0146 18.3156 13.2804 18.3338C13.2997 18.3352 13.3189 18.3339 13.3376 18.33C13.4161 18.3142 13.4897 18.3102 13.5582 18.3181C13.5705 18.3196 13.5795 18.3285 13.5851 18.345Z" fill="#FAD82D"/>
<path d="M17.5795 21.3044C17.5966 21.3002 17.6069 21.3076 17.6104 21.3266C17.6594 21.5885 17.6301 21.8417 17.5226 22.0863C17.5139 22.1063 17.5127 22.1288 17.5192 22.1538C17.5197 22.1557 17.5206 22.1574 17.5219 22.159C17.5231 22.1605 17.5247 22.1617 17.5264 22.1626C17.5282 22.1634 17.5301 22.1639 17.532 22.1639C17.5339 22.164 17.5358 22.1636 17.5376 22.1628C18.2382 21.856 18.7873 21.1963 18.8907 20.4328C18.891 20.4309 18.8906 20.429 18.8898 20.4273C18.8889 20.4255 18.8876 20.4241 18.8859 20.4231C18.8843 20.4221 18.8824 20.4216 18.8805 20.4217C18.8786 20.4217 18.8767 20.4224 18.8751 20.4235C18.6864 20.5575 18.4685 20.6991 18.2273 20.6997C17.9858 20.7003 17.7925 20.6087 17.6473 20.4247C17.6444 20.4212 17.5994 20.3615 17.5123 20.2456C17.4408 20.1502 17.3372 20.0634 17.2014 19.985C16.9218 19.824 16.6296 19.726 16.3248 19.691C16.235 19.6807 16.1225 19.6765 15.9873 19.6781C15.8071 19.6802 15.6943 19.685 15.6489 19.6925C15.4112 19.7325 15.1838 19.803 14.9667 19.9041C14.8419 19.9622 14.7352 20.0306 14.6467 20.1094C14.5479 20.1973 14.4635 20.292 14.3935 20.3935C14.2498 20.602 14.0542 20.7054 13.8067 20.7038C13.5957 20.7022 13.3523 20.5953 13.191 20.4656C13.1473 20.4304 13.1081 20.4185 13.0735 20.4297C13.0573 20.3914 13.0479 20.3515 13.0454 20.31C13.0453 20.3083 13.0458 20.3066 13.0467 20.3051C13.0476 20.3036 13.0489 20.3024 13.0504 20.3016C13.052 20.3009 13.0538 20.3006 13.0555 20.3009C13.0572 20.3012 13.0588 20.302 13.0601 20.3031C13.3557 20.5991 13.9242 20.8656 14.2682 20.4863C14.2953 20.4565 14.3563 20.3822 14.451 20.2635C14.8485 19.7669 15.6129 19.5997 16.2245 19.6481C16.691 19.6853 17.2585 19.8647 17.5576 20.2469C17.7135 20.4469 17.8032 20.5844 18.0542 20.6481C18.3748 20.7297 18.7245 20.5394 18.9417 20.2966C18.943 20.2952 18.9447 20.2943 18.9465 20.294C18.9484 20.2936 18.9503 20.2939 18.952 20.2947C18.9537 20.2956 18.955 20.2969 18.9559 20.2986C18.9567 20.3003 18.957 20.3022 18.9567 20.3041C18.9217 20.49 18.901 20.6153 18.8576 20.7481C18.6226 21.4627 18.1531 21.9598 17.4492 22.2394C17.4471 22.2403 17.4447 22.2405 17.4425 22.24C17.4403 22.2395 17.4383 22.2383 17.4367 22.2367C17.4352 22.235 17.4342 22.2329 17.4338 22.2307C17.4335 22.2284 17.4338 22.2261 17.4348 22.2241C17.5767 21.933 17.6249 21.6265 17.5795 21.3044Z" fill="#FAD82D"/>
<path d="M14.4322 21.3075C14.3572 21.6238 14.4334 21.9413 14.565 22.2291C14.5657 22.2309 14.5659 22.2329 14.5655 22.2348C14.5652 22.2367 14.5642 22.2384 14.5629 22.2398C14.5615 22.2412 14.5598 22.2422 14.5579 22.2426C14.556 22.243 14.554 22.2429 14.5522 22.2422C14.0493 22.0334 13.6541 21.6978 13.3666 21.2353C13.2353 21.0241 13.1541 20.8067 13.1228 20.5831C13.2134 20.8725 13.3342 21.1257 13.485 21.3428C13.7035 21.6568 13.9906 21.9133 14.3462 22.1125C14.3847 22.1341 14.4272 22.1438 14.465 22.1528C14.4686 22.1537 14.4724 22.1535 14.476 22.1523C14.4795 22.1511 14.4827 22.1489 14.4851 22.146C14.4874 22.1431 14.489 22.1395 14.4894 22.1358C14.4899 22.132 14.4894 22.1282 14.4878 22.1247C14.3695 21.8676 14.3399 21.596 14.3991 21.31C14.3992 21.3087 14.3997 21.3075 14.4005 21.3064C14.4012 21.3053 14.4023 21.3044 14.4034 21.3038C14.4113 21.299 14.4209 21.3002 14.4322 21.3075Z" fill="#FAD82D"/>
<path d="M17.5251 21.3138C17.2345 22.0428 16.6129 22.3847 15.8395 22.3135C15.1995 22.2544 14.7535 21.8872 14.4807 21.3125C14.4911 21.2938 14.499 21.2891 14.5045 21.2984C14.5551 21.388 14.6193 21.4908 14.697 21.6069C14.907 21.9202 15.1888 22.1254 15.5426 22.2225C15.8709 22.3127 16.1979 22.3112 16.5235 22.2178C16.8295 22.13 17.1292 21.9291 17.3054 21.6384C17.4012 21.4807 17.4646 21.3726 17.4954 21.3141C17.4989 21.3072 17.5088 21.3071 17.5251 21.3138Z" fill="#FAD82D"/>
</g>
<defs>
<clipPath id="clip0_604_10">
<rect width="32" height="32" fill="white"/>
</clipPath>
</defs>
</svg>
