<?xml version="1.0" encoding="UTF-8" standalone="no"?>
<!DOCTYPE svg PUBLIC "-//W3C//DTD SVG 1.1//EN" "http://www.w3.org/Graphics/SVG/1.1/DTD/svg11.dtd">
<svg xmlns="http://www.w3.org/2000/svg" version="1.1" viewBox="0.00 0.00 1024.00 1024.00">

<path fill="#0d0d0e" d="
  M 283.94 604.58
  A 0.43 0.42 -77.7 0 1 283.24 605.03
  Q 277.64 599.34 270.68 590.17
  C 261.41 577.96 252.29 564.13 246.67 549.87
  Q 227.18 500.49 230.74 447.47
  A 0.31 0.31 0.0 0 0 230.22 447.23
  C 219.00 457.80 209.31 469.94 202.70 483.64
  A 0.47 0.47 0.0 0 1 201.81 483.40
  Q 202.63 469.71 204.09 452.53
  C 209.52 388.84 236.90 327.73 278.59 279.80
  A 0.93 0.93 0.0 0 0 278.52 278.51
  C 258.61 260.33 241.91 233.83 238.55 206.76
  C 236.34 188.98 237.00 168.51 244.91 152.67
  C 249.96 142.55 258.79 134.23 271.01 137.63
  Q 278.06 139.60 284.59 143.93
  C 301.48 155.15 319.73 165.85 339.32 169.35
  Q 351.16 171.46 366.31 168.59
  Q 369.10 168.06 378.41 165.11
  Q 384.04 163.33 390.27 160.93
  Q 415.76 151.08 436.17 145.41
  C 478.55 133.65 523.18 131.64 566.56 140.14
  C 593.22 145.36 618.06 154.39 643.75 164.24
  C 660.03 170.48 678.02 172.60 694.69 167.15
  C 711.39 161.68 725.73 152.00 739.87 143.13
  C 745.50 139.60 753.12 135.96 759.76 136.74
  C 772.85 138.27 779.90 151.75 782.89 163.20
  Q 786.69 177.76 786.06 194.51
  Q 785.61 206.42 784.20 212.89
  Q 775.62 252.23 745.70 278.68
  A 0.74 0.74 0.0 0 0 745.63 279.73
  C 788.35 329.09 815.04 390.55 820.33 455.31
  Q 821.96 475.30 822.06 479.00
  Q 822.14 482.25 821.92 483.71
  A 0.25 0.25 0.0 0 1 821.44 483.76
  C 819.50 478.49 816.48 474.01 812.88 468.59
  Q 804.93 456.60 794.19 446.92
  A 0.36 0.36 0.0 0 0 793.59 447.21
  Q 796.80 496.95 779.92 543.56
  Q 773.92 560.13 765.31 573.58
  Q 754.28 590.82 740.93 604.98
  A 0.45 0.44 78.7 0 1 740.20 604.49
  C 744.22 595.35 745.01 584.30 745.03 575.25
  Q 745.07 563.15 744.89 553.60
  A 0.37 0.37 0.0 0 0 744.20 553.42
  Q 735.55 568.15 724.74 580.99
  C 710.85 597.49 696.40 609.41 675.57 627.57
  Q 654.17 646.23 639.88 670.37
  C 634.27 679.86 628.73 692.92 622.87 701.90
  C 600.60 736.07 558.85 752.33 519.52 753.96
  C 474.67 755.81 423.07 739.28 398.89 698.61
  C 393.87 690.15 387.89 677.14 382.40 667.99
  Q 368.88 645.46 348.46 627.31
  C 336.68 616.83 324.01 606.59 313.77 596.29
  Q 294.12 576.54 279.71 553.16
  A 0.35 0.34 -60.4 0 0 279.07 553.34
  Q 278.78 566.18 279.11 579.29
  C 279.34 588.35 280.92 596.64 283.94 604.58
  Z
  M 510.64 154.99
  L 509.55 157.76
  C 503.39 172.65 498.51 188.63 496.92 204.64
  Q 495.97 214.27 495.99 218.00
  Q 496.11 238.76 501.38 259.12
  Q 500.92 260.06 501.15 261.82
  A 0.22 0.21 23.7 0 1 500.76 261.97
  L 500.25 261.26
  Q 499.70 260.20 499.07 259.12
  Q 492.89 248.49 483.75 235.07
  C 472.83 219.05 464.83 203.05 463.83 183.41
  A 0.33 0.32 57.8 0 0 463.22 183.27
  Q 461.07 187.26 459.58 192.07
  C 451.29 218.92 457.87 246.07 475.36 267.65
  Q 476.90 269.55 486.06 279.69
  C 501.51 296.79 508.69 318.64 511.78 341.06
  A 0.29 0.29 0.0 0 0 512.36 341.06
  C 515.56 319.50 522.00 298.64 536.50 282.00
  C 542.30 275.34 547.93 269.96 552.82 263.05
  C 569.53 239.43 573.18 209.56 560.67 183.01
  A 0.18 0.18 0.0 0 0 560.33 183.07
  L 559.89 187.80
  L 559.17 192.89
  Q 556.67 206.83 549.85 218.86
  Q 541.90 232.89 532.53 246.04
  Q 528.31 251.95 523.65 261.70
  L 523.37 262.01
  A 0.19 0.18 -21.2 0 1 523.05 261.87
  L 523.26 259.26
  Q 526.28 241.87 527.42 230.98
  Q 530.34 203.11 520.69 174.08
  Q 516.99 162.92 512.27 152.10
  A 0.32 0.32 0.0 0 0 511.68 152.12
  L 510.64 154.99
  Z
  M 756.25 170.81
  C 753.74 182.06 744.53 193.20 735.87 200.64
  C 721.84 212.70 706.26 223.90 702.31 241.53
  C 700.30 250.46 704.87 256.43 710.85 262.66
  Q 712.85 264.74 714.82 265.74
  A 2.10 2.08 46.6 0 0 716.62 265.80
  C 750.36 251.06 773.00 216.68 760.98 179.31
  Q 759.42 174.46 757.13 170.66
  A 0.48 0.48 0.0 0 0 756.25 170.81
  Z
  M 267.90 170.86
  A 0.48 0.48 0.0 0 0 267.02 170.71
  Q 264.73 174.50 263.17 179.34
  C 251.13 216.65 273.71 251.01 307.39 265.76
  A 2.10 2.08 -46.6 0 0 309.19 265.70
  Q 311.16 264.70 313.16 262.63
  C 319.14 256.41 323.71 250.45 321.71 241.53
  C 317.78 223.92 302.23 212.72 288.23 200.67
  C 279.59 193.23 270.40 182.10 267.90 170.86
  Z
  M 464.63 385.69
  A 0.20 0.20 0.0 0 0 465.02 385.62
  C 465.40 373.26 463.62 359.84 460.01 347.88
  C 454.26 328.82 440.67 313.51 422.91 303.85
  Q 410.27 296.97 401.10 291.41
  C 388.70 283.88 377.85 269.59 375.24 255.50
  Q 370.77 231.33 382.54 209.48
  A 0.43 0.42 13.6 0 0 382.15 208.85
  Q 381.92 208.85 381.43 209.19
  C 350.09 230.82 341.22 276.89 369.75 304.45
  C 381.51 315.80 395.69 321.82 411.30 328.20
  C 420.28 331.87 429.04 335.81 436.39 342.13
  Q 453.14 356.54 461.18 377.07
  Q 462.96 381.62 464.63 385.69
  Z
  M 559.35 385.40
  A 0.26 0.26 0.0 0 0 559.81 385.59
  C 560.94 384.36 560.89 383.05 561.35 381.69
  Q 565.87 368.41 574.06 356.95
  C 582.20 345.54 592.49 337.55 605.08 332.08
  C 619.28 325.90 628.37 322.48 638.84 316.59
  C 649.09 310.82 659.04 301.83 664.59 291.22
  C 679.49 262.74 668.19 226.13 642.11 208.93
  Q 641.70 208.66 641.30 208.80
  A 0.31 0.30 65.1 0 0 641.14 209.25
  Q 644.05 214.13 645.32 217.46
  Q 652.29 235.75 649.39 254.00
  C 646.79 270.37 635.10 284.19 621.36 292.62
  Q 615.33 296.32 598.76 305.52
  Q 573.27 319.67 564.38 347.87
  Q 559.74 362.59 559.55 377.50
  Q 559.47 383.28 559.35 385.40
  Z
  M 539.97 361.25
  Q 541.03 358.55 544.66 346.92
  C 549.21 332.33 555.54 319.65 565.04 307.28
  C 570.58 300.06 580.65 291.14 585.54 282.63
  C 593.65 268.50 595.68 251.81 592.08 235.91
  A 0.39 0.39 0.0 0 0 591.35 235.84
  Q 583.78 253.67 570.97 269.74
  Q 567.03 274.68 553.62 289.05
  Q 540.96 302.62 537.51 320.98
  Q 534.34 337.78 537.77 353.49
  Q 538.81 358.25 539.28 361.18
  A 0.36 0.36 0.0 0 0 539.97 361.25
  Z
  M 486.32 354.04
  Q 487.12 351.54 486.70 350.03
  Q 489.20 337.19 487.32 324.48
  C 484.83 307.66 474.92 293.76 463.59 281.35
  Q 455.97 273.00 451.57 267.52
  Q 439.76 252.81 432.66 236.00
  A 0.31 0.30 -50.7 0 0 432.08 236.06
  Q 426.44 261.98 440.05 283.99
  Q 441.73 286.71 443.93 289.15
  Q 455.14 301.62 458.01 305.05
  C 471.52 321.17 478.88 340.82 484.30 361.31
  A 0.19 0.18 44.6 0 0 484.66 361.31
  L 486.32 354.04
  Z
  M 696.32 352.99
  L 698.36 351.03
  A 0.37 0.37 0.0 0 1 698.96 351.17
  Q 699.22 351.88 699.01 352.57
  Q 699.96 371.50 696.29 386.75
  C 687.51 423.19 652.67 444.98 616.20 442.92
  A 0.27 0.27 0.0 0 0 616.02 443.40
  Q 626.92 451.35 640.05 451.96
  C 646.77 452.26 653.78 451.85 660.68 450.16
  C 681.80 445.00 699.94 432.41 711.56 414.10
  C 725.03 392.88 729.85 367.48 728.61 342.03
  C 727.47 318.90 720.51 297.76 705.39 280.31
  A 0.25 0.25 0.0 0 0 704.96 280.51
  C 706.92 292.55 707.08 307.22 702.42 318.42
  C 694.08 338.47 675.38 346.47 654.87 349.60
  C 623.82 354.33 592.14 364.58 585.58 400.03
  Q 583.92 409.02 584.30 416.27
  Q 584.71 424.21 585.46 431.42
  A 0.13 0.12 -2.4 0 0 585.59 431.53
  L 585.84 431.53
  A 0.53 0.52 2.3 0 0 586.37 431.05
  Q 587.43 419.89 591.83 408.34
  Q 602.24 381.00 628.84 373.81
  Q 634.15 372.37 644.68 371.31
  Q 652.76 370.50 660.63 369.60
  C 674.24 368.05 686.72 363.03 696.32 352.99
  Z
  M 324.94 351.75
  L 324.98 351.30
  A 0.48 0.47 25.7 0 1 325.79 351.02
  L 327.86 353.05
  C 337.82 363.53 351.22 368.48 365.38 369.85
  C 387.92 372.04 407.93 373.23 422.76 391.78
  C 432.11 403.47 436.55 417.49 438.19 432.25
  A 0.11 0.11 0.0 0 0 438.41 432.26
  C 442.42 409.18 439.67 384.64 420.74 368.56
  C 410.52 359.89 397.10 355.12 383.48 352.26
  C 367.08 348.83 348.63 347.75 334.02 335.58
  Q 318.50 322.66 317.80 300.75
  Q 317.63 295.51 318.18 284.10
  C 318.23 283.05 318.69 281.93 318.86 280.86
  A 0.36 0.36 0.0 0 0 318.23 280.57
  C 299.47 303.59 293.78 333.02 295.96 362.74
  C 298.97 403.53 321.58 439.97 362.87 450.18
  C 371.70 452.37 381.55 452.69 389.75 451.20
  Q 399.22 449.48 407.39 443.22
  A 0.18 0.18 0.0 0 0 407.27 442.89
  Q 379.15 444.09 356.35 428.20
  Q 332.29 411.43 326.86 381.93
  Q 324.29 367.98 324.94 351.75
  Z
  M 273.38 345.39
  Q 273.15 345.53 272.93 345.94
  Q 261.15 368.69 257.22 393.64
  C 255.67 403.46 255.70 413.09 255.88 423.24
  C 256.31 448.40 265.58 472.80 283.19 490.89
  C 291.78 499.72 302.78 506.13 314.28 509.67
  C 325.95 513.26 340.12 512.59 352.71 510.45
  A 0.57 0.57 0.0 0 0 352.75 509.34
  Q 351.17 508.96 349.26 508.86
  A 5.46 4.81 -33.4 0 1 348.19 508.71
  C 328.89 503.97 312.16 493.09 299.54 477.14
  Q 282.93 456.15 276.20 429.52
  Q 270.31 406.21 271.18 382.76
  Q 271.47 374.83 272.98 354.33
  C 273.18 351.65 272.97 348.69 273.83 345.74
  A 0.31 0.31 0.0 0 0 273.38 345.39
  Z
  M 750.78 346.72
  Q 751.01 355.20 751.71 362.23
  Q 753.61 381.11 752.73 399.95
  Q 751.90 417.68 745.55 438.04
  C 734.68 472.90 708.02 503.40 670.55 509.52
  A 0.45 0.45 0.0 0 0 670.39 510.35
  Q 670.70 510.53 671.21 510.63
  Q 675.88 511.57 685.21 512.02
  C 728.22 514.11 759.66 480.15 766.41 439.93
  Q 772.17 405.59 761.83 372.31
  C 759.22 363.94 755.68 356.27 751.22 346.61
  A 0.23 0.23 0.0 0 0 750.78 346.72
  Z
  M 404.92 403.38
  A 0.34 0.34 0.0 0 0 404.33 403.20
  C 398.82 409.58 391.13 413.83 383.31 407.78
  Q 379.32 404.70 377.81 399.78
  A 4.75 4.71 37.6 0 1 377.61 398.29
  L 377.78 391.33
  A 1.68 1.68 0.0 0 0 376.51 389.66
  L 370.13 388.02
  A 2.12 2.11 -67.9 0 0 367.77 389.02
  Q 366.70 390.90 366.34 393.06
  C 364.71 402.69 367.21 412.39 375.84 417.50
  C 387.70 424.52 407.54 421.62 404.92 403.38
  Z
  M 619.07 407.04
  Q 618.84 409.94 619.69 410.04
  Q 621.24 418.27 629.48 420.28
  C 644.57 423.95 658.58 414.05 658.07 398.28
  Q 657.87 392.04 656.42 389.25
  A 1.75 1.72 0.9 0 0 655.73 388.55
  C 653.76 387.44 649.46 389.19 647.59 390.00
  A 2.51 2.51 0.0 0 0 646.09 392.34
  Q 646.16 395.95 646.19 396.99
  C 646.39 401.99 643.24 406.62 638.98 408.96
  C 631.58 413.04 624.38 409.11 619.75 403.17
  A 0.35 0.35 0.0 0 0 619.13 403.38
  L 619.07 407.04
  Z
  M 292.25 412.89
  A 0.37 0.37 0.0 0 0 291.98 413.31
  Q 292.70 417.47 293.27 422.50
  C 296.97 455.13 321.36 483.83 355.42 485.21
  Q 377.82 486.11 394.75 471.72
  A 0.36 0.36 0.0 0 0 394.43 471.10
  Q 365.86 478.23 339.45 465.31
  C 317.39 454.52 301.70 435.46 292.69 413.09
  A 0.36 0.35 71.3 0 0 292.27 412.88
  L 292.25 412.89
  Z
  M 628.79 471.54
  Q 648.86 488.24 674.97 484.59
  Q 686.06 483.03 694.66 478.08
  Q 722.69 461.93 729.80 429.21
  C 730.96 423.88 731.16 418.51 731.91 413.16
  A 0.27 0.27 0.0 0 0 731.39 413.02
  Q 728.27 420.01 727.61 421.37
  C 721.11 434.89 711.75 447.48 699.91 456.52
  Q 669.16 479.99 628.94 471.23
  A 0.18 0.18 0.0 0 0 628.79 471.54
  Z
  M 431.25 561.56
  L 432.65 562.09
  A 0.34 0.34 0.0 0 1 432.72 562.69
  Q 432.17 563.07 431.20 563.23
  C 408.98 568.95 385.41 559.68 371.54 541.72
  A 0.25 0.25 0.0 0 0 371.10 541.81
  Q 370.62 543.54 371.27 544.32
  Q 370.52 547.87 371.65 549.24
  Q 371.50 554.84 373.15 560.35
  Q 375.89 569.48 382.76 574.94
  C 395.33 584.91 413.98 588.79 430.27 587.81
  Q 432.54 587.67 434.72 587.04
  Q 435.64 587.08 434.67 588.20
  Q 424.04 596.69 410.51 597.18
  Q 395.14 597.75 381.36 591.20
  A 0.15 0.15 0.0 0 0 381.17 591.41
  C 385.06 597.74 389.73 605.05 395.30 609.71
  Q 412.82 624.38 437.03 623.13
  C 458.07 622.04 480.95 613.61 495.98 599.23
  Q 498.94 596.39 501.07 591.91
  A 0.61 0.61 0.0 0 0 500.81 591.12
  Q 491.15 585.80 487.44 582.14
  C 480.37 575.15 473.31 565.66 465.69 559.59
  C 458.08 553.51 451.68 551.12 441.38 546.89
  Q 433.09 543.48 426.33 536.76
  C 409.92 520.46 419.36 492.89 430.43 476.49
  A 0.20 0.20 0.0 0 0 430.16 476.21
  C 412.46 487.45 393.99 500.56 385.86 520.87
  Q 384.44 524.43 385.51 527.00
  C 393.29 545.72 412.38 556.63 431.25 561.56
  Z
  M 588.56 588.35
  Q 588.31 588.18 588.19 587.98
  A 0.41 0.41 0.0 0 1 588.62 587.37
  L 589.47 587.52
  Q 591.43 587.96 596.48 587.94
  Q 618.44 587.86 635.49 578.80
  C 650.42 570.86 652.99 558.36 653.17 541.86
  A 0.20 0.20 0.0 0 0 652.81 541.74
  Q 649.36 546.28 648.20 547.43
  C 634.37 561.24 613.15 568.30 593.81 563.15
  Q 593.22 562.99 591.55 562.94
  Q 591.39 562.75 591.33 562.52
  Q 591.27 562.27 591.41 562.07
  Q 591.60 561.80 591.95 561.76
  Q 611.25 557.61 625.96 544.71
  C 630.89 540.38 641.36 528.31 638.36 521.10
  C 630.17 501.41 613.17 488.07 594.97 477.83
  A 0.17 0.17 0.0 0 0 594.74 478.08
  Q 606.09 494.37 606.62 513.96
  C 607.04 528.90 598.71 538.93 586.02 545.56
  Q 583.99 546.61 572.21 551.46
  C 564.34 554.70 557.11 559.98 550.78 566.95
  Q 546.33 571.84 542.45 576.46
  Q 534.75 585.63 524.12 590.56
  A 1.57 1.56 -24.5 0 0 523.35 592.61
  Q 524.74 595.74 527.06 598.17
  C 543.83 615.77 569.75 624.38 593.48 622.95
  Q 616.09 621.59 631.35 606.07
  C 635.07 602.28 637.76 598.01 642.37 591.42
  A 0.16 0.16 0.0 0 0 642.17 591.18
  Q 627.48 598.10 611.52 596.94
  C 603.03 596.32 595.47 593.19 588.56 588.35
  Z
  M 561.23 486.39
  C 558.45 499.78 538.87 507.35 527.21 509.58
  Q 500.59 514.70 477.00 502.08
  Q 469.61 498.12 465.07 492.15
  A 0.90 0.85 16.6 0 1 464.93 491.91
  L 462.73 486.76
  A 1.94 1.93 71.4 0 0 460.48 485.64
  Q 452.45 487.65 447.34 494.12
  C 442.91 499.73 439.58 509.03 441.89 515.63
  C 444.60 523.35 451.75 524.99 459.95 526.85
  C 474.02 530.03 488.41 542.91 492.04 556.64
  C 493.24 561.17 493.31 567.21 497.75 571.57
  C 500.54 574.30 505.34 574.37 509.25 574.40
  C 513.82 574.45 521.02 574.63 524.59 572.21
  C 530.17 568.42 530.17 561.85 531.65 556.64
  Q 534.01 548.29 540.40 541.16
  Q 552.16 528.03 569.30 525.64
  Q 574.88 524.86 579.57 520.63
  C 585.20 515.55 582.97 504.52 580.06 498.74
  C 576.60 491.88 570.04 485.86 562.06 485.72
  A 0.84 0.83 -83.7 0 0 561.23 486.39
  Z
  M 418.35 653.75
  Q 418.40 657.54 419.93 658.66
  Q 421.43 669.39 427.73 679.53
  Q 441.53 701.73 465.67 711.75
  A 0.32 0.32 0.0 0 0 466.08 711.33
  C 461.87 702.12 459.43 691.96 461.83 681.84
  Q 461.89 681.14 462.13 680.73
  A 0.40 0.40 0.0 0 1 462.80 680.70
  Q 463.19 681.24 463.38 682.00
  C 472.11 700.39 486.38 712.14 506.86 714.03
  C 531.61 716.31 551.50 705.37 560.80 682.04
  Q 560.98 681.10 561.52 680.49
  A 0.36 0.35 -34.2 0 1 562.12 680.60
  L 562.54 681.74
  Q 564.72 697.20 557.91 711.17
  A 0.36 0.36 0.0 0 0 558.37 711.66
  Q 592.16 698.24 603.44 663.94
  C 604.83 659.69 605.49 655.68 606.61 649.73
  A 0.28 0.28 0.0 0 0 606.13 649.49
  C 599.18 657.26 587.99 663.35 577.73 660.74
  C 569.70 658.70 566.83 654.30 561.84 647.90
  C 552.27 635.67 534.11 629.93 519.18 628.74
  C 499.61 627.19 475.15 632.54 462.43 648.43
  Q 457.88 654.13 456.58 655.56
  C 445.57 667.70 427.38 659.17 417.92 649.70
  A 0.28 0.28 0.0 0 0 417.45 649.92
  Q 417.57 651.91 418.35 653.75
  Z"
/>
<g fill="#e6a42a">
<path d="
  M 510.64 154.99
  Q 510.69 155.73 511.67 155.65
  A 0.83 0.82 -17.8 0 1 512.42 156.03
  Q 513.22 157.30 513.79 158.67
  Q 522.45 179.61 525.87 200.58
  Q 526.04 201.59 526.78 211.64
  Q 527.22 217.59 526.87 222.74
  Q 526.10 234.14 524.51 243.31
  Q 523.03 251.81 522.30 259.17
  A 0.39 0.39 0.0 0 0 522.93 259.52
  L 523.26 259.26
  L 523.05 261.87
  A 0.19 0.18 -21.2 0 0 523.37 262.01
  L 523.65 261.70
  L 523.99 261.83
  A 0.62 0.61 24.1 0 0 524.75 261.55
  Q 530.26 251.18 534.86 244.60
  C 545.52 229.32 555.10 214.43 559.68 196.69
  Q 560.53 193.39 559.17 192.89
  L 559.89 187.80
  Q 559.82 188.47 560.29 188.77
  A 0.33 0.32 49.4 0 0 560.60 188.80
  L 560.92 188.66
  A 0.52 0.52 0.0 0 1 561.56 188.87
  Q 562.53 190.52 563.20 192.52
  Q 566.93 203.60 567.08 215.47
  Q 567.21 225.64 563.27 239.64
  C 560.91 248.04 556.50 255.12 551.76 262.51
  Q 549.65 265.81 541.61 274.46
  Q 533.32 283.38 531.27 286.28
  Q 519.61 302.79 515.19 322.11
  Q 513.93 327.63 512.78 332.15
  A 0.42 0.42 0.0 0 1 512.01 332.26
  Q 511.25 331.00 511.01 330.02
  Q 506.99 313.71 503.15 304.36
  Q 499.65 295.82 492.84 285.94
  C 491.36 283.81 489.29 282.17 488.00 280.06
  A 4.90 4.35 -86.6 0 0 487.33 279.21
  Q 481.85 273.79 474.68 264.70
  Q 466.08 253.82 461.69 241.62
  C 460.25 237.63 459.65 233.70 458.42 229.19
  A 8.16 8.05 36.9 0 1 458.14 227.32
  C 457.93 222.00 457.13 217.09 457.34 211.88
  Q 457.81 200.14 461.88 188.60
  A 0.32 0.32 0.0 0 1 462.43 188.51
  Q 463.12 189.39 463.26 190.30
  Q 465.66 206.38 473.78 221.00
  C 475.47 224.05 477.33 227.67 479.29 230.57
  Q 490.57 247.32 499.62 261.81
  A 0.28 0.28 0.0 0 0 500.13 261.73
  L 500.25 261.26
  L 500.76 261.97
  A 0.22 0.21 23.7 0 0 501.15 261.82
  Q 500.92 260.06 501.38 259.12
  Q 500.40 250.57 499.25 242.19
  Q 497.62 230.30 497.42 225.25
  C 496.53 202.69 501.37 181.47 509.68 160.56
  Q 510.78 157.79 509.55 157.76
  L 510.64 154.99
  Z"
/>
<path d="
  M 591.63 240.19
  Q 592.38 245.34 592.49 247.79
  Q 593.35 266.64 584.22 282.47
  C 580.14 289.54 572.34 296.71 567.12 302.85
  Q 559.24 312.12 551.34 326.69
  Q 550.10 328.97 548.19 334.19
  C 546.54 338.68 544.36 343.77 543.12 348.52
  Q 542.14 352.30 541.12 355.22
  A 0.97 0.97 0.0 0 1 539.27 355.19
  C 537.74 350.25 537.58 344.44 537.18 335.65
  Q 537.00 331.90 538.41 322.30
  C 539.84 312.51 543.38 305.93 548.50 297.33
  Q 550.93 293.25 558.76 285.26
  Q 562.18 281.76 569.71 272.94
  Q 582.48 257.97 589.59 242.14
  A 2.46 2.25 79.3 0 1 589.95 241.56
  Q 590.71 240.69 590.93 240.12
  A 0.36 0.36 0.0 0 1 591.63 240.19
  Z"
/>
<path d="
  M 486.70 350.03
  Q 487.12 351.54 486.32 354.04
  Q 485.15 352.71 484.69 355.53
  A 0.37 0.37 0.0 0 1 483.98 355.60
  C 481.23 347.79 479.35 340.57 476.04 333.00
  Q 471.99 323.74 471.54 322.95
  Q 463.78 309.26 456.48 301.25
  Q 449.41 293.50 446.89 290.79
  Q 442.63 286.22 440.43 282.51
  C 437.80 278.05 434.80 272.01 433.83 266.57
  C 433.45 264.40 432.19 260.85 432.03 257.77
  Q 431.60 249.53 431.64 245.02
  A 1.49 1.47 66.1 0 1 431.99 244.09
  Q 432.77 243.17 433.64 243.01
  Q 434.47 242.87 435.08 244.06
  Q 441.72 256.99 451.51 269.23
  Q 451.64 269.40 452.51 270.52
  Q 455.67 274.60 461.36 280.60
  C 465.57 285.05 467.65 287.93 472.29 293.74
  Q 474.79 296.88 479.15 304.37
  Q 484.23 313.10 485.80 322.64
  Q 486.36 326.08 486.88 331.28
  Q 486.88 331.34 486.88 331.40
  L 486.70 350.03
  Z"
/>
<path d="
  M 699.01 352.57
  Q 699.22 351.88 698.96 351.17
  A 0.37 0.37 0.0 0 0 698.36 351.03
  L 696.32 352.99
  Q 696.41 352.67 696.39 352.44
  A 0.46 0.46 0.0 0 0 695.61 352.16
  Q 686.92 360.84 675.62 364.86
  Q 672.65 365.92 665.04 367.81
  A 4.27 4.15 37.1 0 1 664.00 367.94
  Q 660.78 367.94 657.40 368.90
  A 5.64 5.14 -51.7 0 1 656.19 369.10
  Q 653.44 369.27 650.68 369.63
  Q 645.84 370.28 645.17 370.07
  Q 644.88 369.98 637.25 371.01
  Q 622.73 372.99 611.42 380.43
  C 600.17 387.83 592.19 401.59 588.38 414.58
  A 3.16 3.13 68.6 0 1 588.07 415.30
  Q 586.64 417.68 586.81 419.84
  A 0.34 0.34 0.0 0 1 586.28 420.15
  Q 585.73 419.78 585.74 418.49
  C 585.77 411.11 585.48 406.09 586.79 399.57
  Q 590.78 379.67 605.97 367.83
  Q 614.32 361.32 628.57 356.63
  Q 640.43 352.72 653.24 350.83
  C 667.36 348.74 680.37 345.01 691.18 335.91
  Q 697.73 330.41 701.22 323.74
  C 705.85 314.91 707.07 306.05 707.54 296.00
  Q 707.70 292.66 706.70 289.57
  A 1.83 1.70 -52.0 0 1 706.63 288.76
  L 707.13 285.26
  A 0.48 0.48 0.0 0 1 707.99 285.04
  Q 725.24 308.56 727.12 338.53
  Q 728.32 357.68 725.73 373.01
  Q 724.95 377.65 722.49 386.78
  Q 719.08 399.38 711.99 411.33
  C 700.48 430.73 681.65 443.94 659.75 449.08
  Q 658.34 449.41 652.43 450.42
  Q 647.71 451.22 645.03 451.17
  C 637.13 451.02 627.56 449.99 620.99 444.96
  A 0.30 0.30 0.0 0 1 621.16 444.42
  Q 632.64 443.88 644.77 440.48
  Q 669.60 433.52 685.27 412.97
  Q 695.25 399.88 697.97 383.75
  C 698.97 377.87 699.60 374.89 699.83 370.27
  Q 700.22 362.35 700.54 356.75
  Q 700.76 352.84 699.01 352.57
  Z"
/>
<path d="
  M 327.86 353.05
  L 325.79 351.02
  A 0.48 0.47 25.7 0 0 324.98 351.30
  L 324.94 351.75
  L 324.61 351.36
  A 0.51 0.51 0.0 0 0 323.72 351.63
  Q 323.30 355.54 323.85 359.29
  A 5.91 5.75 -49.4 0 1 323.92 360.42
  Q 323.60 369.05 325.39 380.32
  Q 329.33 405.15 346.89 422.42
  Q 348.67 424.17 350.38 425.26
  Q 352.03 426.30 353.55 427.79
  A 5.54 4.91 -3.5 0 0 354.29 428.37
  C 361.92 433.15 367.77 436.79 376.40 439.58
  Q 389.51 443.81 403.14 444.24
  A 0.32 0.32 0.0 0 1 403.29 444.84
  C 390.45 452.21 376.80 452.31 362.08 448.76
  Q 347.17 445.18 334.78 436.00
  C 328.75 431.53 322.27 426.18 318.29 420.10
  C 317.11 418.30 315.37 416.71 314.15 414.78
  Q 301.36 394.49 298.40 373.35
  Q 295.27 351.06 298.16 330.74
  Q 300.97 310.95 310.86 293.10
  Q 313.14 288.99 316.22 285.68
  A 0.41 0.41 0.0 0 1 316.93 285.97
  Q 316.82 289.20 316.48 295.30
  Q 316.15 301.55 317.98 311.04
  Q 320.02 321.55 326.40 329.62
  Q 327.33 330.80 331.22 334.63
  C 338.22 341.52 348.63 346.21 357.85 348.36
  Q 365.45 350.13 380.30 352.67
  Q 387.55 353.90 399.15 357.87
  Q 410.91 361.90 420.72 370.05
  Q 426.06 374.49 430.24 381.27
  Q 435.89 390.41 437.72 401.25
  Q 438.48 405.72 438.88 415.71
  A 2.21 2.07 -43.1 0 1 438.85 416.17
  L 438.24 419.84
  A 0.37 0.36 27.5 0 1 437.62 420.03
  Q 437.33 419.73 437.18 419.17
  C 433.15 404.40 425.63 389.87 413.74 381.35
  Q 406.27 376.01 393.58 372.47
  Q 391.82 371.98 383.54 370.65
  C 377.74 369.73 372.34 369.96 366.57 368.79
  Q 364.97 368.47 359.78 367.73
  Q 342.14 365.22 328.98 352.92
  Q 328.68 352.65 328.40 352.71
  Q 328.10 352.77 327.86 353.05
  Z"
/>
<path d="
  M 403.98 406.44
  Q 404.53 409.73 402.40 413.37
  C 399.08 419.01 390.87 420.67 384.80 419.65
  Q 373.50 417.74 368.53 407.36
  A 3.86 3.55 -65.2 0 1 368.23 406.43
  Q 367.45 402.25 366.97 400.01
  Q 366.36 397.13 367.92 391.25
  A 2.67 2.66 -75.4 0 1 371.15 389.35
  L 374.84 390.30
  A 2.61 2.60 18.1 0 1 376.62 393.78
  Q 375.58 396.39 376.55 399.67
  Q 379.68 410.30 390.53 411.83
  A 3.59 3.37 -43.2 0 0 391.58 411.83
  Q 398.24 410.86 403.20 406.18
  A 0.47 0.47 0.0 0 1 403.98 406.44
  Z"
/>
<path d="
  M 619.69 410.04
  Q 618.84 409.94 619.07 407.04
  Q 619.52 407.08 620.13 406.46
  A 0.64 0.64 0.0 0 1 621.01 406.42
  C 626.24 410.88 632.08 413.64 638.65 410.17
  Q 648.96 404.72 647.32 392.98
  A 1.94 1.93 -15.5 0 1 648.48 390.94
  L 652.91 389.04
  A 2.11 2.09 -20.0 0 1 655.74 390.35
  Q 658.72 399.94 654.84 408.65
  Q 652.61 413.68 646.73 416.92
  Q 639.36 420.99 631.44 419.66
  Q 624.15 418.43 619.69 410.04
  Z"
/>
<path d="
  M 434.67 588.20
  Q 435.64 587.08 434.72 587.04
  Q 434.45 586.25 433.86 586.18
  Q 430.57 585.80 426.80 586.56
  A 6.65 6.33 39.8 0 1 424.97 586.68
  Q 412.21 585.81 410.94 585.58
  C 397.53 583.21 381.59 576.91 375.84 564.12
  Q 375.08 562.43 373.79 556.70
  Q 372.94 552.93 371.65 549.24
  Q 370.52 547.87 371.27 544.32
  Q 374.68 546.95 377.77 549.90
  Q 382.09 554.00 384.26 555.43
  C 397.62 564.27 415.30 568.90 431.05 564.25
  Q 431.52 564.12 431.55 563.82
  Q 431.58 563.51 431.20 563.23
  Q 432.17 563.07 432.72 562.69
  A 0.34 0.34 0.0 0 0 432.65 562.09
  L 431.25 561.56
  Q 432.13 561.27 431.96 560.63
  A 0.36 0.35 86.3 0 0 431.66 560.36
  Q 429.36 560.03 422.12 557.44
  Q 405.08 551.34 393.62 538.16
  Q 388.25 531.98 386.28 525.42
  A 1.86 1.82 44.4 0 1 386.26 524.46
  Q 387.88 518.25 390.02 514.76
  Q 403.13 493.33 425.73 480.64
  A 0.41 0.40 -88.7 0 1 426.27 481.21
  Q 417.16 496.29 416.41 512.52
  Q 415.65 528.91 427.30 539.48
  C 434.35 545.87 442.67 548.59 453.58 553.21
  Q 461.28 556.47 469.59 564.78
  A 3.67 2.92 1.6 0 0 470.03 565.15
  Q 472.42 566.88 473.92 569.06
  A 5.40 5.09 6.4 0 0 474.58 569.84
  Q 477.89 573.00 480.67 576.54
  Q 487.92 585.73 498.12 590.72
  C 501.60 592.42 495.90 598.13 493.91 599.66
  C 487.80 604.35 484.13 607.34 478.39 610.28
  Q 463.44 617.95 447.37 620.84
  Q 434.21 623.21 422.32 621.17
  Q 417.67 620.37 410.52 617.73
  C 400.30 613.96 391.72 605.67 385.70 596.38
  Q 385.16 595.54 385.15 595.37
  A 0.88 0.88 0.0 0 1 386.33 594.47
  Q 401.06 599.86 416.72 597.50
  C 423.56 596.47 429.70 593.31 435.19 589.17
  Q 435.66 588.81 434.67 588.20
  Z"
/>
<path d="
  M 591.95 561.76
  Q 591.60 561.80 591.41 562.07
  Q 591.27 562.27 591.33 562.52
  Q 591.39 562.75 591.55 562.94
  Q 591.30 563.17 591.30 563.38
  Q 591.30 563.60 591.63 563.70
  Q 605.58 567.99 620.17 564.19
  Q 636.20 560.00 647.71 549.20
  Q 648.82 548.16 651.07 546.06
  A 0.30 0.30 0.0 0 1 651.57 546.21
  L 651.96 547.85
  A 3.36 3.32 48.6 0 1 651.85 549.79
  Q 651.84 549.82 650.57 557.34
  Q 650.03 560.55 647.98 565.00
  C 644.41 572.77 635.63 578.04 627.40 581.17
  Q 617.14 585.06 610.76 585.73
  Q 607.34 586.09 606.71 586.09
  C 603.11 586.08 600.25 586.63 596.53 586.64
  Q 592.60 586.64 589.74 586.59
  Q 589.17 586.58 589.47 587.52
  L 588.62 587.37
  A 0.41 0.41 0.0 0 0 588.19 587.98
  Q 588.31 588.18 588.56 588.35
  L 588.10 588.49
  A 0.39 0.39 0.0 0 0 587.98 589.17
  Q 595.52 594.86 604.63 596.86
  Q 614.97 599.13 623.49 597.70
  Q 631.14 596.42 638.43 594.19
  A 0.27 0.26 7.2 0 1 638.74 594.58
  Q 635.68 599.53 632.16 603.65
  Q 628.74 607.64 623.67 611.14
  Q 610.58 620.15 594.93 621.84
  Q 586.71 622.73 577.45 621.28
  Q 561.69 618.81 549.12 612.84
  Q 539.63 608.33 530.63 600.12
  Q 527.12 596.92 524.89 592.64
  A 1.39 1.39 0.0 0 1 525.61 590.70
  Q 533.20 587.69 539.39 581.36
  C 541.98 578.70 545.68 574.72 549.10 570.47
  Q 557.03 560.63 568.10 554.55
  C 572.79 551.97 577.73 550.25 582.86 548.10
  C 593.09 543.81 603.47 535.71 606.45 524.84
  C 609.51 513.65 607.13 501.00 602.86 491.08
  Q 600.80 486.29 599.29 482.71
  A 0.37 0.36 89.6 0 1 599.76 482.23
  Q 602.19 483.18 604.48 484.79
  Q 613.56 491.18 616.62 493.88
  Q 620.95 497.69 626.20 503.74
  Q 634.05 512.78 637.90 523.52
  A 1.44 1.44 0.0 0 1 637.93 524.41
  C 635.22 533.92 628.25 541.94 620.37 547.62
  Q 607.75 556.74 592.42 560.57
  A 0.72 0.71 -11.7 0 0 591.88 561.38
  L 591.95 561.76
  Z"
/>
<path d="
  M 461.15 486.87
  A 1.11 1.10 -2.4 0 1 462.04 487.68
  Q 463.93 494.61 469.77 498.77
  Q 478.89 505.26 486.84 507.80
  Q 497.25 511.13 506.27 512.00
  Q 508.22 512.19 518.85 512.04
  A 8.87 8.79 -53.1 0 0 521.09 511.71
  C 524.15 510.86 527.24 510.71 530.84 509.76
  Q 540.14 507.32 547.50 503.39
  C 552.51 500.70 555.80 497.61 559.60 493.38
  Q 560.96 491.86 561.50 488.96
  C 561.92 486.72 563.26 486.12 565.22 487.04
  Q 568.88 488.76 571.09 489.96
  A 7.55 7.51 -10.4 0 1 572.36 490.83
  Q 579.15 496.71 581.37 505.92
  Q 582.82 511.91 581.08 516.02
  C 578.67 521.73 574.22 522.99 568.87 524.68
  A 7.40 6.93 -54.5 0 1 567.43 524.97
  C 554.90 526.15 543.13 534.72 535.97 544.69
  C 532.22 549.90 530.38 555.69 529.05 562.17
  Q 528.40 565.37 527.69 566.79
  Q 524.77 572.68 517.20 572.99
  Q 509.59 573.31 502.77 572.71
  C 497.10 572.21 495.21 566.47 494.34 561.71
  Q 492.40 551.04 487.32 544.21
  Q 479.93 534.30 467.04 528.04
  Q 463.99 526.56 458.99 525.45
  Q 453.17 524.15 450.82 523.14
  C 438.39 517.78 441.75 503.86 447.96 495.23
  Q 451.47 490.35 457.48 487.72
  C 458.82 487.13 459.49 486.58 461.15 486.87
  Z"
/>
<path d="
  M 562.54 681.74
  L 562.12 680.60
  A 0.36 0.35 -34.2 0 0 561.52 680.49
  Q 560.98 681.10 560.80 682.04
  Q 560.02 681.72 559.85 682.05
  Q 558.37 684.86 553.77 692.43
  C 548.13 701.73 538.54 708.16 528.75 710.97
  Q 513.12 715.45 497.36 711.12
  Q 480.38 706.46 470.30 691.42
  Q 466.57 685.85 464.14 681.55
  Q 463.88 681.10 463.38 682.00
  Q 463.19 681.24 462.80 680.70
  A 0.40 0.40 0.0 0 0 462.13 680.73
  Q 461.89 681.14 461.83 681.84
  Q 461.29 681.49 460.91 681.72
  A 0.29 0.27 -12.0 0 0 460.77 681.92
  Q 457.93 695.65 463.61 707.99
  A 0.65 0.64 84.2 0 1 462.88 708.89
  C 461.67 708.60 460.31 708.29 459.08 707.60
  Q 442.01 698.04 431.52 682.97
  Q 424.28 672.55 419.93 658.66
  Q 418.40 657.54 418.35 653.75
  Q 420.01 653.21 422.11 654.90
  C 427.27 659.05 435.06 662.47 441.81 662.52
  Q 453.69 662.60 460.59 652.59
  Q 463.95 647.72 468.69 643.50
  Q 472.94 639.72 478.93 636.93
  Q 489.35 632.08 500.76 630.16
  Q 502.94 629.80 511.59 629.70
  Q 518.08 629.62 522.39 630.11
  Q 537.02 631.79 550.44 639.52
  Q 556.96 643.28 560.39 647.86
  Q 564.57 653.42 564.71 653.59
  Q 571.68 662.42 583.27 662.39
  C 590.99 662.37 597.96 657.84 604.00 653.55
  A 0.32 0.32 0.0 0 1 604.50 653.85
  C 601.19 678.28 583.62 699.39 561.20 709.21
  A 0.44 0.43 70.9 0 1 560.61 708.92
  Q 560.30 707.72 560.72 706.76
  Q 565.88 695.02 563.53 682.45
  Q 563.36 681.54 562.54 681.74
  Z"
/>
</g>
<g fill="#c1150e">
<path d="
  M 756.25 170.81
  A 0.48 0.48 0.0 0 1 757.13 170.66
  Q 759.42 174.46 760.98 179.31
  C 773.00 216.68 750.36 251.06 716.62 265.80
  A 2.10 2.08 46.6 0 1 714.82 265.74
  Q 712.85 264.74 710.85 262.66
  C 704.87 256.43 700.30 250.46 702.31 241.53
  C 706.26 223.90 721.84 212.70 735.87 200.64
  C 744.53 193.20 753.74 182.06 756.25 170.81
  Z"
/>
<path d="
  M 267.90 170.86
  C 270.40 182.10 279.59 193.23 288.23 200.67
  C 302.23 212.72 317.78 223.92 321.71 241.53
  C 323.71 250.45 319.14 256.41 313.16 262.63
  Q 311.16 264.70 309.19 265.70
  A 2.10 2.08 -46.6 0 1 307.39 265.76
  C 273.71 251.01 251.13 216.65 263.17 179.34
  Q 264.73 174.50 267.02 170.71
  A 0.48 0.48 0.0 0 1 267.90 170.86
  Z"
/>
<path d="
  M 464.63 385.69
  Q 462.96 381.62 461.18 377.07
  Q 453.14 356.54 436.39 342.13
  C 429.04 335.81 420.28 331.87 411.30 328.20
  C 395.69 321.82 381.51 315.80 369.75 304.45
  C 341.22 276.89 350.09 230.82 381.43 209.19
  Q 381.92 208.85 382.15 208.85
  A 0.43 0.42 13.6 0 1 382.54 209.48
  Q 370.77 231.33 375.24 255.50
  C 377.85 269.59 388.70 283.88 401.10 291.41
  Q 410.27 296.97 422.91 303.85
  C 440.67 313.51 454.26 328.82 460.01 347.88
  C 463.62 359.84 465.40 373.26 465.02 385.62
  A 0.20 0.20 0.0 0 1 464.63 385.69
  Z"
/>
<path d="
  M 559.35 385.40
  Q 559.47 383.28 559.55 377.50
  Q 559.74 362.59 564.38 347.87
  Q 573.27 319.67 598.76 305.52
  Q 615.33 296.32 621.36 292.62
  C 635.10 284.19 646.79 270.37 649.39 254.00
  Q 652.29 235.75 645.32 217.46
  Q 644.05 214.13 641.14 209.25
  A 0.31 0.30 65.1 0 1 641.30 208.80
  Q 641.70 208.66 642.11 208.93
  C 668.19 226.13 679.49 262.74 664.59 291.22
  C 659.04 301.83 649.09 310.82 638.84 316.59
  C 628.37 322.48 619.28 325.90 605.08 332.08
  C 592.49 337.55 582.20 345.54 574.06 356.95
  Q 565.87 368.41 561.35 381.69
  C 560.89 383.05 560.94 384.36 559.81 385.59
  A 0.26 0.26 0.0 0 1 559.35 385.40
  Z"
/>
<path d="
  M 273.38 345.39
  A 0.31 0.31 0.0 0 1 273.83 345.74
  C 272.97 348.69 273.18 351.65 272.98 354.33
  Q 271.47 374.83 271.18 382.76
  Q 270.31 406.21 276.20 429.52
  Q 282.93 456.15 299.54 477.14
  C 312.16 493.09 328.89 503.97 348.19 508.71
  A 5.46 4.81 -33.4 0 0 349.26 508.86
  Q 351.17 508.96 352.75 509.34
  A 0.57 0.57 0.0 0 1 352.71 510.45
  C 340.12 512.59 325.95 513.26 314.28 509.67
  C 302.78 506.13 291.78 499.72 283.19 490.89
  C 265.58 472.80 256.31 448.40 255.88 423.24
  C 255.70 413.09 255.67 403.46 257.22 393.64
  Q 261.15 368.69 272.93 345.94
  Q 273.15 345.53 273.38 345.39
  Z"
/>
<path d="
  M 750.78 346.72
  A 0.23 0.23 0.0 0 1 751.22 346.61
  C 755.68 356.27 759.22 363.94 761.83 372.31
  Q 772.17 405.59 766.41 439.93
  C 759.66 480.15 728.22 514.11 685.21 512.02
  Q 675.88 511.57 671.21 510.63
  Q 670.70 510.53 670.39 510.35
  A 0.45 0.45 0.0 0 1 670.55 509.52
  C 708.02 503.40 734.68 472.90 745.55 438.04
  Q 751.90 417.68 752.73 399.95
  Q 753.61 381.11 751.71 362.23
  Q 751.01 355.20 750.78 346.72
  Z"
/>
<path d="
  M 292.25 412.89
  L 292.27 412.88
  A 0.36 0.35 71.3 0 1 292.69 413.09
  C 301.70 435.46 317.39 454.52 339.45 465.31
  Q 365.86 478.23 394.43 471.10
  A 0.36 0.36 0.0 0 1 394.75 471.72
  Q 377.82 486.11 355.42 485.21
  C 321.36 483.83 296.97 455.13 293.27 422.50
  Q 292.70 417.47 291.98 413.31
  A 0.37 0.37 0.0 0 1 292.25 412.89
  Z"
/>
<path d="
  M 628.79 471.54
  A 0.18 0.18 0.0 0 1 628.94 471.23
  Q 669.16 479.99 699.91 456.52
  C 711.75 447.48 721.11 434.89 727.61 421.37
  Q 728.27 420.01 731.39 413.02
  A 0.27 0.27 0.0 0 1 731.91 413.16
  C 731.16 418.51 730.96 423.88 729.80 429.21
  Q 722.69 461.93 694.66 478.08
  Q 686.06 483.03 674.97 484.59
  Q 648.86 488.24 628.79 471.54
  Z"
/>
</g>
<g fill="#fad82d">
<path d="
  M 523.26 259.26
  L 522.93 259.52
  A 0.39 0.39 0.0 0 1 522.30 259.17
  Q 523.03 251.81 524.51 243.31
  Q 526.10 234.14 526.87 222.74
  Q 527.22 217.59 526.78 211.64
  Q 526.04 201.59 525.87 200.58
  Q 522.45 179.61 513.79 158.67
  Q 513.22 157.30 512.42 156.03
  A 0.83 0.82 -17.8 0 0 511.67 155.65
  Q 510.69 155.73 510.64 154.99
  L 511.68 152.12
  A 0.32 0.32 0.0 0 1 512.27 152.10
  Q 516.99 162.92 520.69 174.08
  Q 530.34 203.11 527.42 230.98
  Q 526.28 241.87 523.26 259.26
  Z"
/>
<path d="
  M 509.55 157.76
  Q 510.78 157.79 509.68 160.56
  C 501.37 181.47 496.53 202.69 497.42 225.25
  Q 497.62 230.30 499.25 242.19
  Q 500.40 250.57 501.38 259.12
  Q 496.11 238.76 495.99 218.00
  Q 495.97 214.27 496.92 204.64
  C 498.51 188.63 503.39 172.65 509.55 157.76
  Z"
/>
<path d="
  M 500.25 261.26
  L 500.13 261.73
  A 0.28 0.28 0.0 0 1 499.62 261.81
  Q 490.57 247.32 479.29 230.57
  C 477.33 227.67 475.47 224.05 473.78 221.00
  Q 465.66 206.38 463.26 190.30
  Q 463.12 189.39 462.43 188.51
  A 0.32 0.32 0.0 0 0 461.88 188.60
  Q 457.81 200.14 457.34 211.88
  C 457.13 217.09 457.93 222.00 458.14 227.32
  A 8.16 8.05 36.9 0 0 458.42 229.19
  C 459.65 233.70 460.25 237.63 461.69 241.62
  Q 466.08 253.82 474.68 264.70
  Q 481.85 273.79 487.33 279.21
  A 4.90 4.35 -86.6 0 1 488.00 280.06
  C 489.29 282.17 491.36 283.81 492.84 285.94
  Q 499.65 295.82 503.15 304.36
  Q 506.99 313.71 511.01 330.02
  Q 511.25 331.00 512.01 332.26
  A 0.42 0.42 0.0 0 0 512.78 332.15
  Q 513.93 327.63 515.19 322.11
  Q 519.61 302.79 531.27 286.28
  Q 533.32 283.38 541.61 274.46
  Q 549.65 265.81 551.76 262.51
  C 556.50 255.12 560.91 248.04 563.27 239.64
  Q 567.21 225.64 567.08 215.47
  Q 566.93 203.60 563.20 192.52
  Q 562.53 190.52 561.56 188.87
  A 0.52 0.52 0.0 0 0 560.92 188.66
  L 560.60 188.80
  A 0.33 0.32 49.4 0 1 560.29 188.77
  Q 559.82 188.47 559.89 187.80
  L 560.33 183.07
  A 0.18 0.18 0.0 0 1 560.67 183.01
  C 573.18 209.56 569.53 239.43 552.82 263.05
  C 547.93 269.96 542.30 275.34 536.50 282.00
  C 522.00 298.64 515.56 319.50 512.36 341.06
  A 0.29 0.29 0.0 0 1 511.78 341.06
  C 508.69 318.64 501.51 296.79 486.06 279.69
  Q 476.90 269.55 475.36 267.65
  C 457.87 246.07 451.29 218.92 459.58 192.07
  Q 461.07 187.26 463.22 183.27
  A 0.33 0.32 57.8 0 1 463.83 183.41
  C 464.83 203.05 472.83 219.05 483.75 235.07
  Q 492.89 248.49 499.07 259.12
  Q 499.70 260.20 500.25 261.26
  Z"
/>
<path d="
  M 523.65 261.70
  Q 528.31 251.95 532.53 246.04
  Q 541.90 232.89 549.85 218.86
  Q 556.67 206.83 559.17 192.89
  Q 560.53 193.39 559.68 196.69
  C 555.10 214.43 545.52 229.32 534.86 244.60
  Q 530.26 251.18 524.75 261.55
  A 0.62 0.61 24.1 0 1 523.99 261.83
  L 523.65 261.70
  Z"
/>
<path d="
  M 539.97 361.25
  A 0.36 0.36 0.0 0 1 539.28 361.18
  Q 538.81 358.25 537.77 353.49
  Q 534.34 337.78 537.51 320.98
  Q 540.96 302.62 553.62 289.05
  Q 567.03 274.68 570.97 269.74
  Q 583.78 253.67 591.35 235.84
  A 0.39 0.39 0.0 0 1 592.08 235.91
  C 595.68 251.81 593.65 268.50 585.54 282.63
  C 580.65 291.14 570.58 300.06 565.04 307.28
  C 555.54 319.65 549.21 332.33 544.66 346.92
  Q 541.03 358.55 539.97 361.25
  Z
  M 591.63 240.19
  A 0.36 0.36 0.0 0 0 590.93 240.12
  Q 590.71 240.69 589.95 241.56
  A 2.46 2.25 79.3 0 0 589.59 242.14
  Q 582.48 257.97 569.71 272.94
  Q 562.18 281.76 558.76 285.26
  Q 550.93 293.25 548.50 297.33
  C 543.38 305.93 539.84 312.51 538.41 322.30
  Q 537.00 331.90 537.18 335.65
  C 537.58 344.44 537.74 350.25 539.27 355.19
  A 0.97 0.97 0.0 0 0 541.12 355.22
  Q 542.14 352.30 543.12 348.52
  C 544.36 343.77 546.54 338.68 548.19 334.19
  Q 550.10 328.97 551.34 326.69
  Q 559.24 312.12 567.12 302.85
  C 572.34 296.71 580.14 289.54 584.22 282.47
  Q 593.35 266.64 592.49 247.79
  Q 592.38 245.34 591.63 240.19
  Z"
/>
<path d="
  M 486.70 350.03
  L 486.88 331.40
  Q 486.88 331.34 486.88 331.28
  Q 486.36 326.08 485.80 322.64
  Q 484.23 313.10 479.15 304.37
  Q 474.79 296.88 472.29 293.74
  C 467.65 287.93 465.57 285.05 461.36 280.60
  Q 455.67 274.60 452.51 270.52
  Q 451.64 269.40 451.51 269.23
  Q 441.72 256.99 435.08 244.06
  Q 434.47 242.87 433.64 243.01
  Q 432.77 243.17 431.99 244.09
  A 1.49 1.47 66.1 0 0 431.64 245.02
  Q 431.60 249.53 432.03 257.77
  C 432.19 260.85 433.45 264.40 433.83 266.57
  C 434.80 272.01 437.80 278.05 440.43 282.51
  Q 442.63 286.22 446.89 290.79
  Q 449.41 293.50 456.48 301.25
  Q 463.78 309.26 471.54 322.95
  Q 471.99 323.74 476.04 333.00
  C 479.35 340.57 481.23 347.79 483.98 355.60
  A 0.37 0.37 0.0 0 0 484.69 355.53
  Q 485.15 352.71 486.32 354.04
  L 484.66 361.31
  A 0.19 0.18 44.6 0 1 484.30 361.31
  C 478.88 340.82 471.52 321.17 458.01 305.05
  Q 455.14 301.62 443.93 289.15
  Q 441.73 286.71 440.05 283.99
  Q 426.44 261.98 432.08 236.06
  A 0.31 0.30 -50.7 0 1 432.66 236.00
  Q 439.76 252.81 451.57 267.52
  Q 455.97 273.00 463.59 281.35
  C 474.92 293.76 484.83 307.66 487.32 324.48
  Q 489.20 337.19 486.70 350.03
  Z"
/>
<path d="
  M 699.01 352.57
  Q 700.76 352.84 700.54 356.75
  Q 700.22 362.35 699.83 370.27
  C 699.60 374.89 698.97 377.87 697.97 383.75
  Q 695.25 399.88 685.27 412.97
  Q 669.60 433.52 644.77 440.48
  Q 632.64 443.88 621.16 444.42
  A 0.30 0.30 0.0 0 0 620.99 444.96
  C 627.56 449.99 637.13 451.02 645.03 451.17
  Q 647.71 451.22 652.43 450.42
  Q 658.34 449.41 659.75 449.08
  C 681.65 443.94 700.48 430.73 711.99 411.33
  Q 719.08 399.38 722.49 386.78
  Q 724.95 377.65 725.73 373.01
  Q 728.32 357.68 727.12 338.53
  Q 725.24 308.56 707.99 285.04
  A 0.48 0.48 0.0 0 0 707.13 285.26
  L 706.63 288.76
  A 1.83 1.70 -52.0 0 0 706.70 289.57
  Q 707.70 292.66 707.54 296.00
  C 707.07 306.05 705.85 314.91 701.22 323.74
  Q 697.73 330.41 691.18 335.91
  C 680.37 345.01 667.36 348.74 653.24 350.83
  Q 640.43 352.72 628.57 356.63
  Q 614.32 361.32 605.97 367.83
  Q 590.78 379.67 586.79 399.57
  C 585.48 406.09 585.77 411.11 585.74 418.49
  Q 585.73 419.78 586.28 420.15
  A 0.34 0.34 0.0 0 0 586.81 419.84
  Q 586.64 417.68 588.07 415.30
  A 3.16 3.13 68.6 0 0 588.38 414.58
  C 592.19 401.59 600.17 387.83 611.42 380.43
  Q 622.73 372.99 637.25 371.01
  Q 644.88 369.98 645.17 370.07
  Q 645.84 370.28 650.68 369.63
  Q 653.44 369.27 656.19 369.10
  A 5.64 5.14 -51.7 0 0 657.40 368.90
  Q 660.78 367.94 664.00 367.94
  A 4.27 4.15 37.1 0 0 665.04 367.81
  Q 672.65 365.92 675.62 364.86
  Q 686.92 360.84 695.61 352.16
  A 0.46 0.46 0.0 0 1 696.39 352.44
  Q 696.41 352.67 696.32 352.99
  C 686.72 363.03 674.24 368.05 660.63 369.60
  Q 652.76 370.50 644.68 371.31
  Q 634.15 372.37 628.84 373.81
  Q 602.24 381.00 591.83 408.34
  Q 587.43 419.89 586.37 431.05
  A 0.53 0.52 2.3 0 1 585.84 431.53
  L 585.59 431.53
  A 0.13 0.12 -2.4 0 1 585.46 431.42
  Q 584.71 424.21 584.30 416.27
  Q 583.92 409.02 585.58 400.03
  C 592.14 364.58 623.82 354.33 654.87 349.60
  C 675.38 346.47 694.08 338.47 702.42 318.42
  C 707.08 307.22 706.92 292.55 704.96 280.51
  A 0.25 0.25 0.0 0 1 705.39 280.31
  C 720.51 297.76 727.47 318.90 728.61 342.03
  C 729.85 367.48 725.03 392.88 711.56 414.10
  C 699.94 432.41 681.80 445.00 660.68 450.16
  C 653.78 451.85 646.77 452.26 640.05 451.96
  Q 626.92 451.35 616.02 443.40
  A 0.27 0.27 0.0 0 1 616.20 442.92
  C 652.67 444.98 687.51 423.19 696.29 386.75
  Q 699.96 371.50 699.01 352.57
  Z"
/>
<path d="
  M 327.86 353.05
  Q 328.10 352.77 328.40 352.71
  Q 328.68 352.65 328.98 352.92
  Q 342.14 365.22 359.78 367.73
  Q 364.97 368.47 366.57 368.79
  C 372.34 369.96 377.74 369.73 383.54 370.65
  Q 391.82 371.98 393.58 372.47
  Q 406.27 376.01 413.74 381.35
  C 425.63 389.87 433.15 404.40 437.18 419.17
  Q 437.33 419.73 437.62 420.03
  A 0.37 0.36 27.5 0 0 438.24 419.84
  L 438.85 416.17
  A 2.21 2.07 -43.1 0 0 438.88 415.71
  Q 438.48 405.72 437.72 401.25
  Q 435.89 390.41 430.24 381.27
  Q 426.06 374.49 420.72 370.05
  Q 410.91 361.90 399.15 357.87
  Q 387.55 353.90 380.30 352.67
  Q 365.45 350.13 357.85 348.36
  C 348.63 346.21 338.22 341.52 331.22 334.63
  Q 327.33 330.80 326.40 329.62
  Q 320.02 321.55 317.98 311.04
  Q 316.15 301.55 316.48 295.30
  Q 316.82 289.20 316.93 285.97
  A 0.41 0.41 0.0 0 0 316.22 285.68
  Q 313.14 288.99 310.86 293.10
  Q 300.97 310.95 298.16 330.74
  Q 295.27 351.06 298.40 373.35
  Q 301.36 394.49 314.15 414.78
  C 315.37 416.71 317.11 418.30 318.29 420.10
  C 322.27 426.18 328.75 431.53 334.78 436.00
  Q 347.17 445.18 362.08 448.76
  C 376.80 452.31 390.45 452.21 403.29 444.84
  A 0.32 0.32 0.0 0 0 403.14 444.24
  Q 389.51 443.81 376.40 439.58
  C 367.77 436.79 361.92 433.15 354.29 428.37
  A 5.54 4.91 -3.5 0 1 353.55 427.79
  Q 352.03 426.30 350.38 425.26
  Q 348.67 424.17 346.89 422.42
  Q 329.33 405.15 325.39 380.32
  Q 323.60 369.05 323.92 360.42
  A 5.91 5.75 -49.4 0 0 323.85 359.29
  Q 323.30 355.54 323.72 351.63
  A 0.51 0.51 0.0 0 1 324.61 351.36
  L 324.94 351.75
  Q 324.29 367.98 326.86 381.93
  Q 332.29 411.43 356.35 428.20
  Q 379.15 444.09 407.27 442.89
  A 0.18 0.18 0.0 0 1 407.39 443.22
  Q 399.22 449.48 389.75 451.20
  C 381.55 452.69 371.70 452.37 362.87 450.18
  C 321.58 439.97 298.97 403.53 295.96 362.74
  C 293.78 333.02 299.47 303.59 318.23 280.57
  A 0.36 0.36 0.0 0 1 318.86 280.86
  C 318.69 281.93 318.23 283.05 318.18 284.10
  Q 317.63 295.51 317.80 300.75
  Q 318.50 322.66 334.02 335.58
  C 348.63 347.75 367.08 348.83 383.48 352.26
  C 397.10 355.12 410.52 359.89 420.74 368.56
  C 439.67 384.64 442.42 409.18 438.41 432.26
  A 0.11 0.11 0.0 0 1 438.19 432.25
  C 436.55 417.49 432.11 403.47 422.76 391.78
  C 407.93 373.23 387.92 372.04 365.38 369.85
  C 351.22 368.48 337.82 363.53 327.86 353.05
  Z"
/>
<path d="
  M 404.92 403.38
  C 407.54 421.62 387.70 424.52 375.84 417.50
  C 367.21 412.39 364.71 402.69 366.34 393.06
  Q 366.70 390.90 367.77 389.02
  A 2.12 2.11 -67.9 0 1 370.13 388.02
  L 376.51 389.66
  A 1.68 1.68 0.0 0 1 377.78 391.33
  L 377.61 398.29
  A 4.75 4.71 37.6 0 0 377.81 399.78
  Q 379.32 404.70 383.31 407.78
  C 391.13 413.83 398.82 409.58 404.33 403.20
  A 0.34 0.34 0.0 0 1 404.92 403.38
  Z
  M 403.98 406.44
  A 0.47 0.47 0.0 0 0 403.20 406.18
  Q 398.24 410.86 391.58 411.83
  A 3.59 3.37 -43.2 0 1 390.53 411.83
  Q 379.68 410.30 376.55 399.67
  Q 375.58 396.39 376.62 393.78
  A 2.61 2.60 18.1 0 0 374.84 390.30
  L 371.15 389.35
  A 2.67 2.66 -75.4 0 0 367.92 391.25
  Q 366.36 397.13 366.97 400.01
  Q 367.45 402.25 368.23 406.43
  A 3.86 3.55 -65.2 0 0 368.53 407.36
  Q 373.50 417.74 384.80 419.65
  C 390.87 420.67 399.08 419.01 402.40 413.37
  Q 404.53 409.73 403.98 406.44
  Z"
/>
<path d="
  M 619.69 410.04
  Q 624.15 418.43 631.44 419.66
  Q 639.36 420.99 646.73 416.92
  Q 652.61 413.68 654.84 408.65
  Q 658.72 399.94 655.74 390.35
  A 2.11 2.09 -20.0 0 0 652.91 389.04
  L 648.48 390.94
  A 1.94 1.93 -15.5 0 0 647.32 392.98
  Q 648.96 404.72 638.65 410.17
  C 632.08 413.64 626.24 410.88 621.01 406.42
  A 0.64 0.64 0.0 0 0 620.13 406.46
  Q 619.52 407.08 619.07 407.04
  L 619.13 403.38
  A 0.35 0.35 0.0 0 1 619.75 403.17
  C 624.38 409.11 631.58 413.04 638.98 408.96
  C 643.24 406.62 646.39 401.99 646.19 396.99
  Q 646.16 395.95 646.09 392.34
  A 2.51 2.51 0.0 0 1 647.59 390.00
  C 649.46 389.19 653.76 387.44 655.73 388.55
  A 1.75 1.72 0.9 0 1 656.42 389.25
  Q 657.87 392.04 658.07 398.28
  C 658.58 414.05 644.57 423.95 629.48 420.28
  Q 621.24 418.27 619.69 410.04
  Z"
/>
<path d="
  M 434.67 588.20
  Q 435.66 588.81 435.19 589.17
  C 429.70 593.31 423.56 596.47 416.72 597.50
  Q 401.06 599.86 386.33 594.47
  A 0.88 0.88 0.0 0 0 385.15 595.37
  Q 385.16 595.54 385.70 596.38
  C 391.72 605.67 400.30 613.96 410.52 617.73
  Q 417.67 620.37 422.32 621.17
  Q 434.21 623.21 447.37 620.84
  Q 463.44 617.95 478.39 610.28
  C 484.13 607.34 487.80 604.35 493.91 599.66
  C 495.90 598.13 501.60 592.42 498.12 590.72
  Q 487.92 585.73 480.67 576.54
  Q 477.89 573.00 474.58 569.84
  A 5.40 5.09 6.4 0 1 473.92 569.06
  Q 472.42 566.88 470.03 565.15
  A 3.67 2.92 1.6 0 1 469.59 564.78
  Q 461.28 556.47 453.58 553.21
  C 442.67 548.59 434.35 545.87 427.30 539.48
  Q 415.65 528.91 416.41 512.52
  Q 417.16 496.29 426.27 481.21
  A 0.41 0.40 -88.7 0 0 425.73 480.64
  Q 403.13 493.33 390.02 514.76
  Q 387.88 518.25 386.26 524.46
  A 1.86 1.82 44.4 0 0 386.28 525.42
  Q 388.25 531.98 393.62 538.16
  Q 405.08 551.34 422.12 557.44
  Q 429.36 560.03 431.66 560.36
  A 0.36 0.35 86.3 0 1 431.96 560.63
  Q 432.13 561.27 431.25 561.56
  C 412.38 556.63 393.29 545.72 385.51 527.00
  Q 384.44 524.43 385.86 520.87
  C 393.99 500.56 412.46 487.45 430.16 476.21
  A 0.20 0.20 0.0 0 1 430.43 476.49
  C 419.36 492.89 409.92 520.46 426.33 536.76
  Q 433.09 543.48 441.38 546.89
  C 451.68 551.12 458.08 553.51 465.69 559.59
  C 473.31 565.66 480.37 575.15 487.44 582.14
  Q 491.15 585.80 500.81 591.12
  A 0.61 0.61 0.0 0 1 501.07 591.91
  Q 498.94 596.39 495.98 599.23
  C 480.95 613.61 458.07 622.04 437.03 623.13
  Q 412.82 624.38 395.30 609.71
  C 389.73 605.05 385.06 597.74 381.17 591.41
  A 0.15 0.15 0.0 0 1 381.36 591.20
  Q 395.14 597.75 410.51 597.18
  Q 424.04 596.69 434.67 588.20
  Z"
/>
<path d="
  M 591.95 561.76
  L 591.88 561.38
  A 0.72 0.71 -11.7 0 1 592.42 560.57
  Q 607.75 556.74 620.37 547.62
  C 628.25 541.94 635.22 533.92 637.93 524.41
  A 1.44 1.44 0.0 0 0 637.90 523.52
  Q 634.05 512.78 626.20 503.74
  Q 620.95 497.69 616.62 493.88
  Q 613.56 491.18 604.48 484.79
  Q 602.19 483.18 599.76 482.23
  A 0.37 0.36 89.6 0 0 599.29 482.71
  Q 600.80 486.29 602.86 491.08
  C 607.13 501.00 609.51 513.65 606.45 524.84
  C 603.47 535.71 593.09 543.81 582.86 548.10
  C 577.73 550.25 572.79 551.97 568.10 554.55
  Q 557.03 560.63 549.10 570.47
  C 545.68 574.72 541.98 578.70 539.39 581.36
  Q 533.20 587.69 525.61 590.70
  A 1.39 1.39 0.0 0 0 524.89 592.64
  Q 527.12 596.92 530.63 600.12
  Q 539.63 608.33 549.12 612.84
  Q 561.69 618.81 577.45 621.28
  Q 586.71 622.73 594.93 621.84
  Q 610.58 620.15 623.67 611.14
  Q 628.74 607.64 632.16 603.65
  Q 635.68 599.53 638.74 594.58
  A 0.27 0.26 7.2 0 0 638.43 594.19
  Q 631.14 596.42 623.49 597.70
  Q 614.97 599.13 604.63 596.86
  Q 595.52 594.86 587.98 589.17
  A 0.39 0.39 0.0 0 1 588.10 588.49
  L 588.56 588.35
  C 595.47 593.19 603.03 596.32 611.52 596.94
  Q 627.48 598.10 642.17 591.18
  A 0.16 0.16 0.0 0 1 642.37 591.42
  C 637.76 598.01 635.07 602.28 631.35 606.07
  Q 616.09 621.59 593.48 622.95
  C 569.75 624.38 543.83 615.77 527.06 598.17
  Q 524.74 595.74 523.35 592.61
  A 1.57 1.56 -24.5 0 1 524.12 590.56
  Q 534.75 585.63 542.45 576.46
  Q 546.33 571.84 550.78 566.95
  C 557.11 559.98 564.34 554.70 572.21 551.46
  Q 583.99 546.61 586.02 545.56
  C 598.71 538.93 607.04 528.90 606.62 513.96
  Q 606.09 494.37 594.74 478.08
  A 0.17 0.17 0.0 0 1 594.97 477.83
  C 613.17 488.07 630.17 501.41 638.36 521.10
  C 641.36 528.31 630.89 540.38 625.96 544.71
  Q 611.25 557.61 591.95 561.76
  Z"
/>
<path d="
  M 561.23 486.39
  A 0.84 0.83 -83.7 0 1 562.06 485.72
  C 570.04 485.86 576.60 491.88 580.06 498.74
  C 582.97 504.52 585.20 515.55 579.57 520.63
  Q 574.88 524.86 569.30 525.64
  Q 552.16 528.03 540.40 541.16
  Q 534.01 548.29 531.65 556.64
  C 530.17 561.85 530.17 568.42 524.59 572.21
  C 521.02 574.63 513.82 574.45 509.25 574.40
  C 505.34 574.37 500.54 574.30 497.75 571.57
  C 493.31 567.21 493.24 561.17 492.04 556.64
  C 488.41 542.91 474.02 530.03 459.95 526.85
  C 451.75 524.99 444.60 523.35 441.89 515.63
  C 439.58 509.03 442.91 499.73 447.34 494.12
  Q 452.45 487.65 460.48 485.64
  A 1.94 1.93 71.4 0 1 462.73 486.76
  L 464.93 491.91
  A 0.90 0.85 16.6 0 0 465.07 492.15
  Q 469.61 498.12 477.00 502.08
  Q 500.59 514.70 527.21 509.58
  C 538.87 507.35 558.45 499.78 561.23 486.39
  Z
  M 461.15 486.87
  C 459.49 486.58 458.82 487.13 457.48 487.72
  Q 451.47 490.35 447.96 495.23
  C 441.75 503.86 438.39 517.78 450.82 523.14
  Q 453.17 524.15 458.99 525.45
  Q 463.99 526.56 467.04 528.04
  Q 479.93 534.30 487.32 544.21
  Q 492.40 551.04 494.34 561.71
  C 495.21 566.47 497.10 572.21 502.77 572.71
  Q 509.59 573.31 517.20 572.99
  Q 524.77 572.68 527.69 566.79
  Q 528.40 565.37 529.05 562.17
  C 530.38 555.69 532.22 549.90 535.97 544.69
  C 543.13 534.72 554.90 526.15 567.43 524.97
  A 7.40 6.93 -54.5 0 0 568.87 524.68
  C 574.22 522.99 578.67 521.73 581.08 516.02
  Q 582.82 511.91 581.37 505.92
  Q 579.15 496.71 572.36 490.83
  A 7.55 7.51 -10.4 0 0 571.09 489.96
  Q 568.88 488.76 565.22 487.04
  C 563.26 486.12 561.92 486.72 561.50 488.96
  Q 560.96 491.86 559.60 493.38
  C 555.80 497.61 552.51 500.70 547.50 503.39
  Q 540.14 507.32 530.84 509.76
  C 527.24 510.71 524.15 510.86 521.09 511.71
  A 8.87 8.79 -53.1 0 1 518.85 512.04
  Q 508.22 512.19 506.27 512.00
  Q 497.25 511.13 486.84 507.80
  Q 478.89 505.26 469.77 498.77
  Q 463.93 494.61 462.04 487.68
  A 1.11 1.10 -2.4 0 0 461.15 486.87
  Z"
/>
<path d="
  M 431.20 563.23
  Q 431.58 563.51 431.55 563.82
  Q 431.52 564.12 431.05 564.25
  C 415.30 568.90 397.62 564.27 384.26 555.43
  Q 382.09 554.00 377.77 549.90
  Q 374.68 546.95 371.27 544.32
  Q 370.62 543.54 371.10 541.81
  A 0.25 0.25 0.0 0 1 371.54 541.72
  C 385.41 559.68 408.98 568.95 431.20 563.23
  Z"
/>
<path d="
  M 589.47 587.52
  Q 589.17 586.58 589.74 586.59
  Q 592.60 586.64 596.53 586.64
  C 600.25 586.63 603.11 586.08 606.71 586.09
  Q 607.34 586.09 610.76 585.73
  Q 617.14 585.06 627.40 581.17
  C 635.63 578.04 644.41 572.77 647.98 565.00
  Q 650.03 560.55 650.57 557.34
  Q 651.84 549.82 651.85 549.79
  A 3.36 3.32 48.6 0 0 651.96 547.85
  L 651.57 546.21
  A 0.30 0.30 0.0 0 0 651.07 546.06
  Q 648.82 548.16 647.71 549.20
  Q 636.20 560.00 620.17 564.19
  Q 605.58 567.99 591.63 563.70
  Q 591.30 563.60 591.30 563.38
  Q 591.30 563.17 591.55 562.94
  Q 593.22 562.99 593.81 563.15
  C 613.15 568.30 634.37 561.24 648.20 547.43
  Q 649.36 546.28 652.81 541.74
  A 0.20 0.20 0.0 0 1 653.17 541.86
  C 652.99 558.36 650.42 570.86 635.49 578.80
  Q 618.44 587.86 596.48 587.94
  Q 591.43 587.96 589.47 587.52
  Z"
/>
<path d="
  M 434.72 587.04
  Q 432.54 587.67 430.27 587.81
  C 413.98 588.79 395.33 584.91 382.76 574.94
  Q 375.89 569.48 373.15 560.35
  Q 371.50 554.84 371.65 549.24
  Q 372.94 552.93 373.79 556.70
  Q 375.08 562.43 375.84 564.12
  C 381.59 576.91 397.53 583.21 410.94 585.58
  Q 412.21 585.81 424.97 586.68
  A 6.65 6.33 39.8 0 0 426.80 586.56
  Q 430.57 585.80 433.86 586.18
  Q 434.45 586.25 434.72 587.04
  Z"
/>
<path d="
  M 562.54 681.74
  Q 563.36 681.54 563.53 682.45
  Q 565.88 695.02 560.72 706.76
  Q 560.30 707.72 560.61 708.92
  A 0.44 0.43 70.9 0 0 561.20 709.21
  C 583.62 699.39 601.19 678.28 604.50 653.85
  A 0.32 0.32 0.0 0 0 604.00 653.55
  C 597.96 657.84 590.99 662.37 583.27 662.39
  Q 571.68 662.42 564.71 653.59
  Q 564.57 653.42 560.39 647.86
  Q 556.96 643.28 550.44 639.52
  Q 537.02 631.79 522.39 630.11
  Q 518.08 629.62 511.59 629.70
  Q 502.94 629.80 500.76 630.16
  Q 489.35 632.08 478.93 636.93
  Q 472.94 639.72 468.69 643.50
  Q 463.95 647.72 460.59 652.59
  Q 453.69 662.60 441.81 662.52
  C 435.06 662.47 427.27 659.05 422.11 654.90
  Q 420.01 653.21 418.35 653.75
  Q 417.57 651.91 417.45 649.92
  A 0.28 0.28 0.0 0 1 417.92 649.70
  C 427.38 659.17 445.57 667.70 456.58 655.56
  Q 457.88 654.13 462.43 648.43
  C 475.15 632.54 499.61 627.19 519.18 628.74
  C 534.11 629.93 552.27 635.67 561.84 647.90
  C 566.83 654.30 569.70 658.70 577.73 660.74
  C 587.99 663.35 599.18 657.26 606.13 649.49
  A 0.28 0.28 0.0 0 1 606.61 649.73
  C 605.49 655.68 604.83 659.69 603.44 663.94
  Q 592.16 698.24 558.37 711.66
  A 0.36 0.36 0.0 0 1 557.91 711.17
  Q 564.72 697.20 562.54 681.74
  Z"
/>
<path d="
  M 461.83 681.84
  C 459.43 691.96 461.87 702.12 466.08 711.33
  A 0.32 0.32 0.0 0 1 465.67 711.75
  Q 441.53 701.73 427.73 679.53
  Q 421.43 669.39 419.93 658.66
  Q 424.28 672.55 431.52 682.97
  Q 442.01 698.04 459.08 707.60
  C 460.31 708.29 461.67 708.60 462.88 708.89
  A 0.65 0.64 84.2 0 0 463.61 707.99
  Q 457.93 695.65 460.77 681.92
  A 0.29 0.27 -12.0 0 1 460.91 681.72
  Q 461.29 681.49 461.83 681.84
  Z"
/>
<path d="
  M 560.80 682.04
  C 551.50 705.37 531.61 716.31 506.86 714.03
  C 486.38 712.14 472.11 700.39 463.38 682.00
  Q 463.88 681.10 464.14 681.55
  Q 466.57 685.85 470.30 691.42
  Q 480.38 706.46 497.36 711.12
  Q 513.12 715.45 528.75 710.97
  C 538.54 708.16 548.13 701.73 553.77 692.43
  Q 558.37 684.86 559.85 682.05
  Q 560.02 681.72 560.80 682.04
  Z"
/>
</g>
</svg>
